<svg width="552" height="408" viewBox="0 0 552 408" fill="none" xmlns="http://www.w3.org/2000/svg">
<mask id="mask0" mask-type="alpha" maskUnits="userSpaceOnUse" x="0" y="0" width="548" height="408">
<rect width="548" height="408" rx="10" fill="#E9E9FE"/>
</mask>
<g mask="url(#mask0)">
<path d="M605.004 -75.1429L601.476 -72.2455C601.53 -72.0869 601.538 -71.9705 601.6 -71.9107C605.283 -68.4899 607.864 -64.2688 610.19 -59.8958C614.422 -51.9316 617.588 -43.523 620.3 -34.9443C626.053 -16.7462 629.895 2.00153 631.764 20.9955C632.348 26.8583 632.643 32.7419 632.649 38.6461C632.693 39.0869 632.594 39.53 632.367 39.9103C632.139 40.2906 631.796 40.588 631.387 40.7586C591.575 62.2895 551.789 83.8481 512.028 105.434C508.952 107.096 505.89 108.782 502.826 110.428C501.894 110.916 501.155 111.705 500.727 112.666C498.451 117.455 495.452 121.866 491.836 125.744C488.367 129.479 484.744 133.064 480.855 136.508C481.138 137.024 481.52 137.479 481.979 137.847C482.438 138.214 482.966 138.488 483.531 138.651C489.829 140.386 492.814 146.353 490.319 152.401C488.125 157.754 483.895 160.748 478.45 162.283C477.092 162.594 475.691 162.676 474.305 162.524C471.218 162.348 468.116 162.353 465.013 162.308C460.604 162.243 456.207 162.193 451.821 162.159C449.473 162.132 447.127 162.138 444.78 162.1C444.547 162.083 444.315 162.133 444.111 162.246C443.907 162.357 443.739 162.526 443.629 162.731C442.349 164.7 440.847 166.515 439.152 168.14C435.991 170.999 432.365 172.493 428.098 172.228C427.804 172.221 427.513 172.278 427.244 172.395C426.975 172.513 426.735 172.687 426.541 172.906C423.066 175.96 418.788 177.953 414.215 178.648C405.517 179.928 397.663 175.549 394.229 167.474C394.074 167.109 393.908 166.749 393.733 166.361C390.24 171.959 384.932 174.32 378.766 174.879C376.261 175.099 373.755 175.475 371.258 175.591C362.533 175.98 355.853 170.145 354.698 162.797C354.671 162.646 354.638 162.5 354.601 162.321C354.131 162.335 354.017 162.757 353.734 163.006C352.424 164.314 350.95 165.447 349.349 166.375C348.281 167.033 347.065 167.415 345.812 167.484C345.318 167.488 344.834 167.624 344.409 167.876C343.984 168.128 343.633 168.488 343.392 168.919C341.102 172.246 338.046 174.588 334.069 175.526C328.897 176.739 324.491 175.228 320.833 171.473C319.352 170.046 318.245 168.277 317.61 166.321C317.517 166.093 317.617 165.797 317.347 165.644C317.211 164.788 316.972 163.951 316.634 163.152C316.429 162.698 316.325 162.204 316.328 161.706C316.131 160.588 316.147 160.589 314.942 160.548C312.49 160.497 310.045 160.446 307.597 160.417C303.848 160.379 300.096 160.374 296.348 160.331C287.803 160.228 279.257 160.118 270.71 160C261.764 159.882 252.815 159.807 243.869 159.695C238.124 159.629 232.372 159.518 226.628 159.452C219.619 159.376 212.623 159.304 205.639 159.237C202.393 159.211 199.144 159.174 195.892 159.125L170.711 158.828C163.512 158.736 156.315 158.611 149.119 158.552C144.664 158.516 140.757 157.192 137.654 153.908C135.19 151.302 133.771 148.216 133.94 144.554C133.988 142.717 134.537 140.929 135.528 139.382C136.519 137.834 137.915 136.588 139.564 135.777C142.828 134.041 146.164 132.448 149.466 130.792L184.2 113.381C185.554 112.631 186.947 111.954 188.374 111.354C190.104 110.684 191.948 110.363 193.802 110.409C199.306 110.59 204.831 110.49 210.301 110.541C216.796 110.597 223.296 110.593 229.794 110.616L248.246 110.679L267.288 110.737L286.638 110.801L290.113 110.824C290.347 110.125 290.006 109.52 289.903 108.911C289.524 107.087 289.599 105.197 290.122 103.409C290.359 102.698 290.756 102.051 291.282 101.516C291.807 100.982 292.448 100.575 293.156 100.326C297.279 98.6045 301.691 98.3445 306.045 97.6719C308.274 97.3722 310.523 97.2436 312.772 97.2874C313.927 97.3442 315.065 96.9918 315.986 96.2921C316.735 95.7064 317.552 95.2119 318.419 94.8191C322.025 93.0843 325.414 90.9306 328.516 88.4026C333.096 84.8451 337.921 81.6166 342.956 78.7414C347.785 75.9102 352.416 72.7546 356.818 69.2962C361.679 65.5277 366.52 61.7465 371.648 58.329C372.809 57.5552 373.857 56.613 374.968 55.7638C378.902 52.7478 383.475 51.4351 388.314 50.9202C393.542 50.451 398.795 50.3192 404.041 50.5255C412.733 50.724 421.434 50.8735 430.112 50.1386C435.301 49.6914 440.36 48.2836 445.034 45.9868C449.891 43.6487 454.488 40.8026 458.746 37.496C481.501 19.705 504.249 1.88763 526.99 -15.956C551.86 -35.4278 576.729 -54.9181 601.595 -74.427C601.947 -74.7041 602.279 -75.0049 602.62 -75.2938L605.004 -75.1429Z" fill="black"/>
<path d="M316.644 163.163C316.943 163.498 317.163 163.896 317.286 164.328C317.41 164.759 317.434 165.213 317.357 165.655C316.898 164.905 316.652 164.043 316.644 163.163Z" fill="#181919"/>
<path d="M317.352 165.644C317.667 165.778 317.693 166.028 317.616 166.32C317.508 166.248 317.425 166.144 317.378 166.023C317.331 165.903 317.322 165.77 317.352 165.644Z" fill="#181919"/>
<path d="M489.66 90.9963C491.346 93.5338 492.997 96.0961 494.712 98.6082C496.813 101.774 498.541 105.171 499.863 108.732C500.004 109.044 500.074 109.383 500.069 109.725C500.065 110.067 499.985 110.403 499.836 110.711C497.49 115.905 494.305 120.677 490.408 124.836C487.373 128.09 484.229 131.237 480.922 134.217C480.554 134.627 480.115 134.968 479.627 135.224C479.27 135.05 478.963 134.788 478.735 134.462L465.01 119.993C464.645 119.657 464.341 119.261 464.11 118.822C462.544 115.339 458.234 112.633 454.42 112.579C447.175 112.506 439.93 112.371 432.681 112.275C425.433 112.179 418.089 112.104 410.791 112.01C403.493 111.916 396.294 111.823 389.068 111.729C381.841 111.635 374.476 111.552 367.178 111.453L351.894 111.24C351.968 110.694 352.43 110.646 352.748 110.444C357.807 107.214 363.129 104.451 368.402 101.602C371.651 99.8422 375.129 98.5578 378.526 97.1073C379.353 96.7499 380.18 96.3925 381.02 96.0747C386.131 94.1456 390.165 90.8172 393.408 86.4805C394.899 84.479 396.322 82.4282 397.771 80.3904C398.67 79.0697 399.649 77.8053 400.703 76.6043C400.87 76.4168 401.026 76.2204 401.172 76.0159C401.412 75.6808 401.622 75.3048 401.292 74.9214C400.962 74.5381 400.477 74.6893 400.092 74.9639C399.374 75.5097 398.751 76.1694 398.246 76.9169C396.807 78.8947 395.394 80.891 393.975 82.887C392.499 85.0256 390.853 87.0426 389.055 88.9188C387.053 90.9634 384.683 92.6111 382.07 93.7752C381.567 94.0024 381.074 94.2524 380.563 94.4459C366.156 99.9879 353.029 107.872 340.325 116.526C338.727 117.546 337.06 118.455 335.338 119.248C332.816 120.505 330.124 120.794 327.393 121.086C321.58 121.759 315.71 121.779 309.893 121.144C305.509 120.6 301.293 119.125 297.526 116.819C294.22 114.844 291.902 112.055 291.43 108.042C291.237 106.701 291.315 105.336 291.659 104.026C292.084 102.557 292.951 102.031 294.423 102.269C294.765 102.41 295.196 102.255 295.474 102.59C295.707 102.785 295.991 102.91 296.292 102.949C296.477 102.988 296.657 103.046 296.831 103.122C297.176 103.313 297.532 103.485 297.895 103.638C298.261 103.808 298.651 103.921 299.051 103.972C299.535 104.034 300.023 104.07 300.511 104.082C301.133 104.043 301.752 103.957 302.362 103.823C302.621 103.771 302.886 103.746 303.151 103.75C303.395 103.751 303.639 103.726 303.879 103.677C303.991 103.643 304.106 103.616 304.221 103.598C304.449 103.554 304.669 103.475 304.873 103.366C305.181 103.18 305.503 103.02 305.836 102.886C306.009 102.825 306.186 102.778 306.366 102.744C306.781 102.659 307.192 102.548 307.593 102.411L307.94 102.282C308.347 102.147 308.772 102.069 309.175 101.917C309.578 101.765 309.993 101.608 310.387 101.428C310.502 101.371 310.621 101.324 310.74 101.278C311.226 101.11 311.697 100.903 312.149 100.661C312.478 100.476 312.815 100.313 313.145 100.117C313.474 99.9213 313.789 99.7629 314.097 99.5542C314.481 99.256 314.927 99.0463 315.401 98.9401C316.841 97.023 319.011 96.1979 321.033 95.1245C323.98 93.527 326.772 91.66 329.374 89.5474C333.907 86.0123 338.692 82.8134 343.692 79.9764C348.687 77.0303 353.477 73.7483 358.028 70.153C363.399 65.9922 368.746 61.7911 374.527 58.1962C375.418 57.645 376.185 56.9079 377.051 56.3162C380.216 54.1366 383.831 53.1658 387.569 52.6899C391.836 52.1772 396.134 51.9827 400.43 52.1081C406.727 52.2266 413.023 52.4498 419.319 52.2978C423.961 52.1876 428.611 52.1385 433.22 51.4464C439.231 50.5337 444.737 48.2591 449.982 45.2641C454.266 42.7839 458.359 39.9884 462.228 36.9008C469.923 30.8561 477.62 24.7986 485.317 18.7283C521.792 -9.86116 558.266 -38.447 594.74 -67.0291L598.99 -70.3634C600.022 -71.169 600.027 -71.1686 601.02 -70.2114C602.595 -68.6725 603.995 -66.9653 605.197 -65.1204C608.089 -60.6844 610.562 -55.9885 612.582 -51.0936C617.655 -39.2648 621.259 -26.9723 624.217 -14.4577C627.005 -2.64691 628.994 9.33813 630.171 21.4161C630.706 26.9406 630.965 32.4775 631.067 38.0358C631.081 39.0245 630.557 39.3273 629.884 39.6907L603.936 53.7482L503.683 108.125L501.567 109.257C499.204 102.067 494.887 96.1274 490.64 90.1428C490.548 90.0396 490.464 89.9301 490.388 89.815C490.146 89.6782 489.925 89.5074 489.731 89.3078C489.618 89.1228 489.545 88.9242 489.437 88.7341C489.354 88.6069 489.263 88.4842 489.167 88.3662L488.863 88.0124C488.76 87.9054 488.659 87.7874 488.557 87.6695C488.483 87.5966 488.413 87.5195 488.348 87.4386L488.246 87.3262C488.175 87.2491 488.109 87.1724 488.043 87.0903L487.846 86.8548L487.75 86.7317C487.679 86.6547 487.613 86.578 487.547 86.4958L487.446 86.3779L487.243 86.142L487.135 86.0236C487.059 85.9461 486.993 85.864 486.922 85.7814C486.882 85.7445 486.844 85.7048 486.809 85.6626L486.585 85.4196L486.361 85.1656L486.249 85.0358C486.092 84.853 485.94 84.6761 485.794 84.4886C485.647 84.2917 485.516 84.0845 485.399 83.8686C485.211 83.5434 484.983 83.2427 484.721 82.9737C484.628 82.884 484.547 82.7896 484.461 82.6948L484.333 82.5529C483.934 82.1313 483.44 81.8128 483.066 81.3545C482.775 81.009 482.481 80.667 482.182 80.3283C481.934 80.0338 481.675 79.7385 481.432 79.45C481.341 79.3587 481.256 79.2621 481.177 79.1605L481.051 79.0131C480.958 78.9234 480.877 78.8236 480.791 78.7233C480.705 78.6231 480.705 78.6231 480.664 78.5759C480.23 78.0795 479.77 77.6067 479.286 77.1595C477.966 75.7353 476.557 74.3969 475.067 73.1523C475.813 74.9793 477.363 76.1603 478.638 77.5634C479.108 78.0189 479.549 78.5034 479.958 79.0141C480.045 79.1033 480.126 79.2032 480.202 79.2972C480.277 79.3911 480.364 79.4859 480.445 79.5857C480.526 79.6856 480.521 79.6797 480.562 79.7214C480.603 79.7631 480.724 79.9046 480.8 79.9986C480.993 80.2282 481.185 80.4577 481.395 80.6776C481.483 80.7559 481.564 80.8448 481.652 80.9286L481.928 81.1534C482.216 81.3788 482.481 81.6315 482.721 81.908C482.92 82.127 483.106 82.3617 483.299 82.5858C483.381 82.6692 483.451 82.7627 483.527 82.8512L483.745 83.1158L483.851 83.2451C483.928 83.3281 483.998 83.4161 484.064 83.4983C484.205 83.6689 484.342 83.8336 484.49 83.9937C484.638 84.1538 484.633 84.1533 484.704 84.2359C484.775 84.3185 484.84 84.4006 484.906 84.4828L485.109 84.7187L485.21 84.8421C485.276 84.9133 485.342 84.9955 485.408 85.0776C485.477 85.1548 485.541 85.237 485.599 85.3237C485.654 85.4081 485.703 85.4966 485.745 85.5884C485.801 85.7263 485.867 85.8602 485.941 85.9893L486.121 86.2291C486.193 86.3061 486.253 86.3824 486.319 86.4646C486.385 86.5467 486.457 86.6128 486.528 86.6954L486.63 86.8079C486.707 86.8854 486.772 86.9675 486.838 87.0442C486.904 87.1208 486.981 87.2038 487.052 87.2864C487.123 87.369 487.118 87.3685 487.153 87.4043C487.189 87.4401 487.296 87.5695 487.361 87.6516C487.435 87.7284 487.504 87.8091 487.569 87.8934L487.67 88.0169C487.745 88.0928 487.813 88.1754 487.873 88.2638L488.176 88.6286L488.486 88.9883C488.563 89.0658 488.634 89.1484 488.705 89.231L488.811 89.3603C488.882 89.4498 488.945 89.5449 489 89.6448C489.056 89.748 489.101 89.8568 489.135 89.9694C489.171 90.0879 489.201 90.2005 489.242 90.314C489.276 90.4298 489.336 90.5363 489.417 90.6251L489.415 90.6525L489.66 90.9963Z" fill="#F3F4FB"/>
<path d="M454.518 141.239C451.58 140.986 448.626 141.09 445.705 141.042C438.156 140.913 430.607 140.844 423.06 140.759C415.861 140.678 408.665 140.613 401.466 140.527C394.366 140.442 387.267 140.335 380.172 140.251C373.078 140.166 365.877 140.09 358.727 140.007L337.582 139.748L315.531 139.487L299.187 139.284L277.29 139.029C271.895 138.967 266.497 138.899 261.095 138.826L239.045 138.565L222.701 138.361L200.65 138.106C195.251 138.044 189.852 137.976 184.454 137.903L162.404 137.642C158.251 137.588 154.103 137.524 149.96 137.449C149.032 137.509 148.106 137.314 147.282 136.884C147.651 136.492 148.118 136.205 148.635 136.053C163.617 128.59 178.616 121.194 193.55 113.628C195.178 112.828 196.979 112.447 198.792 112.52C205.41 112.563 211.987 112.559 218.589 112.585C223.184 112.598 227.784 112.628 232.379 112.641L252.32 112.705L266.263 112.767L285.912 112.832C287.412 112.839 288.912 112.847 290.408 112.837C290.629 112.809 290.852 112.844 291.054 112.938C291.255 113.032 291.425 113.182 291.544 113.369C293.405 116.223 296.06 118.122 299.074 119.578C302.746 121.419 306.726 122.569 310.814 122.973C318.238 123.651 325.72 123.305 333.05 121.946C334.728 121.641 336.412 121.248 337.811 120.25C339.03 119.375 340.297 118.593 341.534 117.77C344.551 115.722 347.602 113.727 350.772 111.625C350.981 112.082 350.833 112.585 351.232 112.852C351.627 113.068 352.079 113.157 352.526 113.109C360.122 113.21 367.719 113.31 375.319 113.409C384.267 113.516 393.214 113.623 402.159 113.73C407.672 113.801 413.182 113.899 418.655 113.973C426.104 114.067 433.551 114.158 440.997 114.244C445.497 114.28 450.006 114.34 454.524 114.424C457.675 114.484 459.906 116.229 461.949 118.418C462.028 118.484 462.086 118.57 462.118 118.668C462.529 120.547 464.104 121.614 465.305 122.901C470.092 128.005 474.927 133.068 479.739 138.151C480.141 138.463 480.464 138.865 480.682 139.325C479.925 139.805 479.093 140.157 478.221 140.366C474.479 141.487 470.652 141.603 466.787 141.347C465.854 141.277 464.904 140.99 463.973 141.351C462.931 141.996 461.829 141.533 460.758 141.546C460.205 141.554 459.674 141.288 459.112 141.423C457.564 141.467 456.052 141.089 454.518 141.239Z" fill="white"/>
<path d="M468.365 143.265C472.112 143.483 475.868 143.016 479.448 141.888C480.266 141.676 481.039 141.321 481.733 140.839C482.477 140.272 483.154 140.355 483.953 140.675C488.329 142.437 490.33 146.587 488.843 151.033C487.316 155.592 483.965 158.337 479.623 160.031C478.414 160.505 477.124 160.734 475.826 160.707C463.783 160.539 451.735 160.431 439.685 160.285C429.437 160.163 419.191 160.008 408.943 159.886C400.096 159.775 391.246 159.703 382.398 159.597C373.798 159.505 365.201 159.363 356.602 159.254C349.303 159.166 342.008 159.11 334.709 159.022C327.708 158.939 320.709 158.829 313.714 158.746C306.415 158.657 299.115 158.591 291.817 158.502C284.771 158.421 277.722 158.313 270.672 158.226C263.374 158.136 256.074 158.056 248.774 157.988C241.829 157.902 234.882 157.812 227.933 157.718L210.683 157.53L194.808 157.323L177.56 157.107L156.116 156.842C153.266 156.805 150.413 156.812 147.567 156.654C145.66 156.582 143.795 156.071 142.118 155.16C140.441 154.25 138.996 152.965 137.896 151.405C135.928 148.736 135.142 145.748 136.148 142.485C136.866 140.255 138.104 138.466 140.456 137.638C140.739 137.538 141.009 137.402 141.258 137.234C142.421 136.45 143.302 136.251 144.512 137.478C145.941 138.948 148.05 139.233 150.088 139.281C152.588 139.346 155.085 139.373 157.588 139.406L174.382 139.561C181.88 139.648 189.379 139.735 196.88 139.822C202.227 139.886 207.573 139.966 212.926 140.03C220.323 140.121 227.721 140.206 235.12 140.286L251.012 140.483L273.361 140.744L289.104 140.941L311.75 141.202C316.998 141.264 322.246 141.332 327.493 141.405C334.99 141.492 342.49 141.579 349.99 141.666C355.338 141.73 360.684 141.81 366.036 141.875C373.435 141.958 380.833 142.043 388.231 142.13L403.974 142.321L426.62 142.588C431.968 142.652 437.313 142.738 442.666 142.797C447.312 142.843 451.959 142.878 456.607 142.903C458.005 142.864 459.418 143.014 460.774 142.514L461.322 142.555C463.665 142.736 465.957 143.52 468.365 143.265Z" fill="#F3F4FB"/>
<path d="M394.127 161.54C395.633 161.531 397.02 161.508 398.41 161.519C404.805 161.589 411.201 161.669 417.598 161.758C418.149 161.767 418.929 161.522 419.309 161.98C419.844 162.656 420.121 163.5 420.09 164.362C420.007 165.86 419.755 167.344 419.34 168.786C419.198 169.573 418.917 170.33 418.51 171.019C418.441 171.093 418.388 171.181 418.357 171.277C418.325 171.373 418.315 171.475 418.328 171.576C418.34 171.677 418.375 171.773 418.429 171.859C418.483 171.944 418.556 172.017 418.641 172.072C419.166 172.436 419.484 172.09 419.771 171.72C419.959 171.486 420.104 171.221 420.199 170.936C421.074 168.027 422.102 165.13 421.053 161.824L442.223 162.058C438.964 167.039 435.117 170.817 428.952 170.769C427.439 170.74 425.975 171.304 424.872 172.34C420.659 175.776 415.84 177.65 410.349 177.371C402.505 176.971 396.379 171.767 394.585 164.107C394.392 163.298 394.289 162.463 394.127 161.54Z" fill="#F3F4FB"/>
<path d="M317.965 162.844C317.9 162.155 317.836 161.466 317.748 160.582L345.162 160.908C345.19 161.728 345.025 162.544 344.68 163.288C343.618 166.645 341.544 169.591 338.741 171.721C332.694 176.289 324.959 175.103 320.589 168.905C320.093 168.173 319.638 167.388 319.165 166.63C318.97 166.218 318.866 165.769 318.71 165.349C318.444 165.213 318.531 164.933 318.442 164.722C317.918 164.203 318.121 163.479 317.965 162.844Z" fill="#F3F4FB"/>
<path d="M356.033 161.038L383.761 161.371C383.937 162.815 383.721 164.28 383.134 165.612C381.093 170.761 377.168 173.524 371.779 174.086C369.508 174.366 367.204 174.091 365.062 173.285C362.921 172.479 361.007 171.166 359.485 169.457C357.324 167.181 356.092 164.177 356.033 161.038Z" fill="#F3F4FB"/>
<path d="M379.734 172.629C381.995 170.735 383.777 168.518 384.672 165.638C385.088 164.284 385.321 162.88 385.365 161.464C387.64 161.364 389.881 161.427 392.116 161.5C392.313 161.515 392.571 161.535 392.623 161.726C392.788 162.4 392.902 163.088 393.049 163.772C393.094 163.942 393.08 164.121 393.01 164.282C392.94 164.443 392.817 164.576 392.663 164.659C392.565 164.734 392.483 164.829 392.425 164.938C392.366 165.047 392.332 165.167 392.323 165.29C392.124 166.173 391.681 166.983 391.045 167.627C388.371 170.639 384.698 172.581 380.704 173.093C380.277 173.122 379.728 173.451 379.734 172.629Z" fill="#F3F4FB"/>
<path d="M294.751 102.013C294.599 101.897 294.388 101.765 294.682 101.6C295.521 101.155 296.428 100.85 297.365 100.697C301.465 99.8831 305.611 99.3184 309.779 99.006C311.265 98.9131 312.766 99.0586 314.254 98.8555C314.308 98.8195 314.371 98.7999 314.436 98.7988C314.5 98.7978 314.564 98.8155 314.619 98.8498C314.749 99.1685 314.527 99.3394 314.342 99.5242C314.235 99.598 314.121 99.6615 314.002 99.714C313.71 99.8429 313.428 99.9932 313.157 100.164C312.872 100.29 312.605 100.456 312.365 100.656C312.253 100.718 312.137 100.77 312.016 100.812C311.54 100.986 311.082 101.211 310.606 101.38L310.253 101.524C309.853 101.71 309.429 101.838 309.024 102.012C308.62 102.185 308.184 102.252 307.776 102.398L307.424 102.532C307.006 102.655 306.59 102.767 306.167 102.885C305.977 102.902 305.789 102.939 305.607 102.997L304.342 103.454L303.955 103.547C303.382 103.829 302.733 103.725 302.149 103.935C301.458 104.027 300.773 104.18 300.07 104.21C299.799 104.244 299.524 104.236 299.255 104.188C298.951 104.049 298.612 104.013 298.315 103.853C297.917 103.635 297.467 103.535 297.083 103.286L296.731 103.127C296.444 102.979 296.117 102.921 295.83 102.778C295.496 102.516 295.019 102.408 294.751 102.013Z" fill="#FDFEFE"/>
<path d="M345.235 165.972C345.775 164.435 346.406 163.08 346.666 161.605C346.762 161.06 347.103 160.92 347.626 160.932C349.46 160.975 351.297 160.98 353.139 161.002C352.373 163.196 348.075 165.92 345.235 165.972Z" fill="#F3F4FB"/>
<path d="M468.365 143.263C467.989 143.394 467.586 143.426 467.194 143.358C465.169 143.206 463.147 143.099 461.121 142.964C461.126 142.903 461.07 142.839 461.041 142.776C461.1 142.654 461.192 142.552 461.306 142.481C461.441 142.375 461.73 142.276 461.617 142.096C461.374 141.73 460.919 141.906 460.534 141.822C460.003 141.758 459.495 141.569 459.052 141.269C460.675 141.134 462.307 141.168 463.922 141.369C463.566 142.584 463.669 142.757 464.822 142.904C465.976 143.051 467.202 142.961 468.365 143.263Z" fill="#302D2D"/>
<path d="M459.07 141.249L460.912 141.487C461.441 141.786 461.533 142.184 461.138 142.668C461.042 142.761 460.937 142.845 460.826 142.92C459.424 143.07 458.008 143.062 456.607 142.897C457.096 142.481 457.655 142.76 458.187 142.723C458.531 142.727 458.874 142.703 459.213 142.651C459.334 142.616 459.439 142.54 459.511 142.437C459.583 142.334 459.618 142.21 459.609 142.084C459.607 142.02 459.592 141.956 459.565 141.897C459.537 141.838 459.498 141.786 459.45 141.743C459.401 141.7 459.344 141.668 459.283 141.648C459.221 141.627 459.156 141.62 459.092 141.626C458.499 141.582 457.901 141.537 457.308 141.493C456.364 141.479 455.423 141.394 454.491 141.238C456.039 140.984 457.551 141.202 459.07 141.249Z" fill="#121515"/>
<path d="M184.533 116.165C184.507 116.21 184.467 116.244 184.42 116.264C184.373 116.283 184.32 116.286 184.271 116.273C184.133 116.313 184.005 116.382 183.897 116.476C183.89 116.495 183.879 116.511 183.866 116.525C183.852 116.539 183.835 116.55 183.817 116.557C183.799 116.564 183.779 116.567 183.76 116.566C183.74 116.565 183.721 116.559 183.704 116.55C183.33 116.671 183.274 116.463 183.302 116.161C183.386 116.086 183.484 116.03 183.591 115.995L183.869 115.889C183.995 115.833 184.114 115.764 184.226 115.684C186.048 114.717 187.81 113.663 189.773 113.01C190.141 112.883 190.176 113.084 190.127 113.368C188.403 114.338 186.63 115.218 184.815 116.004C184.731 116.074 184.635 116.129 184.533 116.165Z" fill="#D2DCDC"/>
<path d="M183.3 116.182L183.702 116.571C183.1 117.009 182.432 117.346 181.723 117.57C181.636 117.641 181.536 117.695 181.43 117.731L181.157 117.843C181.024 117.885 180.901 117.953 180.794 118.042C180.777 118.078 180.745 118.106 180.707 118.12C180.669 118.134 180.627 118.132 180.59 118.115C180.217 118.23 180.155 118.027 180.189 117.726C180.279 117.658 180.378 117.603 180.483 117.56L180.745 117.448C180.885 117.409 181.014 117.339 181.124 117.244C181.802 116.8 182.533 116.444 183.3 116.182Z" fill="#C9D0D0"/>
<path d="M489.411 90.6301C489.335 90.6111 489.267 90.5683 489.217 90.508C489.167 90.4477 489.137 90.373 489.133 90.2948C489.037 90.2337 488.969 90.1374 488.943 90.0268C488.899 90.0153 488.861 89.9873 488.837 89.9485C488.813 89.9096 488.805 89.8631 488.815 89.8186C488.815 89.7331 488.789 89.6497 488.74 89.5798C488.691 89.5099 488.621 89.457 488.541 89.4283C488.506 89.2989 488.477 89.1753 488.448 89.0462C488.429 88.9657 488.428 88.8821 488.444 88.8011C488.461 88.7201 488.494 88.6435 488.543 88.5765C488.591 88.5095 488.653 88.4537 488.725 88.4129C488.797 88.372 488.877 88.347 488.959 88.3396C489.085 88.3432 489.207 88.3851 489.309 88.4596C489.53 88.6748 489.639 88.9864 489.926 89.1348C490.05 89.201 490.157 89.2956 490.237 89.411C490.318 89.5264 490.37 89.6591 490.389 89.7985C489.755 89.7234 489.395 89.9558 489.411 90.6301Z" fill="#1E1B1B"/>
<path d="M173.316 121.157C173.997 120.712 174.728 120.349 175.494 120.073C175.585 120.005 175.686 119.949 175.793 119.908L176.066 119.796C176.422 119.696 176.479 119.893 176.435 120.177C176.326 120.241 176.216 120.31 176.101 120.367C176.093 120.387 176.08 120.405 176.065 120.421C176.05 120.436 176.031 120.448 176.011 120.456C175.991 120.465 175.97 120.469 175.948 120.469C175.926 120.469 175.905 120.464 175.885 120.456C175.726 120.483 175.579 120.559 175.466 120.673C175.137 120.954 174.743 121.148 174.32 121.238C174.167 121.272 174.025 121.347 173.912 121.456L173.851 121.528L173.752 121.521C173.379 121.648 173.305 121.449 173.316 121.157Z" fill="#C7D4D4"/>
<path d="M180.172 117.726L180.574 118.115C179.972 118.559 179.303 118.906 178.593 119.142C178.492 119.129 178.397 119.084 178.323 119.013C178.25 118.942 178.202 118.848 178.187 118.747C178.792 118.307 179.462 117.962 180.172 117.726Z" fill="#C6CDCD"/>
<path d="M172.105 122.308C171.524 122.76 170.864 123.102 170.159 123.315C170.066 123.297 169.981 123.25 169.916 123.18C169.851 123.111 169.809 123.024 169.796 122.93C170.397 122.507 171.062 122.185 171.766 121.974C171.886 122.065 172.094 122.092 172.105 122.308Z" fill="#C3CBCB"/>
<path d="M168.997 123.879C168.397 124.316 167.733 124.659 167.028 124.896C166.936 124.878 166.852 124.832 166.788 124.764C166.724 124.695 166.683 124.609 166.671 124.516C167.271 124.088 167.932 123.752 168.632 123.521C168.769 123.614 168.975 123.657 168.997 123.879Z" fill="#C1C8C8"/>
<path d="M165.861 125.442C165.261 125.877 164.595 126.213 163.889 126.436C163.765 126.322 163.576 126.27 163.552 126.069C164.147 125.637 164.805 125.3 165.503 125.068C165.638 125.182 165.844 125.226 165.861 125.442Z" fill="#BEC4C4"/>
<path d="M178.189 118.723L178.595 119.117L178.568 119.115C178.493 119.184 178.402 119.233 178.303 119.256L178.006 119.388C177.884 119.443 177.767 119.508 177.655 119.582C177.297 119.862 176.881 120.059 176.437 120.159L176.068 119.778C176.343 119.526 176.685 119.359 177.053 119.3C177.146 119.225 177.252 119.166 177.364 119.125C177.39 119.082 177.429 119.05 177.475 119.031C177.521 119.013 177.572 119.01 177.62 119.022C177.762 118.985 177.892 118.914 178 118.814C178.005 118.794 178.014 118.776 178.027 118.761C178.039 118.746 178.055 118.733 178.073 118.725C178.091 118.716 178.111 118.711 178.131 118.711C178.151 118.711 178.17 118.715 178.189 118.723Z" fill="#C9CFCF"/>
<path d="M159.254 128.203C159.73 127.863 160.256 127.599 160.814 127.421C160.938 127.529 161.133 127.577 161.162 127.783C160.476 128.256 159.728 128.629 158.938 128.891C158.872 128.832 158.83 128.751 158.818 128.663C158.807 128.576 158.827 128.487 158.874 128.412C159.039 128.424 159.137 128.299 159.254 128.203Z" fill="#C2C6C6"/>
<path d="M161.163 127.766L160.815 127.404C161.293 127.066 161.821 126.804 162.379 126.627C162.509 126.73 162.699 126.778 162.722 126.984C162.261 127.348 161.73 127.614 161.163 127.766Z" fill="#C3CCCC"/>
<path d="M158.875 128.412L158.938 128.891C158.564 129.202 158.125 129.426 157.653 129.545C157.545 129.438 157.36 129.413 157.341 129.218C157.784 128.837 158.309 128.561 158.875 128.412Z" fill="#BDC8C8"/>
<path d="M157.415 129.632C157.041 129.991 156.57 130.234 156.06 130.33C155.953 130.217 155.756 130.192 155.744 129.987C156.116 129.634 156.579 129.393 157.082 129.292C157.207 129.39 157.403 129.427 157.415 129.632Z" fill="#AEB5B5"/>
<path d="M165.861 125.443L165.503 125.068C165.837 124.795 166.229 124.6 166.649 124.498L167.007 124.878C166.676 125.156 166.283 125.35 165.861 125.443Z" fill="#C6CACA"/>
<path d="M155.85 130.414C155.477 130.779 155.006 131.027 154.494 131.129C154.386 131.022 154.19 130.991 154.183 130.792C154.553 130.438 155.017 130.199 155.52 130.103C155.641 130.178 155.838 130.209 155.85 130.414Z" fill="#ACB3B3"/>
<path d="M168.997 123.877L168.633 123.503C168.969 123.23 169.36 123.033 169.78 122.926L170.143 123.312C169.814 123.593 169.42 123.787 168.997 123.877Z" fill="#C8CECE"/>
<path d="M154.28 131.195C153.907 131.553 153.438 131.796 152.931 131.894C152.823 131.787 152.626 131.761 152.62 131.557C152.989 131.2 153.454 130.957 153.958 130.857C154.077 130.959 154.268 130.99 154.28 131.195Z" fill="#AAB1B1"/>
<path d="M173.316 121.156L173.73 121.518C173.324 121.863 172.84 122.105 172.32 122.223C172.196 122.109 172.001 122.072 171.971 121.872C172.356 121.529 172.817 121.283 173.316 121.156Z" fill="#C5CDCD"/>
<path d="M152.715 131.978C152.336 132.337 151.862 132.579 151.35 132.676C151.242 132.568 151.039 132.548 151.038 132.338C151.409 131.982 151.873 131.739 152.376 131.638C152.523 131.743 152.702 131.778 152.715 131.978Z" fill="#A9AFAF"/>
<path d="M146.705 135.014C146.183 135.279 145.745 135.825 144.824 135.525C145.237 135.124 145.75 134.841 146.309 134.703C146.633 134.568 146.697 134.754 146.705 135.014Z" fill="#B6B7B7"/>
<path d="M162.721 127L162.378 126.643C162.713 126.369 163.104 126.172 163.525 126.067L163.861 126.434C163.529 126.708 163.139 126.901 162.721 127Z" fill="#CAD3D3"/>
<path d="M146.705 135.015L146.309 134.704C146.721 134.373 147.193 134.125 147.699 133.975C147.835 134.073 148.019 134.12 148.025 134.336C147.634 134.647 147.186 134.878 146.705 135.015Z" fill="#A2B2B2"/>
<path d="M317.965 162.842C318.232 163.443 318.393 164.086 318.44 164.743C317.486 164.301 317.913 163.528 317.965 162.842Z" fill="#181919"/>
<path d="M149.488 133.143C149.865 132.803 150.321 132.563 150.815 132.443C150.935 132.529 151.11 132.553 151.129 132.742C150.751 133.084 150.293 133.325 149.796 133.442C149.669 133.377 149.5 133.343 149.488 133.143Z" fill="#C0CACA"/>
<path d="M149.488 133.142L149.808 133.442L148.6 134.03C148.272 134.127 148.229 133.969 148.304 133.705C148.652 133.432 149.057 133.24 149.488 133.142Z" fill="#D5DFDF"/>
<path d="M294.751 102.011C295.215 102.074 295.647 102.286 295.98 102.617C295.963 102.702 295.925 102.782 295.869 102.848C295.813 102.914 295.741 102.965 295.659 102.995C295.605 103.013 295.547 103.013 295.493 102.996C295.439 102.979 295.392 102.946 295.357 102.901C295.159 102.528 294.613 102.674 294.433 102.28L294.751 102.011Z" fill="#4E4444"/>
<path d="M314.232 99.3657C314.193 99.1531 314.582 99.1878 314.48 98.9373C314.563 98.7836 314.745 98.7807 314.869 98.6796L315.4 98.9511C315.108 99.3521 314.7 99.6545 314.232 99.8181L314.12 99.6829C314.124 99.5681 314.163 99.4572 314.232 99.3657Z" fill="#3A3B3B"/>
<path d="M379.734 172.628C379.917 173.061 380.355 172.956 380.682 173.091C380.408 173.352 380.065 173.299 379.732 173.318C379.399 173.42 379.079 173.495 379.142 172.954C379.328 172.824 379.475 172.631 379.734 172.628Z" fill="#E1E2E2"/>
<path d="M318.699 165.349C318.89 165.496 319.034 165.695 319.115 165.922C319.196 166.149 319.21 166.395 319.154 166.63C318.959 166.486 318.811 166.288 318.73 166.059C318.648 165.831 318.638 165.583 318.699 165.349Z" fill="#181919"/>
<path d="M190.407 112.725C190.557 112.594 190.744 112.51 190.943 112.486C191.141 112.461 191.342 112.497 191.52 112.588C191.457 112.729 191.356 112.85 191.229 112.937C191.102 113.025 190.953 113.076 190.799 113.086C190.63 112.99 190.435 112.943 190.407 112.725Z" fill="#96ADAD"/>
<path d="M379.141 172.953C379.229 173.258 379.53 173.209 379.732 173.317C379.564 173.406 379.387 173.474 379.204 173.521C378.998 173.544 378.641 173.661 378.631 173.351C378.622 173.041 378.895 172.995 379.141 172.953Z" fill="#949393"/>
<path d="M190.407 112.726L190.777 113.09L190.15 113.358L189.796 113C189.869 112.91 189.962 112.838 190.069 112.79C190.175 112.742 190.291 112.72 190.407 112.726Z" fill="#C2CFCF"/>
<path d="M148.304 133.707L148.6 134.032C148.536 134.126 148.451 134.203 148.351 134.257C148.25 134.31 148.139 134.337 148.025 134.337L147.699 133.976C147.89 133.858 148.052 133.682 148.304 133.707Z" fill="#B7BDBD"/>
<path d="M318.436 164.732C318.537 164.798 318.616 164.893 318.664 165.005C318.711 165.117 318.725 165.24 318.703 165.359C318.375 165.251 318.342 165.017 318.436 164.732Z" fill="#181919"/>
<path d="M151.14 132.743L150.826 132.443C150.852 132.408 150.887 132.38 150.927 132.361C150.967 132.343 151.011 132.335 151.054 132.339L151.366 132.677C151.339 132.708 151.303 132.732 151.263 132.743C151.223 132.755 151.18 132.755 151.14 132.743Z" fill="#DBE8E8"/>
<path d="M152.715 131.979L152.393 131.64C152.422 131.61 152.458 131.588 152.497 131.574C152.536 131.559 152.578 131.554 152.619 131.558L152.931 131.895C152.903 131.925 152.87 131.947 152.832 131.962C152.795 131.976 152.755 131.982 152.715 131.979Z" fill="#DDEAEA"/>
<path d="M154.279 131.197L153.957 130.858C153.986 130.828 154.022 130.805 154.061 130.791C154.1 130.776 154.142 130.771 154.184 130.776L154.495 131.113C154.468 131.143 154.434 131.165 154.397 131.18C154.36 131.194 154.319 131.2 154.279 131.197Z" fill="#DDEAEA"/>
<path d="M155.85 130.415L155.522 130.076C155.55 130.045 155.584 130.021 155.623 130.006C155.661 129.991 155.703 129.985 155.744 129.988L156.06 130.332C156.034 130.361 156.002 130.384 155.965 130.399C155.928 130.413 155.889 130.419 155.85 130.415Z" fill="#DEECEC"/>
<path d="M157.415 129.633L157.082 129.294C157.111 129.263 157.147 129.24 157.188 129.227C157.228 129.213 157.272 129.21 157.313 129.217L157.626 129.544C157.601 129.576 157.569 129.601 157.532 129.617C157.495 129.632 157.455 129.638 157.415 129.633Z" fill="#DEEEEE"/>
<path d="M314.869 98.6798C314.837 98.7566 314.783 98.8221 314.713 98.868C314.644 98.9139 314.563 98.9382 314.48 98.9376L314.351 98.9611L314.253 98.871C314.327 98.7843 314.424 98.7204 314.533 98.6866C314.642 98.6528 314.758 98.6504 314.869 98.6798Z" fill="#548585"/>
<path d="M171.972 121.872L172.321 122.224C172.297 122.258 172.264 122.284 172.226 122.299C172.187 122.314 172.145 122.317 172.105 122.307L171.767 121.95C171.788 121.917 171.82 121.891 171.856 121.877C171.893 121.863 171.934 121.861 171.972 121.872Z" fill="#EAF3F3"/>
<path d="M176.084 120.37L176.419 120.179C176.392 120.244 176.345 120.297 176.284 120.332C176.223 120.366 176.153 120.38 176.084 120.37Z" fill="#C9CFCF"/>
<path d="M175.793 119.907L175.494 120.072L175.793 119.907Z" fill="#C9CFCF"/>
<path d="M177.652 119.622L178.003 119.428C177.97 119.491 177.919 119.543 177.857 119.578C177.794 119.612 177.723 119.628 177.652 119.622Z" fill="#C7CCCC"/>
<path d="M175.449 120.676C175.494 120.607 175.557 120.551 175.63 120.513C175.704 120.475 175.786 120.456 175.868 120.459C175.826 120.532 175.765 120.59 175.69 120.629C175.616 120.667 175.533 120.684 175.449 120.676Z" fill="#C9CFCF"/>
<path d="M173.889 121.46C173.933 121.391 173.993 121.335 174.065 121.297C174.136 121.259 174.216 121.24 174.298 121.242C174.256 121.312 174.196 121.37 174.124 121.409C174.052 121.447 173.971 121.465 173.889 121.46Z" fill="#C5CDCD"/>
<path d="M178.286 119.27C178.371 119.222 178.456 119.174 178.547 119.132L178.286 119.27Z" fill="#C7CCCC"/>
<path d="M177.365 119.115L177.054 119.29L177.365 119.115Z" fill="#C7CCCC"/>
<path d="M489.66 90.9968C489.584 90.9828 489.517 90.9395 489.473 90.8763C489.429 90.813 489.412 90.735 489.426 90.6593C489.5 90.6758 489.565 90.7197 489.609 90.7823C489.652 90.8448 489.67 90.9214 489.66 90.9968Z" fill="#1E1B1B"/>
<path d="M490.388 89.8154C490.427 89.8197 490.464 89.8316 490.497 89.8506C490.531 89.8695 490.56 89.8951 490.584 89.9257C490.607 89.9563 490.624 89.9914 490.634 90.0288C490.643 90.0662 490.645 90.1051 490.64 90.1432C490.566 90.1273 490.5 90.0855 490.454 90.0255C490.408 89.9654 490.384 89.891 490.388 89.8154Z" fill="#1E1B1B"/>
<path d="M159.254 128.204C159.217 128.272 159.162 128.328 159.095 128.367C159.028 128.406 158.951 128.425 158.874 128.423C158.906 128.352 158.961 128.292 159.029 128.253C159.097 128.214 159.176 128.196 159.254 128.204Z" fill="#BDC8C8"/>
<path d="M178.001 118.804L177.621 119.013L178.001 118.804Z" fill="#C7CCCC"/>
<path d="M180.778 118.041L181.14 117.842C181.107 117.907 181.054 117.961 180.99 117.997C180.925 118.032 180.851 118.048 180.778 118.041Z" fill="#C9CFCF"/>
<path d="M181.414 117.729L181.707 117.569L181.414 117.729Z" fill="#C9CFCF"/>
<path d="M180.483 117.555L180.189 117.721L180.483 117.555Z" fill="#C9CFCF"/>
<path d="M181.125 117.239L180.746 117.442L181.125 117.239Z" fill="#C9CFCF"/>
<path d="M183.896 116.475C183.934 116.41 183.989 116.356 184.055 116.32C184.12 116.284 184.195 116.267 184.27 116.271C184.237 116.34 184.183 116.397 184.116 116.434C184.049 116.47 183.972 116.485 183.896 116.475Z" fill="#CBD2D2"/>
<path d="M184.247 115.702C184.214 115.768 184.163 115.823 184.099 115.86C184.036 115.896 183.963 115.913 183.889 115.907C183.919 115.839 183.969 115.782 184.034 115.745C184.098 115.708 184.173 115.693 184.247 115.702Z" fill="#CBD2D2"/>
<path d="M184.532 116.165L184.837 115.994C184.814 116.054 184.771 116.103 184.715 116.134C184.659 116.165 184.594 116.176 184.532 116.165Z" fill="#CBD2D2"/>
<path d="M183.612 115.985L183.325 116.15C183.346 116.093 183.386 116.045 183.439 116.015C183.491 115.985 183.552 115.974 183.612 115.985Z" fill="#CBD2D2"/>
<path d="M478.617 77.8331C478.118 77.7957 477.866 77.3962 477.571 77.0705C476.8 76.2404 476.158 75.3095 475.216 74.6155C474.833 74.2879 474.583 73.8316 474.512 73.3324C474.456 73.1929 474.45 73.0382 474.495 72.8947C474.54 72.7511 474.633 72.6276 474.759 72.5453C474.833 72.4985 474.916 72.4674 475.003 72.4541C475.089 72.4408 475.178 72.4455 475.263 72.4679C475.348 72.4903 475.427 72.5299 475.496 72.5843C475.564 72.6387 475.621 72.7067 475.663 72.784C476.425 74.0936 477.799 74.8365 478.668 76.0492C478.949 76.3888 479.255 76.7068 479.584 77.0006C479.293 77.3129 478.969 77.5921 478.617 77.8331Z" fill="#E9E9E9"/>
<path d="M478.617 77.8319C478.621 77.1866 478.905 76.8603 479.579 76.999C480.047 77.5251 480.709 77.8948 480.976 78.5989C480.686 78.9079 480.364 79.1852 480.015 79.4263C479.439 79.002 478.962 78.4581 478.617 77.8319Z" fill="#DCDCDC"/>
<path d="M480.015 79.4274C479.999 78.7586 480.323 78.4849 480.976 78.6001C481.061 78.7136 481.157 78.8187 481.262 78.9139C481.343 79.0326 481.441 79.1385 481.553 79.2281C481.919 79.4624 482.214 79.7939 482.403 80.1855C482.115 80.5053 481.782 80.7815 481.414 81.0054C481.03 80.8048 480.729 80.4756 480.563 80.0753C480.471 79.9692 480.386 79.8524 480.289 79.7514C480.197 79.6452 480.118 79.5289 480.015 79.4274Z" fill="#CECECE"/>
<path d="M484.399 84.3186C484.169 84.1835 483.991 83.9761 483.892 83.7288C483.881 83.6486 483.85 83.5722 483.804 83.5062C483.757 83.4402 483.694 83.3866 483.622 83.35C483.602 83.2786 483.567 83.2122 483.52 83.1546C483.473 83.097 483.415 83.0496 483.349 83.015C483.337 81.8499 483.966 82.1508 484.574 82.5053L484.61 82.5356C484.719 82.5993 484.806 82.6943 484.86 82.8082C485.228 83.0321 485.51 83.3741 485.659 83.7784C485.235 83.9894 484.787 84.0827 484.399 84.3186Z" fill="#A3A1A1"/>
<path d="M484.547 82.5036C484.042 82.4658 483.461 82.2623 483.322 83.0133C482.959 82.7893 482.669 82.4647 482.487 82.079C482.321 81.421 482.222 80.8287 483.247 81.1373C483.688 81.5896 484.308 81.8622 484.547 82.5036Z" fill="#B3B2B2"/>
<path d="M483.247 81.1363C482.612 81.1384 482.547 81.6357 482.487 82.0725L481.677 81.3277C481.578 81.2406 481.492 81.1394 481.423 81.0273C481.378 80.3066 481.799 80.1395 482.412 80.2075C482.764 80.4421 483.051 80.7615 483.247 81.1363Z" fill="#C1C0C0"/>
<path d="M486.39 86.7684C486.319 86.7494 486.254 86.7102 486.205 86.6556C486.155 86.6011 486.122 86.5333 486.11 86.4605C486.005 86.3892 485.926 86.2867 485.883 86.1677L485.848 86.1209C485.647 86.0066 485.748 85.6831 485.495 85.5979C485.372 84.59 485.931 84.7202 486.558 84.9658C486.575 85.0473 486.615 85.1222 486.673 85.1822C486.731 85.2421 486.805 85.2846 486.886 85.3048C486.953 85.3246 487.012 85.3664 487.052 85.4234C487.093 85.4805 487.114 85.5495 487.11 85.6196C486.956 86.0502 486.71 86.4422 486.39 86.7684Z" fill="#717070"/>
<path d="M487.487 88.1033C487.414 88.0847 487.348 88.0443 487.298 87.9873C487.248 87.9304 487.217 87.8596 487.208 87.7844C487.116 87.6844 487.034 87.5767 486.961 87.4625C486.711 86.9748 486.613 86.515 487.201 86.1838C487.367 86.1675 487.533 86.2092 487.672 86.3019C487.695 86.374 487.732 86.4405 487.782 86.4974C487.832 86.5543 487.893 86.6003 487.962 86.6326C488.014 86.778 488.119 86.8983 488.256 86.9691C488.329 86.9863 488.393 87.0286 488.437 87.0885C488.481 87.1484 488.502 87.222 488.497 87.2961C488.191 87.6013 487.852 87.872 487.487 88.1033Z" fill="#555353"/>
<path d="M484.399 84.3175C484.648 83.4203 484.648 83.4203 485.632 83.7753C485.778 83.9628 485.918 84.1554 486.062 84.3593C485.786 84.7359 485.334 84.7959 484.952 84.9714L484.685 84.6976C484.683 84.6143 484.656 84.5336 484.608 84.4654C484.56 84.3972 484.493 84.3443 484.416 84.3133L484.399 84.3175Z" fill="#8F8D8D"/>
<path d="M299.98 104.092L302.212 103.757C302.341 103.821 302.439 103.934 302.486 104.07C301.909 104.37 301.258 104.497 300.61 104.437C300.436 104.264 300.089 104.398 299.98 104.092Z" fill="#4E3B3B"/>
<path d="M487.487 88.1027C487.472 87.4229 487.817 87.1674 488.46 87.2652C488.532 87.387 488.625 87.4949 488.735 87.5837C488.806 87.6093 488.869 87.6549 488.915 87.7151C488.961 87.7753 488.99 87.8476 488.996 87.9233C488.953 87.9693 488.912 88.0178 488.875 88.0687C488.599 88.2188 488.361 88.4291 488.178 88.6841L488.006 88.7706C487.933 88.7505 487.868 88.7079 487.821 88.6489C487.774 88.5898 487.747 88.5174 487.743 88.4419C487.674 88.3207 487.59 88.2087 487.492 88.1086L487.487 88.1027Z" fill="#434040"/>
<path d="M484.952 84.9603C485.093 84.3363 485.578 84.345 486.063 84.3482C486.186 84.4142 486.294 84.5044 486.38 84.6134C486.467 84.7223 486.531 84.8477 486.567 84.9819C486.087 84.9846 485.627 85.0163 485.505 85.6141C485.438 85.6043 485.376 85.5728 485.329 85.5244C485.282 85.4759 485.252 85.4134 485.243 85.3462C485.242 85.2587 485.214 85.1735 485.165 85.1013C485.115 85.029 485.046 84.9726 484.965 84.9391L484.952 84.9603Z" fill="#828282"/>
<path d="M487.319 86.2916C486.857 86.566 487.009 87.0408 486.947 87.4389C486.874 87.4163 486.809 87.374 486.758 87.3167C486.708 87.2594 486.675 87.1893 486.662 87.1141C486.563 87.0336 486.484 86.9314 486.431 86.8154L486.395 86.7686C486.433 86.2638 486.351 85.6618 487.104 85.6299C487.123 85.705 487.159 85.7745 487.211 85.8322C487.262 85.8899 487.327 85.9341 487.399 85.961C487.422 86.0175 487.427 86.0798 487.413 86.1392C487.398 86.1985 487.366 86.2518 487.319 86.2916Z" fill="#626262"/>
<path d="M310.447 101.284C310.933 100.937 311.485 100.693 312.068 100.567C312.142 100.633 312.225 100.69 312.315 100.734C312.311 100.783 312.335 100.835 312.342 100.885C311.866 101.225 311.324 101.463 310.75 101.583C310.636 101.497 310.455 101.472 310.447 101.284Z" fill="#574646"/>
<path d="M302.464 104.067L302.19 103.754L304.009 103.339C304.152 103.41 304.32 103.456 304.361 103.647C304.349 103.699 304.32 103.745 304.279 103.778C304.237 103.811 304.185 103.829 304.132 103.828L304.028 103.82L303.956 103.898C303.74 104.047 303.478 104.011 303.246 104.087L302.464 104.067Z" fill="#1F1414"/>
<path d="M308.944 101.828L310.215 101.371C310.274 101.396 310.326 101.434 310.368 101.482C310.411 101.53 310.442 101.587 310.459 101.649C310.114 101.93 309.697 102.109 309.256 102.165C308.922 102.267 308.886 102.094 308.944 101.828Z" fill="#3D2323"/>
<path d="M304.309 103.241C304.666 102.887 305.153 102.945 305.592 102.835C305.724 102.916 305.909 102.947 305.916 103.151C305.669 103.502 305.158 103.321 304.892 103.626C304.849 103.662 304.796 103.683 304.741 103.688C304.685 103.693 304.63 103.68 304.581 103.653C304.451 103.546 304.356 103.402 304.309 103.241Z" fill="#565151"/>
<path d="M306.116 102.758C306.504 102.503 306.956 102.365 307.42 102.359C307.554 102.413 307.661 102.519 307.718 102.652C307.338 102.932 306.882 103.09 306.41 103.105C306.304 102.97 306.119 102.94 306.116 102.758Z" fill="#4E4545"/>
<path d="M308.944 101.828L309.257 102.155C308.88 102.434 308.428 102.593 307.959 102.609C307.837 102.541 307.742 102.432 307.69 102.302C308.057 102.033 308.491 101.87 308.944 101.828Z" fill="#514747"/>
<path d="M297.108 103.099C297.546 103.217 297.957 103.42 298.316 103.697C298.17 103.951 297.89 103.781 297.695 103.883C297.37 103.726 296.975 103.696 296.77 103.339C296.774 103.289 296.805 103.242 296.819 103.199L297.108 103.099Z" fill="#453E3E"/>
<path d="M297.694 103.881C297.78 103.809 297.879 103.756 297.986 103.724C298.092 103.692 298.205 103.683 298.315 103.696C298.645 103.696 298.963 103.816 299.211 104.033C299.197 104.231 298.987 104.232 298.854 104.305C298.439 104.26 298.041 104.114 297.694 103.881Z" fill="#3D3939"/>
<path d="M312.995 100.05C313.274 99.81 313.602 99.6315 313.955 99.5264C314.023 99.57 314.082 99.6248 314.131 99.6885L314.215 99.8162C313.972 100.077 313.662 100.265 313.319 100.362C312.977 100.512 312.953 100.307 312.995 100.05Z" fill="#443838"/>
<path d="M298.855 104.306L299.212 104.035L299.98 104.092L300.611 104.437C300.023 104.509 299.426 104.464 298.855 104.306Z" fill="#090707"/>
<path d="M295.647 102.869L295.98 102.618C296.301 102.647 296.6 102.793 296.821 103.028L296.809 103.193C296.796 103.2 296.785 103.209 296.777 103.22C296.768 103.231 296.762 103.244 296.758 103.258C296.755 103.271 296.754 103.286 296.756 103.3C296.758 103.314 296.763 103.327 296.77 103.339L296.181 103.245C296.071 103.027 295.708 103.16 295.647 102.869Z" fill="#1A0707"/>
<path d="M312.995 100.052L313.319 100.363C313.046 100.621 312.709 100.802 312.342 100.886L312.258 100.763C312.244 100.652 312.274 100.539 312.342 100.45C312.483 100.19 312.746 100.132 312.995 100.052Z" fill="#4A4646"/>
<path d="M489.919 89.1462C489.765 89.1214 489.621 89.0561 489.5 88.9569C489.379 88.8577 489.287 88.7282 489.233 88.5817C489.326 88.4452 489.415 88.4353 489.515 88.5752C489.622 88.6328 489.714 88.7143 489.784 88.8133C489.854 88.9124 489.901 89.0263 489.919 89.1462Z" fill="#313030"/>
<path d="M295.647 102.868L296.171 103.244C295.858 103.22 295.512 103.272 295.341 102.9C295.444 102.905 295.547 102.894 295.647 102.868Z" fill="#FDFEFE"/>
<path d="M306.116 102.758L306.412 103.084L305.915 103.163L305.591 102.846L306.116 102.758Z" fill="#270F0F"/>
<path d="M485.5 85.5985C485.783 85.6638 485.85 85.873 485.853 86.1215C485.748 86.081 485.657 86.0091 485.594 85.9156C485.531 85.822 485.499 85.7113 485.5 85.5985Z" fill="#828282"/>
<path d="M303.272 104.046C303.362 103.952 303.475 103.884 303.6 103.851C303.725 103.817 303.857 103.819 303.982 103.856C303.899 103.959 303.785 104.033 303.658 104.067C303.53 104.101 303.395 104.093 303.272 104.046Z" fill="#FDFEFE"/>
<path d="M304.577 103.559L304.892 103.637C304.801 103.738 304.682 103.808 304.551 103.838C304.419 103.869 304.281 103.859 304.156 103.808C304.189 103.72 304.24 103.639 304.306 103.571C304.392 103.456 304.486 103.452 304.577 103.559Z" fill="#FDFEFE"/>
<path d="M310.459 101.639L310.215 101.362C310.244 101.33 310.281 101.306 310.321 101.293C310.362 101.279 310.405 101.277 310.447 101.285L310.75 101.584L310.459 101.639Z" fill="#1B0E0E"/>
<path d="M307.688 102.323C307.779 102.424 307.871 102.525 307.957 102.631C307.885 102.674 307.799 102.687 307.717 102.668L307.419 102.375C307.5 102.328 307.595 102.31 307.688 102.323Z" fill="#1E0707"/>
<path d="M488.943 90.0261C489.001 90.0398 489.052 90.0742 489.086 90.1229C489.121 90.1716 489.136 90.2312 489.13 90.2905C489.099 90.2879 489.069 90.2786 489.043 90.2633C489.016 90.248 488.993 90.227 488.975 90.2018C488.957 90.1766 488.945 90.1479 488.939 90.1175C488.934 90.0872 488.935 90.056 488.943 90.0261Z" fill="#313030"/>
<path d="M488.541 89.429C488.626 89.451 488.7 89.5023 488.75 89.5737C488.8 89.6452 488.823 89.7322 488.815 89.8192C488.732 89.7944 488.66 89.7424 488.61 89.6716C488.561 89.6008 488.536 89.5153 488.541 89.429Z" fill="#313030"/>
<path d="M488.616 89.0985C488.607 89.2137 488.56 89.3261 488.535 89.4401C488.46 89.4257 488.392 89.3855 488.343 89.3265C488.294 89.2675 488.267 89.1932 488.267 89.1165C488.324 89.0759 488.379 89.0321 488.431 88.9854L488.616 89.0985Z" fill="#434040"/>
<path d="M488.266 89.1161C488.193 89.0936 488.129 89.0487 488.084 88.9878C488.038 88.927 488.012 88.8532 488.01 88.7769L488.109 88.7071C488.318 88.7227 488.422 88.8077 488.361 89.0294L488.266 89.1161Z" fill="#434040"/>
<path d="M489.516 88.5749L489.234 88.5814L489.158 88.4102L489.284 88.2762C489.349 88.2956 489.406 88.3348 489.448 88.3884C489.489 88.442 489.513 88.5072 489.516 88.5749Z" fill="#434040"/>
<path d="M487.498 88.1147C487.568 88.1397 487.629 88.1846 487.673 88.2438C487.718 88.3031 487.744 88.3741 487.749 88.448C487.674 88.4308 487.609 88.388 487.563 88.327C487.517 88.2661 487.494 88.1909 487.498 88.1147Z" fill="#555353"/>
<path d="M489.001 87.9299C489.074 87.9486 489.139 87.99 489.188 88.0481C489.236 88.1062 489.264 88.1781 489.269 88.2534L489.2 88.2979C489.129 88.2843 489.065 88.2473 489.018 88.1926C488.971 88.138 488.944 88.0691 488.941 87.9971L489.001 87.9299Z" fill="#434040"/>
<path d="M486.962 87.462L487.208 87.7839C487.136 87.7671 487.072 87.7258 487.027 87.6671C486.982 87.6084 486.959 87.5359 486.962 87.462Z" fill="#626262"/>
<path d="M488.74 87.5897C488.667 87.5716 488.601 87.5312 488.552 87.4742C488.503 87.4171 488.473 87.3462 488.466 87.2712C488.541 87.2842 488.61 87.3231 488.66 87.3812C488.71 87.4394 488.738 87.5131 488.74 87.5897Z" fill="#555353"/>
<path d="M486.43 86.8153L486.662 87.114C486.594 87.0998 486.534 87.062 486.491 87.0072C486.449 86.9525 486.427 86.8845 486.43 86.8153Z" fill="#717070"/>
<path d="M488.22 86.9384C488.142 86.9192 488.072 86.8767 488.019 86.8165C487.967 86.7563 487.934 86.6813 487.925 86.6018C488.004 86.6195 488.074 86.6616 488.127 86.722C488.18 86.7825 488.213 86.8583 488.22 86.9384Z" fill="#626262"/>
<path d="M487.935 86.6131C487.858 86.5957 487.789 86.5543 487.737 86.4949C487.685 86.4355 487.653 86.3611 487.646 86.2825C487.724 86.2965 487.796 86.3369 487.848 86.397C487.901 86.4571 487.932 86.5333 487.935 86.6131Z" fill="#626262"/>
<path d="M485.883 86.1685L486.108 86.4594C486.042 86.4454 485.984 86.4085 485.942 86.3552C485.901 86.3019 485.88 86.2357 485.883 86.1685Z" fill="#828282"/>
<path d="M487.319 86.2924C487.328 86.1772 487.336 86.0675 487.389 85.9556C487.464 85.9712 487.532 86.0125 487.581 86.0724C487.63 86.1323 487.656 86.2073 487.656 86.2846L487.319 86.2924Z" fill="#717070"/>
<path d="M487.392 85.9881C487.313 85.9742 487.24 85.9339 487.187 85.8738C487.133 85.8138 487.101 85.7373 487.097 85.657C487.176 85.6718 487.247 85.7123 487.301 85.7722C487.354 85.8321 487.386 85.908 487.392 85.9881Z" fill="#717070"/>
<path d="M486.88 85.315C486.794 85.3067 486.713 85.2681 486.653 85.2059C486.593 85.1438 486.557 85.0622 486.552 84.976C486.633 84.9962 486.706 85.0386 486.764 85.0986C486.822 85.1585 486.862 85.2335 486.88 85.315Z" fill="#828282"/>
<path d="M484.965 84.941C485.05 84.9683 485.124 85.0231 485.174 85.0968C485.225 85.1705 485.249 85.259 485.244 85.3481C485.167 85.3097 485.1 85.252 485.052 85.1808C485.003 85.1095 484.973 85.027 484.965 84.941Z" fill="#8F8D8D"/>
<path d="M484.417 84.303C484.5 84.3258 484.571 84.3767 484.621 84.4468C484.67 84.5169 484.693 84.6019 484.686 84.6873L484.417 84.303Z" fill="#A3A1A1"/>
<path d="M483.596 83.3328C483.676 83.3579 483.746 83.4085 483.794 83.4769C483.843 83.5453 483.868 83.6277 483.866 83.7116L483.596 83.3328Z" fill="#B3B2B2"/>
<path d="M483.327 83.0074C483.402 83.0275 483.469 83.0706 483.518 83.1307C483.567 83.1909 483.596 83.2649 483.6 83.3424C483.528 83.3184 483.463 83.2741 483.415 83.2147C483.367 83.1554 483.336 83.0835 483.327 83.0074Z" fill="#B3B2B2"/>
<path d="M484.829 82.8019L484.583 82.5331C484.649 82.5415 484.71 82.5731 484.755 82.6223C484.8 82.6715 484.827 82.7351 484.829 82.8019Z" fill="#B3B2B2"/>
<path d="M481.424 81.028L481.677 81.3283L481.424 81.028Z" fill="#CECECE"/>
<path d="M480.294 79.752L480.568 80.0759L480.294 79.752Z" fill="#DCDCDC"/>
<path d="M480.015 79.4275L480.289 79.7515L480.015 79.4275Z" fill="#DCDCDC"/>
<path d="M481.553 79.2283L481.262 78.9141L481.553 79.2283Z" fill="#DCDCDC"/>
<path d="M481.262 78.9085L480.976 78.5947L481.262 78.9085Z" fill="#DCDCDC"/>
<path d="M178.029 126.823C177.862 126.843 177.693 126.814 177.542 126.74C177.391 126.666 177.264 126.55 177.177 126.406C177.075 126.261 177.026 126.085 177.039 125.908C177.052 125.731 177.127 125.564 177.25 125.435C177.499 125.195 177.784 124.994 178.094 124.842L186.285 120.534L186.818 120.27C186.914 120.21 187.022 120.171 187.135 120.154C187.247 120.137 187.361 120.143 187.471 120.172C187.581 120.201 187.684 120.252 187.774 120.322C187.863 120.392 187.937 120.479 187.992 120.579C188.062 120.685 188.107 120.804 188.126 120.929C188.144 121.054 188.135 121.182 188.1 121.303C188.064 121.425 188.002 121.537 187.918 121.632C187.834 121.726 187.731 121.802 187.615 121.853C187.407 121.986 187.178 122.09 186.96 122.206L179.033 126.38C178.728 126.588 178.388 126.738 178.029 126.823Z" fill="#040404"/>
<path d="M199.986 154.189C198.989 154.385 197.804 153.86 196.679 153.191C194.391 151.834 194.352 148.967 196.604 147.552C197.314 147.077 198.146 146.816 199 146.799C204.743 146.805 210.489 146.782 216.236 146.805C217.499 146.781 218.725 147.236 219.667 148.077C220.097 148.422 220.432 148.871 220.64 149.382C220.849 149.892 220.923 150.448 220.857 150.995C220.79 151.543 220.585 152.064 220.261 152.51C219.937 152.956 219.504 153.312 219.004 153.545C218.293 153.916 217.502 154.105 216.7 154.095L204.861 154.146L199.986 154.189Z" fill="#050303"/>
<path d="M230.017 154.943C229.017 155.177 227.905 154.553 226.826 153.926C226.337 153.667 225.924 153.285 225.628 152.817C225.332 152.349 225.163 151.812 225.138 151.259C225.113 150.706 225.233 150.156 225.486 149.664C225.739 149.171 226.116 148.753 226.58 148.451C227.341 147.869 228.272 147.551 229.23 147.546C234.923 147.553 240.619 147.538 246.334 147.547C247.596 147.519 248.826 147.948 249.797 148.755C251.773 150.432 251.467 153.129 249.175 154.331C248.458 154.692 247.665 154.875 246.862 154.864L230.017 154.943Z" fill="#040303"/>
<path d="M460.824 142.942L461.136 142.689C461.129 142.783 461.122 142.87 461.115 142.964L460.824 142.942Z" fill="#251E1E"/>
<path d="M304.577 103.559L304.442 103.599L304.305 103.589L304.031 103.336C304.068 103.303 304.113 103.279 304.16 103.266C304.208 103.252 304.259 103.249 304.308 103.258L304.577 103.559Z" fill="#1B0505"/>
<path d="M312.341 100.466C312.333 100.57 312.286 100.677 312.256 100.779C312.208 100.772 312.163 100.749 312.129 100.713C312.094 100.678 312.073 100.632 312.067 100.583L312.341 100.466Z" fill="#170000"/>
<path d="M314.131 99.6885C314.09 99.68 314.052 99.6605 314.021 99.6319C313.99 99.6033 313.967 99.5668 313.955 99.5264L314.232 99.3651L314.131 99.6885Z" fill="#160000"/>
<path d="M296.808 103.192L296.821 103.028L297.108 103.099L296.808 103.192Z" fill="#230404"/>
<path d="M461.136 142.69C461.209 142.282 461.128 141.862 460.91 141.509C461.156 141.511 461.402 141.529 461.645 141.564C462.08 141.646 462.393 141.896 462.291 142.374C462.189 142.852 461.764 142.71 461.432 142.718C461.333 142.711 461.235 142.692 461.136 142.69Z" fill="#251E1E"/>
<path d="M488.94 87.9965L489.199 88.2973C489.225 88.3817 489.231 88.4708 489.218 88.5581C488.829 88.5289 488.653 88.7365 488.626 89.0986C488.539 89.0867 488.453 89.0636 488.372 89.0299L488.12 88.7076C488.026 88.0494 488.277 87.7869 488.94 87.9965Z" fill="#313030"/>
<path d="M215.405 147.67C215.674 147.691 216.167 147.728 216.667 147.765C217.015 147.791 217.36 147.85 217.696 147.941C219.05 148.352 220.067 149.581 220.036 150.737C220.005 151.894 218.908 152.904 217.382 153.165C216.988 153.215 216.59 153.231 216.192 153.214C211.699 153.245 207.209 153.277 202.723 153.309C201.132 153.383 199.539 153.213 197.999 152.806C197.52 152.673 197.075 152.441 196.692 152.123C196.434 151.925 196.222 151.673 196.073 151.383C195.924 151.094 195.841 150.775 195.83 150.449C195.819 150.124 195.88 149.8 196.01 149.501C196.139 149.203 196.333 148.936 196.578 148.721C196.898 148.405 197.279 148.155 197.697 147.986C198.115 147.818 198.562 147.734 199.013 147.739L210.085 147.686C211.78 147.664 213.478 147.686 215.405 147.67Z" fill="white"/>
<path d="M245.622 148.438L247.081 148.547C247.632 148.586 248.164 148.759 248.633 149.049C249.623 149.675 250.358 150.47 250.165 151.724C249.972 152.979 249.088 153.586 247.932 153.841C246.456 154.172 244.953 153.977 243.462 154.003C239.875 154.076 236.284 154.067 232.693 154.052C231.153 154.126 229.61 153.951 228.125 153.533C226.822 153.099 226.016 152.227 226.038 151.12C226.06 150.013 226.835 149.094 228.109 148.671C229.178 148.315 230.292 148.465 231.375 148.452C236.003 148.396 240.657 148.43 245.622 148.438Z" fill="white"/>
<line x1="203.5" y1="175" x2="203.5" y2="265.279" stroke="black" stroke-dasharray="2 2"/>
<line x1="294.569" y1="264.489" x2="204.29" y2="264.489" stroke="black" stroke-dasharray="2 2"/>
<line x1="234.743" y1="265.279" x2="234.743" y2="233.036" stroke="black" stroke-dasharray="2 2"/>
<line x1="203" y1="233.826" x2="235.242" y2="233.826" stroke="black" stroke-dasharray="2 2"/>
<g clip-path="url(#clip0)">
<path d="M124.065 280.475C144.544 280.475 165.022 280.475 185.5 280.475C210.777 280.475 236.034 280.475 261.29 280.726C282.347 280.995 303.384 280.726 324.421 280.899C327.089 280.899 327.668 281.669 327.73 284.038C328.186 299.924 328.496 315.83 328.93 331.716C329.192 334.205 328.785 336.715 327.745 339.021C326.705 341.327 325.065 343.356 322.973 344.925C322.055 345.673 320.883 346.096 319.663 346.119C285.388 345.965 251.113 345.753 216.838 345.676C173.399 345.676 129.837 345.676 86.3359 345.484C84.7163 345.572 83.0947 345.347 81.5735 344.822C80.0523 344.297 78.6646 343.484 77.4982 342.434C76.3318 341.385 75.4119 340.121 74.7969 338.724C74.1818 337.326 73.8849 335.825 73.9249 334.315C73.9249 326.459 73.9249 318.583 74.111 310.727C74.1858 310.086 74.0735 309.438 73.7859 308.852C73.4983 308.266 73.0461 307.762 72.4769 307.395C69.1259 305.085 65.9818 302.697 62.6308 300.367C61.6174 299.808 60.8135 298.972 60.3286 297.973C59.8437 296.974 59.7014 295.86 59.9211 294.783C60.0927 293.489 60.6452 292.265 61.5177 291.245C62.3902 290.226 63.5486 289.451 64.8648 289.006C68.3606 287.985 70.9876 285.521 74.2558 283.961C74.9106 283.581 75.6507 283.348 76.4184 283.279C77.1861 283.209 77.9606 283.306 78.6815 283.562C79.4023 283.817 80.0501 284.224 80.5741 284.751C81.0981 285.278 81.4843 285.91 81.7024 286.599C82.1161 288.351 82.5091 289.68 84.7845 289.93C85.5085 289.93 86.1704 290.739 86.853 291.24C91.6519 294.84 92.7483 294.898 97.8575 291.702L94.1755 287.851C93.948 287.157 92.6655 286.272 94.5685 285.925C95.2215 286.116 95.784 286.51 96.1613 287.042C96.8756 288.281 97.9998 289.274 99.3675 289.872C100.919 290.142 101.85 288.929 103.091 288.467C103.67 288.159 104.394 288.043 104.849 287.523C104.704 286.811 103.877 286.714 103.484 286.252C102.714 285.412 102.105 284.454 101.684 283.422C101.58 283.123 101.591 282.8 101.716 282.508C101.841 282.216 102.071 281.974 102.367 281.823C104.435 282.054 104.808 284.288 106.628 284.731L107.062 284.981C107.204 285.065 107.357 285.13 107.517 285.174C107.517 285.039 107.331 285.174 107.248 285.02C106.028 284.134 104.415 283.749 104.042 282.093C104.039 281.909 104.094 281.729 104.2 281.575C104.307 281.42 104.461 281.299 104.642 281.226C105.405 281.112 106.188 281.227 106.876 281.554C107.093 281.658 107.295 281.787 107.476 281.939C107.71 282.256 108.018 282.521 108.375 282.714C108.733 282.907 109.132 283.024 109.545 283.056C109.778 283.109 110.006 283.18 110.227 283.268C110.623 283.526 111.083 283.687 111.563 283.738C112.044 283.788 112.53 283.726 112.978 283.556C113.706 283.16 114.398 282.71 115.047 282.209C115.748 281.854 116.553 281.719 117.343 281.823L119.908 280.784C120.797 280.533 120.921 281.072 121.004 281.669C120.632 283.037 119.37 283.595 118.212 284.076C105.801 290.431 93.3895 296.631 80.9785 303.024C80.7923 303.121 80.6475 303.178 80.6268 303.332C84.0605 303.332 87.5149 303.332 90.9693 303.332C91.6692 303.371 92.3679 303.239 92.9958 302.949C93.6236 302.658 94.1588 302.219 94.5479 301.676C95.536 300.359 96.8262 299.263 98.3251 298.467C99.824 297.671 101.494 297.196 103.215 297.074C103.822 297.053 104.417 296.907 104.957 296.647C105.496 296.388 105.968 296.021 106.338 295.572C107.938 293.71 110.183 292.424 112.689 291.933C113.144 291.837 113.785 291.817 113.992 291.49C116.06 288.255 120.197 287.831 123.031 285.578C124.603 284.288 126.879 284.346 128.616 282.844C126.982 282.44 125.534 282.844 124.21 282.343C123.466 281.823 122.804 281.207 124.065 280.475Z" fill="black"/>
<path d="M105.034 281.38L104.31 281.996C103.69 282.227 103.359 281.784 102.966 281.457C101.766 280.263 98.8289 280.61 99.3046 277.991C98.5599 280.706 101.497 280.263 102.697 281.322C102.786 281.411 102.835 281.528 102.835 281.65C102.835 281.771 102.786 281.888 102.697 281.977C102.076 282.285 102.221 282.843 102.159 283.344C101.539 283.96 101.352 283.344 101.042 283.036C100.484 282.15 99.4287 282.67 98.6841 282.304C96.4914 281.553 96.9672 279.724 96.9258 278.665C97.443 279.397 95.5399 280.995 97.3809 282.035C98.2704 282.612 99.4494 282.362 100.318 282.709C101.683 283.96 102.387 285.732 104.062 286.695C104.779 286.962 105.471 287.284 106.131 287.657C105.448 288.524 104.352 288.524 103.38 288.794C102.8 288.794 102.138 288.794 101.828 288.312C100.391 286.163 98.102 284.627 95.4572 284.037C94.2368 283.806 94.2575 282.401 94.1747 281.341C94.092 280.282 94.2988 279.166 92.8302 278.78C92.3337 278.549 91.7339 278.376 92.0235 277.664C94.092 275.045 97.7946 275.237 100.484 273.601C101.725 272.83 103.173 271.54 105.034 272.58C105.147 272.699 105.228 272.842 105.271 272.996C105.314 273.149 105.318 273.31 105.283 273.466C105.157 273.886 104.984 274.293 104.765 274.679C104.549 275.057 104.382 275.458 104.269 275.873C104.21 276.301 104.324 276.734 104.587 277.09C104.85 277.445 105.245 277.697 105.696 277.798C106.131 277.996 106.535 278.249 106.896 278.549C107.475 279.05 107.785 279.801 108.53 280.148C108.718 280.206 108.912 280.245 109.109 280.263C109.406 280.244 109.692 280.151 109.937 279.994C110.208 279.816 110.499 279.667 110.806 279.551C111.039 279.522 111.275 279.522 111.509 279.551C111.729 279.633 111.932 279.751 112.109 279.897C112.977 280.899 115.149 280.668 115.046 282.574C114.877 282.945 114.617 283.275 114.286 283.535C113.956 283.796 113.564 283.981 113.143 284.076C112.071 284.19 110.986 284.038 109.999 283.633H109.337C108.654 283.017 107.703 282.786 107.124 282.054C106.911 281.736 106.587 281.496 106.207 281.373C105.827 281.25 105.413 281.253 105.034 281.38Z" fill="#0C0C0C"/>
<path d="M91.8786 277.664C91.9863 277.87 92.1585 278.041 92.3727 278.155C92.5868 278.268 92.8328 278.319 93.0783 278.299C93.4299 279.435 92.1888 280.225 92.1475 281.169C92.1726 282.133 92.586 283.054 93.3058 283.749C93.9264 284.461 95.1882 284.962 94.5676 286.233C93.2438 286.502 94.5676 287.369 94.1539 287.85C93.1045 287.015 92.1033 286.128 91.1546 285.193C88.8999 282.728 89.1481 280.398 91.8786 277.664Z" fill="#121212"/>
<path d="M106.689 278.858L105.282 278.203C104.475 277.514 103.943 276.591 103.772 275.584C103.754 275.388 103.8 275.192 103.903 275.02C104.006 274.848 104.163 274.709 104.352 274.621C104.91 274.044 105.696 275.854 106.172 274.467C106.285 274.272 106.448 274.107 106.648 273.986C107.475 276.143 109.978 276.913 111.178 278.761C111.178 278.761 111.074 278.916 111.033 279.012C110.879 279.13 110.713 279.233 110.536 279.32L109.999 279.589L109.709 279.705C109.499 279.757 109.285 279.79 109.068 279.801C108.848 279.82 108.626 279.82 108.406 279.801C107.682 279.686 107.351 279.166 106.689 278.858Z" fill="#171717"/>
<path d="M115.046 282.497C114.425 281.053 112.274 281.303 111.654 279.859C111.49 279.734 111.309 279.631 111.116 279.551L110.909 279.339C110.874 279.248 110.874 279.149 110.908 279.058C110.941 278.967 111.008 278.89 111.095 278.839C112.998 280.148 115.625 280.206 117.301 281.919C116.742 282.536 115.811 282.247 115.046 282.497Z" fill="#0D0D0D"/>
<path d="M120.672 281.92C120.683 281.683 120.616 281.449 120.479 281.249C120.342 281.049 120.142 280.893 119.907 280.803C121.223 280.325 122.66 280.212 124.044 280.475C123.85 280.665 123.743 280.917 123.743 281.178C123.743 281.44 123.85 281.691 124.044 281.881C123.834 282.103 123.576 282.281 123.287 282.404C122.998 282.527 122.685 282.592 122.367 282.596C122.05 282.6 121.735 282.541 121.443 282.425C121.151 282.308 120.888 282.136 120.672 281.92Z" fill="#1E1E1E"/>
<path d="M106.627 273.986L106.482 274.795C106.093 274.812 105.711 274.689 105.415 274.453C105.119 274.217 104.931 273.885 104.89 273.524V272.58C105.779 272.715 106.524 273.004 106.627 273.986Z" fill="#1E1E1E"/>
<path d="M201.199 332.794H79.1573C75.5374 332.794 75.5167 332.794 75.5581 329.289C75.5581 322.203 75.8063 315.136 75.7236 308.108C75.7236 305.758 76.5924 305.315 78.9711 305.315C159.105 305.469 239.246 305.585 319.394 305.662C321.71 305.662 324.751 304.718 326.137 306.066C327.523 307.414 326.695 310.014 326.737 312.094C326.882 318.198 326.861 324.321 327.13 330.445C327.13 332.563 326.489 332.967 324.358 332.948C283.291 332.948 242.231 332.948 201.178 332.948L201.199 332.794Z" fill="#F3F4FB"/>
<path d="M201.675 334.431H324.544C327.73 334.431 327.792 334.431 326.778 337.281C326.059 339.446 324.722 341.389 322.91 342.903C321.748 343.902 320.209 344.435 318.628 344.386C241.349 344.194 164.028 344.027 86.666 343.885C84.2315 344.04 81.8166 343.389 79.8483 342.046C77.8799 340.704 76.4849 338.757 75.9098 336.549C75.3513 334.739 75.6616 334.354 77.6887 334.354C96.3052 334.354 115.067 334.354 133.745 334.354H201.675V334.431Z" fill="#C3C4CA"/>
<path d="M120.672 281.92H124.085H129.753C129.319 283.845 127.953 284.153 126.319 284.808C123.024 285.991 119.941 287.634 117.177 289.68C115.239 291.268 113.011 292.521 110.599 293.377C109.699 293.642 108.868 294.076 108.157 294.653C107.445 295.229 106.868 295.935 106.462 296.728C105.965 297.844 105.097 297.633 104.166 297.671C102.195 297.665 100.257 298.145 98.5496 299.061C96.8421 299.978 95.4255 301.299 94.4437 302.889C94.2823 303.234 94.0061 303.521 93.656 303.708C93.3059 303.896 92.9003 303.973 92.4993 303.929C88.0106 303.929 83.522 303.929 78.8472 303.448L120.672 281.92Z" fill="#FDFDFD"/>
<path d="M316.436 298.653L315.753 297.228C317.222 297.036 316.953 295.919 317.118 295.033C317.552 294.209 317.718 293.286 317.594 292.376L317.098 290.45C317.098 288.736 316.105 287.234 316.001 285.54C315.319 284.057 313.933 283.441 312.423 282.516H325.082C326.323 282.516 326.013 283.344 326.034 283.98C326.24 290.084 326.406 296.188 326.654 302.292C326.654 303.621 326.385 304.218 324.855 304.045C321.524 303.756 318.132 304.488 314.822 303.602C315.588 302.023 317.056 300.656 316.436 298.653Z" fill="#FEFEFE"/>
<path d="M232.827 302.889C233.622 301.749 234.724 300.822 236.023 300.201C237.322 299.579 238.773 299.285 240.232 299.346C247.81 298.703 255.442 298.851 262.985 299.789C264.398 299.913 265.758 300.353 266.95 301.07C268.142 301.787 269.131 302.762 269.832 303.91H232.454C231.999 303.39 232.682 303.217 232.827 302.889Z" fill="#FCFCFC"/>
<path d="M140.447 303.852C142.04 300.001 145.536 299.558 148.721 299.423C157.009 298.986 165.322 299.302 173.543 300.367C174.498 300.505 175.384 300.914 176.08 301.537C176.775 302.161 177.248 302.969 177.432 303.852H140.447Z" fill="#FCFCFC"/>
<path d="M205.833 303.968H190.091C189.533 303.968 188.726 304.372 188.395 303.563C188.064 302.755 188.602 302.369 188.933 301.869C189.452 301.261 190.113 300.772 190.866 300.439C191.619 300.105 192.443 299.935 193.277 299.943C201.66 299.109 210.117 299.141 218.492 300.039C220.092 300.135 221.607 300.748 222.774 301.772C223.332 302.254 223.953 302.832 223.746 303.544C223.539 304.257 222.484 304.025 221.843 304.025C216.506 303.987 211.169 303.968 205.833 303.968Z" fill="#FCFCFC"/>
<path d="M134.428 303.891H95.8501C96.4878 302.559 97.5183 301.424 98.8218 300.616C100.125 299.808 101.648 299.361 103.214 299.327C111.488 299.16 119.831 299.16 128.243 299.327C131.056 299.481 133.849 300.386 134.428 303.891Z" fill="#FAFAFA"/>
<path d="M274.631 291.933C274.478 291.346 274.165 290.806 273.723 290.365C273.282 289.923 272.725 289.594 272.108 289.41C271.135 289.025 269.543 289.044 270.391 287.485C271.073 286.291 272.459 286.425 273.494 287.157C273.71 287.32 273.917 287.494 274.114 287.677C275.914 288.447 276.824 290.123 278.251 291.297C278.393 291.505 278.497 291.732 278.561 291.971C278.665 292.822 278.665 293.681 278.561 294.532C278.7 295.114 278.692 295.717 278.537 296.295C278.383 296.873 278.087 297.41 277.672 297.864C277.361 298.239 277.141 298.673 277.027 299.134C276.913 299.596 276.907 300.076 277.01 300.54C277.403 301.927 277.362 303.544 276.058 303.737C274.3 304.006 271.921 304.988 270.701 302.273C269.788 300.842 268.412 299.717 266.771 299.057C266.171 298.73 264.827 299.057 265.033 297.825C265.06 297.391 265.201 296.969 265.442 296.597C265.684 296.224 266.019 295.912 266.419 295.688C266.861 295.428 267.386 295.32 267.904 295.384C268.421 295.447 268.899 295.677 269.253 296.034C269.77 296.554 270.205 297.113 270.68 297.652C271.156 298.191 271.756 298.345 272.004 299C272.153 298.191 272.104 297.362 271.859 296.573C271.177 295.553 270.432 294.32 269.191 294.109C267.474 293.839 267.619 292.818 267.888 291.894C268.157 290.97 269.419 290.527 270.556 290.623C271.694 290.72 272.625 291.644 273.473 292.433C273.949 292.768 274.332 293.204 274.59 293.704L274.9 294.07C275.252 293.762 274.9 293.492 274.9 293.184C274.713 292.79 274.622 292.363 274.631 291.933Z" fill="#FDFDFD"/>
<path d="M191.994 296.381C191.937 295.254 191.615 294.152 191.05 293.154C190.486 292.156 189.692 291.285 188.726 290.604C188.126 290.219 186.864 290.007 187.423 288.967C187.648 288.534 188.005 288.173 188.451 287.929C188.897 287.686 189.41 287.571 189.926 287.6C190.773 287.62 191.596 287.869 192.294 288.317C192.992 288.765 193.535 289.392 193.856 290.123C194.166 290.739 194.394 291.721 195.283 291.336C196.173 290.951 195.676 289.969 195.283 289.41C194.733 288.601 194.132 287.823 193.484 287.08C193.029 286.522 191.415 286.637 192.346 285.309C192.659 284.815 193.141 284.434 193.716 284.228C194.29 284.021 194.923 284.002 195.511 284.172C197.166 284.577 198.034 285.886 199.069 286.984C199.565 287.504 199.834 288.794 200.889 288.101C201.944 287.407 200.889 286.714 200.413 286.175C199.403 284.489 197.749 283.218 195.78 282.613C195.552 282.516 195.469 282.42 195.552 282.324C195.635 282.228 195.697 282.189 195.78 282.189H208.191C208.124 283.065 207.774 283.902 207.187 284.589C206.6 285.276 205.803 285.782 204.902 286.04C202.833 287.042 201.385 289.256 199.276 290.7C196.67 292.399 194.252 294.334 192.056 296.477L191.994 296.381Z" fill="#FDFDFD"/>
<path d="M191.953 296.342C191.779 297.074 191.417 297.756 190.898 298.33C190.38 298.903 189.719 299.351 188.974 299.635C188.085 299.943 187.712 300.848 187.154 301.561C186.595 302.273 187.154 304.43 184.796 304.006C182.438 303.583 179.294 305.104 178.28 301.753C177.887 300.405 175.177 300.27 176.398 298.229C176.723 297.511 177.25 296.887 177.923 296.423C178.596 295.959 179.391 295.671 180.224 295.591C182.293 295.399 182.976 296.631 183.906 297.844C184.486 298.614 184.63 300.463 185.851 299.77C187.071 299.077 185.851 297.844 185.292 296.881C184.444 295.514 183.844 293.858 181.61 293.858C182.52 292.087 183.679 290.681 185.747 290.931C186.735 291.078 187.653 291.493 188.389 292.123C189.125 292.753 189.645 293.571 189.884 294.474C189.974 294.971 190.235 295.427 190.626 295.774C191.018 296.121 191.519 296.34 192.056 296.4L191.953 296.342Z" fill="#FDFDFD"/>
<path d="M264.558 294.513C263.958 297.787 262.282 298.364 259.138 297.864C252.888 297.186 246.577 297.135 240.315 297.71C239.715 297.71 238.929 298.056 238.598 297.344C238.267 296.631 238.887 296.227 239.239 295.726C239.843 295.051 240.609 294.517 241.474 294.166C242.34 293.815 243.281 293.657 244.224 293.704C251.011 293.163 257.845 293.435 264.558 294.513Z" fill="#FDFDFD"/>
<path d="M315.753 297.228C307.665 293.685 299.04 293.704 290.393 293.955L285.925 294.07C285.181 293.011 285.739 292.241 286.567 291.528C292.027 290.142 297.55 290.816 303.115 291.124C305.786 291.349 308.44 291.735 311.058 292.279C312.37 292.414 313.58 293.004 314.446 293.932C315.312 294.86 315.772 296.057 315.732 297.286L315.753 297.228Z" fill="#FCFCFC"/>
<path d="M133.89 294.725C132.566 295.707 131.18 296.15 130.601 297.459C130.547 297.672 130.408 297.858 130.212 297.98C130.016 298.101 129.778 298.149 129.546 298.114C122.472 297.074 115.335 298.114 107.951 297.536C108.615 296.489 109.549 295.613 110.669 294.988C111.789 294.362 113.059 294.007 114.363 293.955C119.563 293.692 124.777 293.795 129.96 294.263C131.18 294.301 132.38 294.532 133.89 294.725Z" fill="#FCFCFC"/>
<path d="M284.808 296.208C287.09 295.435 289.531 295.159 291.944 295.399C297.311 295.037 302.705 295.453 307.934 296.631C308.472 297.016 309.01 297.421 308.885 298.172C308.814 298.41 308.67 298.624 308.472 298.788C303.672 298.209 298.827 298.023 293.992 298.229C289.346 298.252 284.735 298.981 280.34 300.386C279.864 300.54 279.368 301.156 278.871 300.636C278.375 300.117 278.727 299.5 279.058 298.961C279.469 298.269 280.067 297.689 280.793 297.277C281.518 296.866 282.346 296.636 283.195 296.612C283.472 296.731 283.785 296.756 284.08 296.682C284.375 296.608 284.633 296.44 284.808 296.208Z" fill="#FCFCFC"/>
<path d="M283.65 301.387C286.248 300.304 289.079 299.791 291.924 299.885C296.826 299.77 301.77 299.269 306.631 300.405C306.946 300.53 307.228 300.718 307.456 300.955C307.684 301.193 307.852 301.475 307.949 301.781C308.046 302.086 308.069 302.408 308.016 302.723C307.964 303.038 307.837 303.338 307.644 303.602C299.66 303.852 291.655 303.756 283.67 303.602C283.512 303.458 283.386 303.287 283.299 303.097C283.212 302.908 283.167 302.705 283.165 302.499C283.163 302.293 283.205 302.089 283.288 301.898C283.371 301.707 283.494 301.534 283.65 301.387Z" fill="#FBFBFB"/>
<path d="M176.129 295.302C175.301 298.557 173.171 298.711 169.923 298.383C163.57 297.74 157.176 297.528 150.79 297.748C151.044 297.116 151.472 296.558 152.031 296.129C152.59 295.7 153.261 295.415 153.975 295.302C157.01 294.425 160.198 294.098 163.366 294.34C167.627 294.744 171.971 294.436 176.129 295.302Z" fill="#FCFCFC"/>
<path d="M192.967 298.21C193.628 295.591 195.862 295.187 197.952 295.149C205.419 295.014 212.907 295.149 220.416 295.149C220.105 297.729 218.864 298.634 216.051 298.326C208.384 297.498 200.643 297.459 192.967 298.21Z" fill="#FDFDFD"/>
<path d="M225.008 291.451C224.718 293.165 223.787 293.666 221.843 293.627C214.107 293.473 206.391 293.627 198.22 293.627C200.289 290.681 203.164 290.546 205.833 290.546C211.645 290.546 217.437 290.854 223.229 291.047C223.787 291.239 224.553 290.797 225.008 291.451Z" fill="#FBFBFB"/>
<path d="M181.486 290.585C180.555 293.435 178.983 293.877 176.232 293.627C169.921 292.752 163.527 292.514 157.161 292.915C157.471 291.567 158.65 291.201 159.705 290.989C166.903 289.121 174.102 290.045 181.486 290.585Z" fill="#FAFAFA"/>
<path d="M116.907 291.952C117.537 291.074 118.404 290.367 119.421 289.9C120.437 289.434 121.568 289.225 122.699 289.295L140.757 290.334C140.312 291.49 139.397 292.436 138.209 292.969C137.021 293.503 135.656 293.58 134.407 293.184C128.605 292.454 122.762 292.043 116.907 291.952Z" fill="#FBFBFB"/>
<path d="M74.2551 306.683C70.118 303.621 66.374 300.906 62.7542 298.094C62.3704 297.802 62.0583 297.436 61.8389 297.022C61.6195 296.608 61.4979 296.155 61.4822 295.694C61.4665 295.232 61.5572 294.773 61.748 294.347C61.9389 293.92 62.2255 293.537 62.5887 293.223C63.0644 292.645 63.747 291.855 64.6572 292.241C65.5673 292.626 65.4432 293.319 65.4019 294.166C65.3503 295.028 65.3918 295.892 65.526 296.747C65.7328 297.883 66.6843 298.961 67.7393 298.672C71.6281 297.786 72.5175 301.31 74.917 302.523C75.0479 302.566 75.1634 302.642 75.2506 302.742C75.3377 302.843 75.393 302.964 75.4102 303.092C75.4274 303.22 75.4059 303.35 75.3479 303.467C75.29 303.584 75.1981 303.684 75.0825 303.756C74.2551 304.449 74.2551 305.354 74.2551 306.683Z" fill="#FBFBFB"/>
<path d="M266.792 290.354C266.378 292.626 265.261 292.953 262.655 292.664C255.9 291.57 249.001 291.486 242.218 292.414C242.549 290.238 242.652 290.084 244.7 289.815C249.28 289.244 253.914 289.147 258.518 289.526C260.586 289.68 262.82 289.776 264.971 289.911C265.509 290.296 266.295 289.815 266.792 290.354Z" fill="#FAFAFA"/>
<path d="M223.891 289.834C217.489 289.024 211.029 288.689 204.571 288.832C205.026 287.08 206.288 286.907 207.715 286.656C214.644 285.54 221.491 286.849 228.4 287.253C228.048 288.389 228.131 289.603 226.621 289.949C225.773 290.122 224.801 290.585 223.891 289.834Z" fill="#FBFBFB"/>
<path d="M266.729 288.813C260.08 287.851 253.337 287.58 246.624 288.004C246.086 288.004 245.445 288.178 245.341 287.407C245.238 286.637 245.796 286.464 246.313 286.271C248.634 285.604 251.042 285.241 253.47 285.193C257.862 285.085 262.257 285.246 266.626 285.674C267.329 286.079 268.219 285.559 268.901 286.117C268.343 287.119 268.901 288.428 267.826 289.314C267.616 289.305 267.41 289.256 267.222 289.17C267.033 289.083 266.865 288.962 266.729 288.813Z" fill="#FBFBFB"/>
<path d="M287.601 287.735C289.958 286.975 292.453 286.655 294.944 286.791C299.873 286.774 304.788 287.291 309.589 288.332C310.313 288.64 310.954 289.295 311.885 288.833C312.799 288.88 313.671 289.207 314.363 289.765C315.056 290.323 315.53 291.078 315.712 291.914C315.712 292.183 315.567 292.26 315.319 292.106C307.52 289.044 299.288 289.16 291.076 289.275H287.704C286.049 288.89 286.794 288.313 287.601 287.735Z" fill="#FAFAFA"/>
<path d="M290.372 283.421C294.956 282.787 299.61 282.728 304.211 283.248C306.897 283.313 309.55 283.815 312.05 284.731C313.184 285.069 314.165 285.746 314.843 286.657C315.195 287.157 315.981 287.562 315.174 288.255C308.12 285.617 300.694 285.386 293.227 285.386C292.11 285.386 290.993 285.501 289.876 285.559C289.007 284.615 289.814 284.038 290.372 283.421Z" fill="#F9F9F9"/>
<path d="M231.606 282.401C229.703 286.04 229.683 285.886 225.401 285.424C220.669 284.849 215.899 284.591 211.128 284.654C210.528 284.654 209.453 285.251 209.37 284.115C209.37 283.325 210.177 283.075 210.921 282.863C213.594 282.344 216.34 282.233 219.05 282.536C223.187 282.593 227.324 281.669 231.606 282.401Z" fill="#FAFAFA"/>
<path d="M163.015 288.659C163.47 286.734 165.083 286.445 166.635 286.214C171.583 285.768 176.569 285.813 181.507 286.349C183.162 286.445 184.796 286.714 186.534 286.907C186.48 287.321 186.33 287.719 186.094 288.073C185.858 288.427 185.542 288.729 185.168 288.959C184.794 289.188 184.371 289.338 183.928 289.399C183.485 289.461 183.033 289.432 182.603 289.314C176.134 288.287 169.546 288.066 163.015 288.659Z" fill="#FAFAFA"/>
<path d="M191.27 283.229C190.898 285.713 189.388 286.002 187.133 285.578C181.085 284.599 174.941 284.218 168.806 284.442C169.075 282.998 170.296 282.728 171.537 282.517C176.046 281.515 180.493 282.651 184.982 282.709C187.009 282.651 189.057 282.998 191.27 283.229Z" fill="#F7F7F7"/>
<path d="M131.056 284.173C137.986 280.456 145.287 282.574 152.548 282.863C151.514 283.864 150.976 285.232 149.176 285.135C143.136 284.77 137.096 284.5 131.056 284.173Z" fill="#F9F9F9"/>
<path d="M94.5678 286.175C94.0714 285.578 93.5749 284.981 93.0578 284.403C90.6376 281.746 90.6376 280.88 93.0578 278.299C94.4851 277.76 94.816 278.299 94.7333 279.589C94.5057 283.287 94.5471 283.325 98.3945 284.057C98.8017 284.14 99.1776 284.323 99.4831 284.588C99.7886 284.852 100.013 285.187 100.132 285.559C100.773 286.909 101.851 288.04 103.214 288.794C102.014 289.718 100.939 290.912 99.0771 290.373C97.9016 289.435 96.8087 288.411 95.8089 287.311L94.5678 286.175Z" fill="#FAFAFA"/>
<path d="M132.028 298.384C135.297 294.763 138.71 294.532 141.295 297.844C141.551 298.1 141.761 298.393 141.916 298.711C142.205 299.5 137.779 304.006 136.951 303.949C136.124 303.891 136.145 303.698 135.917 303.082C135.709 302.07 135.248 301.118 134.573 300.302C133.898 299.486 133.026 298.829 132.028 298.384Z" fill="#FCFCFC"/>
<path d="M143.901 298.537C143.901 298.537 140.013 294.513 140.199 293.954C140.573 293.102 141.199 292.365 142.004 291.83C142.81 291.295 143.762 290.983 144.75 290.931C146.239 290.681 149.445 293.993 149.342 295.668C149.176 298.595 146.487 298.056 143.901 298.537Z" fill="#FCFCFC"/>
<path d="M147.046 286.175C145.66 288.486 144.543 289.256 142.35 288.89C139.386 288.53 136.403 288.325 133.414 288.274C130.5 288.16 127.598 287.864 124.727 287.388C131.884 284.481 139.268 286.907 147.046 286.175Z" fill="#FAFAFA"/>
<path d="M230.572 303.91C229.641 303.91 228.69 303.91 227.759 303.91C226.435 304.025 225.504 303.91 225.256 302.331C225.1 301.731 224.791 301.174 224.355 300.708C223.92 300.242 223.37 299.881 222.753 299.654C221.346 299 220.684 298.249 221.657 296.843C222.629 295.437 223.725 294.513 225.587 295.456C226.86 295.93 227.937 296.771 228.659 297.855C229.381 298.94 229.711 300.212 229.6 301.484C229.6 302.235 229.103 303.409 230.655 303.409C230.779 303.525 230.82 303.621 230.655 303.698C230.661 303.737 230.657 303.777 230.643 303.814C230.628 303.851 230.604 303.884 230.572 303.91Z" fill="#FCFCFC"/>
<path d="M146.653 289.526C147.161 288.682 147.943 288.01 148.887 287.605C149.831 287.2 150.888 287.084 151.907 287.273C153.975 287.696 154.472 289.429 154.989 290.989C155.278 291.913 155.837 293.223 154.12 293.454C152.776 293.646 151.141 295.822 149.983 293.088C149.156 291.695 148.021 290.481 146.653 289.526Z" fill="#FCFCFC"/>
<path d="M231.275 301.638C231.429 300.279 231.152 298.908 230.48 297.693C229.807 296.479 228.768 295.474 227.49 294.802C226.476 294.128 225.608 293.531 226.518 292.299C226.675 292.053 226.883 291.838 227.131 291.669C227.378 291.499 227.66 291.377 227.959 291.311C228.258 291.244 228.568 291.235 228.871 291.282C229.175 291.329 229.465 291.433 229.724 291.586C234.295 293.473 235.123 298.268 231.275 301.638Z" fill="#FCFCFC"/>
<path d="M237.377 282.266H246.706C245.052 285.097 243.873 287.831 240.997 289.969C240.232 287.099 239.901 284.307 237.377 282.266Z" fill="#F5F5F5"/>
<path d="M278.706 285.463C278.52 284.288 277.382 283.691 276.638 282.574H285.843C283.257 284.654 282.678 287.87 280.133 289.834L279.803 290.007C279.573 289.912 279.384 289.75 279.265 289.545C278.975 288.909 278.872 288.216 278.623 287.619C278.375 287.022 279.037 286.156 278.706 285.463Z" fill="#FBFBFB"/>
<path d="M235.909 298.711C235.915 296.945 235.399 295.211 234.417 293.7C233.436 292.189 232.027 290.958 230.344 290.142C229.434 289.699 229.517 289.141 230.055 288.486C230.593 287.831 231.192 287.003 232.516 287.581C234.523 288.664 235.998 290.43 236.631 292.507C237.264 294.584 237.005 296.809 235.909 298.711Z" fill="#F9F9F9"/>
<path d="M152.589 285.347C156.209 282.921 160.036 284.192 161.112 288.101C161.318 288.852 160.843 289.083 160.305 289.179C159.298 289.346 158.332 289.679 157.45 290.161C156.913 290.45 156.395 290.508 156.23 289.738C155.617 287.917 154.326 286.36 152.589 285.347Z" fill="#FBFBFB"/>
<path d="M249.271 283.075C250.941 282.469 252.741 282.238 254.525 282.401H270.763L269.605 285.675C269.253 283.749 267.391 284.384 266.254 284.25C261.454 283.667 256.61 283.474 251.774 283.672C250.843 283.749 249.788 284.404 249.271 283.075Z" fill="#FCFCFC"/>
<path d="M162.042 286.695C161.648 285.717 161.05 284.82 160.284 284.057C159.517 283.294 158.596 282.679 157.574 282.247H167.731C167.296 283.171 167.213 284.461 165.662 284.808C164.268 285.056 162.998 285.718 162.042 286.695Z" fill="#F7F7F7"/>
<path d="M238.06 290.874C237.008 288.93 235.359 287.321 233.323 286.252C232.351 285.79 232.103 285.174 232.454 284.326C232.616 283.962 232.917 283.666 233.298 283.495C233.68 283.325 234.116 283.292 234.523 283.402C235.686 283.581 236.743 284.142 237.501 284.982C238.26 285.822 238.671 286.887 238.66 287.985C238.618 289.025 239.611 290.161 238.06 290.874Z" fill="#F7F7F7"/>
<path d="M283.526 303.428H305.762C306.507 303.428 307.272 303.563 307.831 303.024C307.97 302.856 308.153 302.723 308.363 302.639C308.573 302.554 308.803 302.521 309.03 302.543C310.313 302.793 311.74 302.543 312.836 303.448C312.216 304.507 311.182 303.91 310.375 303.91C300.653 303.91 290.938 303.91 281.23 303.91C280.361 303.91 278.975 304.411 278.706 303.563C278.354 302.408 279.926 302.331 280.774 301.869C281.101 301.711 281.44 301.576 281.788 301.464C282.76 301.849 282.781 303.005 283.526 303.428Z" fill="#F3F3F3"/>
<path d="M275.252 286.637C274.838 285.886 273.99 285.675 273.307 285.27C272.625 284.866 271.487 285.424 271.921 284.211C272.211 283.345 273.142 283.21 273.99 283.345C275.728 283.633 276.555 284.962 277.465 286.156C277.983 286.565 278.346 287.119 278.499 287.735C278.562 288.111 278.562 288.495 278.499 288.871C278.47 289.255 278.294 289.617 278.003 289.892C276.017 289.68 276.017 287.87 275.252 286.637Z" fill="#F6F6F6"/>
<path d="M76.6752 293.531C72.5382 293.531 72.7864 290.142 71.5246 287.889C71.2764 287.446 71.3799 287.292 71.7936 287.157C72.2073 287.022 72.3727 286.81 72.7864 287.157C73.5776 287.716 74.1631 288.49 74.4619 289.372C74.8589 290.919 75.8341 292.284 77.213 293.223C77.213 293.473 77.1717 293.781 76.6752 293.531Z" fill="#F8F8F8"/>
<path d="M308.472 298.788V298.152C309.299 297.941 309.651 296.824 310.747 297.132C311.755 297.186 312.723 297.516 313.529 298.082C314.336 298.647 314.944 299.422 315.277 300.309C315.546 300.964 316.022 301.676 314.698 301.773C313.271 299.674 310.54 299.808 308.472 298.788Z" fill="#F2F2F2"/>
<path d="M74.3583 295.11C73.4275 295.11 72.4966 295.11 71.5658 295.11C70.635 295.11 69.7869 294.629 69.9317 293.473C70.0711 292.868 70.0395 292.239 69.8401 291.649C69.6407 291.058 69.2803 290.526 68.794 290.103C68.0493 289.526 68.6285 288.948 69.0836 288.621C69.8696 288.062 70.1799 288.775 70.4695 289.295C70.5819 289.533 70.6518 289.786 70.6763 290.046C70.7603 291.283 71.2966 292.456 72.1959 293.37C73.0952 294.285 74.3036 294.885 75.6201 295.071C75.4534 295.224 75.2311 295.313 74.9973 295.32C74.7634 295.327 74.5353 295.252 74.3583 295.11Z" fill="#EEEEEE"/>
<path d="M74.3584 295.11H75.6202C77.6685 296.816 79.9167 298.301 82.3221 299.539C78.1438 300.386 76.3235 297.786 74.3584 295.11Z" fill="#F2F2F2"/>
<path d="M71.6279 296.727C72.5381 296.727 73.3655 296.419 74.0481 297.421C75.1771 299.117 76.8908 300.407 78.9091 301.079C77.5232 302.504 76.5303 301.58 75.5374 301.079C73.7999 300.117 73.1586 298.229 71.6279 297.074C71.4349 296.997 71.3728 296.92 71.4418 296.843C71.4418 296.843 71.5659 296.727 71.6279 296.727Z" fill="#F2F2F2"/>
<path d="M76.6753 293.531L77.2131 293.146C80.2331 294.282 82.1775 296.997 85.301 297.979C81.4535 298.133 79.1161 295.745 76.6753 293.531Z" fill="#E3E3E3"/>
<path d="M69.9109 297.093C67.7183 297.575 66.6427 296.824 66.953 294.686C67.0547 293.919 66.9596 293.141 66.6755 292.414C66.3915 291.688 65.9265 291.035 65.3188 290.508C67.5942 290.296 68.3182 291.413 68.2354 293.05C68.1566 293.607 68.2184 294.174 68.4158 294.706C68.6133 295.237 68.9411 295.718 69.3731 296.111C69.642 296.4 70.2212 296.535 69.9109 297.093Z" fill="#F4F4F4"/>
<path d="M287.601 287.735C287.435 288.274 286.773 288.852 287.601 289.352L281.643 291.028C283.029 288.236 285.346 288.024 287.601 287.735Z" fill="#E0E0E0"/>
<path d="M312.898 303.486C311.595 303.255 310.127 304.006 308.989 302.851C308.849 302.727 308.737 302.577 308.661 302.412C308.584 302.246 308.545 302.068 308.545 301.888C308.545 301.708 308.584 301.53 308.661 301.364C308.737 301.199 308.849 301.049 308.989 300.925C310.644 301.368 313.105 300.675 312.898 303.486Z" fill="#F8F8F8"/>
<path d="M80.9569 290.258C78.5988 289.102 78.392 286.483 76.3235 284.712C80.7501 284.924 79.8399 288.255 80.9569 290.258Z" fill="#F0F0F0"/>
<path d="M284.188 294.513L280.506 295.514C281.312 292.915 281.664 292.645 284.767 291.971C284.973 292.397 285.029 292.873 284.925 293.33C284.82 293.788 284.562 294.202 284.188 294.513Z" fill="#EAEAEA"/>
<path d="M275.252 286.637L277.899 289.641C278.039 289.753 278.152 289.892 278.229 290.048C278.306 290.205 278.345 290.374 278.345 290.546C278.345 290.718 278.306 290.888 278.229 291.044C278.152 291.2 278.039 291.339 277.899 291.451C275.831 290.893 275.314 288.948 274.01 287.716C275.003 287.831 275.314 287.407 275.252 286.637Z" fill="#747474"/>
<path d="M101.373 282.516L102.097 283.344C102.531 284.288 103.917 284.692 103.835 285.963C103.983 286.124 104.065 286.329 104.065 286.541C104.065 286.753 103.983 286.958 103.835 287.119C102.112 286.244 100.832 284.769 100.277 283.017C100.235 282.907 100.224 282.789 100.246 282.675C100.268 282.56 100.321 282.452 100.401 282.362C100.711 282.228 101.146 282.17 101.373 282.516Z" fill="#E9E9E9"/>
<path d="M102.635 281.977V281.438C102.8 281.226 102.986 281.226 103.173 281.438L104.248 281.997C104.972 283.345 106.606 283.672 107.62 284.692C107.62 285.713 106.834 285.251 106.296 285.212C104.476 284.769 103.772 283.152 102.635 281.977Z" fill="#F1F1F1"/>
<path d="M315.174 288.216L314.843 286.618C314.994 286.622 315.145 286.595 315.284 286.54C315.423 286.485 315.548 286.402 315.65 286.298C315.752 286.194 315.829 286.071 315.876 285.936C315.922 285.802 315.937 285.66 315.919 285.52C316.912 287.041 318.194 288.505 317.015 290.431L315.174 288.216Z" fill="#4F4F4F"/>
<path d="M314.74 301.773C315.526 301.503 315.05 300.771 315.319 300.309C316.56 300.309 316.187 299.269 316.436 298.653C317.304 300.733 317.118 302.504 314.74 303.583V301.773Z" fill="#252525"/>
<path d="M238.06 290.874C238.908 290.046 238.35 288.948 238.619 288.062C239.611 289.121 238.494 290.835 240.191 291.913C240.935 292.356 239.922 293.396 238.784 293.743L238.06 290.874Z" fill="#EEEEEE"/>
<path d="M271.901 296.612C271.901 296.612 272.108 296.612 272.149 296.766C272.77 297.998 273.845 300.02 272.604 300.463C271.363 300.906 271.404 298.653 270.722 297.69C271.777 297.96 271.942 297.382 271.901 296.612Z" fill="#929292"/>
<path d="M76.6131 287.754L78.9505 291.451C76.882 291.336 76.3029 289.969 76.034 288.409C75.7857 287.87 76.0753 287.716 76.6131 287.754Z" fill="#EFEFEF"/>
<path d="M284.188 294.513L284.767 291.971C285.019 291.788 285.308 291.654 285.618 291.577C285.927 291.501 286.25 291.485 286.567 291.528L285.925 294.07C285.711 294.29 285.434 294.449 285.126 294.527C284.818 294.606 284.493 294.601 284.188 294.513Z" fill="#8F8F8F"/>
<path d="M83.915 294.821C82.9858 294.639 82.1049 294.286 81.3236 293.784C80.5423 293.281 79.8763 292.639 79.3643 291.894C81.8258 291.991 82.7152 293.627 83.915 294.821Z" fill="#E6E6E6"/>
<path d="M309.051 300.906V302.832L307.996 303.005C307.045 302.331 307.645 301.079 306.838 300.348C307.52 300.521 308.389 300.29 309.051 300.906Z" fill="#848484"/>
<path d="M290.372 283.422L289.876 285.521H288.18C287.539 285.155 286.98 284.731 287.601 283.961C288.221 283.191 289.504 283.749 290.372 283.422Z" fill="#DDDDDD"/>
<path d="M287.601 284.057L288.18 285.617L284.767 286.618C285.387 285.116 286.029 284.153 287.601 284.057Z" fill="#E4E4E4"/>
<path d="M315.319 292.106L315.712 291.913C316.311 292.106 316.518 293.396 317.511 292.453C318.732 293.55 318.194 294.378 317.035 295.11C317.201 293.743 315.339 293.377 315.319 292.106Z" fill="#B7B7B7"/>
<path d="M83.6252 291.625C84.4157 291.718 85.1602 292.023 85.7694 292.501C86.3785 292.979 86.8263 293.611 87.059 294.32C85.6162 293.815 84.4039 292.863 83.6252 291.625Z" fill="#DBDBDB"/>
<path d="M223.891 289.834L226.725 289.949L225.008 291.413C224.428 291.201 223.705 291.413 223.229 290.95C223.428 290.828 223.593 290.663 223.708 290.468C223.824 290.274 223.886 290.056 223.891 289.834Z" fill="#353535"/>
<path d="M310.789 297.228C309.941 297.382 309.982 299.154 308.513 298.249L307.934 296.727C308.865 296.881 310.065 296.265 310.789 297.228Z" fill="#959595"/>
<path d="M283.526 303.428C281.457 303.871 282.078 302.389 281.809 301.503L283.65 301.387L283.526 303.428Z" fill="#4D4D4D"/>
<path d="M95.8501 287.311C97.1458 288.109 98.2455 289.152 99.077 290.373C98.3125 290.145 97.6192 289.747 97.0569 289.214C96.4947 288.68 96.0805 288.027 95.8501 287.311Z" fill="#121212"/>
<path d="M274.631 291.933C275.169 292.087 275.169 292.53 275.252 292.934C275.562 293.897 275.5 294.513 274.155 293.993L273.514 292.472L274.631 291.933Z" fill="#A7A7A7"/>
<path d="M278.603 294.571C278.33 294.183 278.145 293.747 278.06 293.29C277.975 292.833 277.99 292.364 278.106 291.913C278.381 291.804 278.676 291.748 278.975 291.748C279.274 291.748 279.569 291.804 279.844 291.913C279.896 292.012 279.913 292.124 279.89 292.231C279.868 292.339 279.808 292.437 279.72 292.51C279.037 293.03 279.575 294.166 278.603 294.571Z" fill="#939393"/>
<path d="M103.772 287.119V285.963C104.517 286.503 105.965 286.252 105.841 287.658C105.476 287.753 105.09 287.753 104.726 287.658C104.361 287.563 104.031 287.376 103.772 287.119Z" fill="#FEFEFE"/>
<path d="M278.065 287.735C277.847 287.529 277.682 287.28 277.582 287.007C277.482 286.733 277.449 286.443 277.486 286.156C277.741 286.174 277.997 286.117 278.216 285.993C278.435 285.869 278.607 285.683 278.706 285.463C279.451 286.079 279.182 286.945 279.306 287.696C279.228 287.776 279.133 287.84 279.028 287.885C278.923 287.93 278.81 287.955 278.694 287.959C278.578 287.962 278.463 287.944 278.355 287.906C278.247 287.867 278.148 287.809 278.065 287.735Z" fill="#222222"/>
<path d="M109.999 283.556C111.074 283.556 112.212 283.21 113.143 283.999C111.86 285.27 110.95 284.288 109.999 283.556Z" fill="#8E8E8E"/>
<path d="M284.808 296.207C284.808 296.785 284.808 297.498 284.001 297.613C283.195 297.729 283.174 297.132 283.091 296.612C283.526 295.976 284.188 296.15 284.808 296.207Z" fill="#CCCCCC"/>
<path d="M107.123 281.939C108.137 282.131 109.192 282.189 109.337 283.518C108.034 283.749 107.041 283.46 107.123 281.939Z" fill="#D6D6D6"/>
<path d="M105.034 281.38C106.42 279.455 106.71 281.015 107.103 281.997C106.482 281.823 105.614 281.997 105.034 281.38Z" fill="#F7F7F7"/>
<path d="M266.729 288.813C267.35 288.582 267.681 288.813 267.867 289.372C267.64 289.834 267.412 290.277 266.791 290.354L264.971 289.93C265.633 289.66 266.461 289.622 266.729 288.813Z" fill="#666666"/>
<path d="M249.271 283.075C249.954 283.806 250.947 283.287 251.712 283.614C250.476 284.062 249.133 284.195 247.823 283.999C247.916 283.715 248.11 283.469 248.374 283.301C248.637 283.133 248.953 283.053 249.271 283.075Z" fill="#E1E1E1"/>
<path d="M311.885 288.832C310.582 290.758 310.209 289.044 309.589 288.332C310.393 288.246 311.205 288.423 311.885 288.832Z" fill="#AEAEAE"/>
<path d="M106.358 285.212L107.682 284.692L109.544 285.443L109.42 286.002L106.358 285.212Z" fill="#DBDBDB"/>
<path d="M230.572 303.91C230.536 303.848 230.517 303.778 230.517 303.708C230.517 303.637 230.536 303.568 230.572 303.506C231.089 302.658 232.02 303.12 232.641 302.889L232.268 303.91H230.572Z" fill="#818181"/>
<path d="M76.6129 287.754L76.0338 288.409C75.558 287.85 74.6479 287.061 75.3718 286.599C76.0958 286.137 76.3234 287.196 76.6129 287.754Z" fill="#CFCFCF"/>
<path d="M195.759 282.016C195.709 282.077 195.681 282.151 195.681 282.228C195.681 282.304 195.709 282.379 195.759 282.439H192.822V282.016H195.759Z" fill="#454545"/>
<path d="M69.9111 297.093L69.3733 296.111L71.628 296.727V297.093H69.9111Z" fill="#D5D5D5"/>
<path d="M279.72 292.51V291.913C279.569 291.768 279.454 291.594 279.382 291.404C279.31 291.214 279.283 291.011 279.303 290.81C279.322 290.609 279.388 290.415 279.496 290.239C279.604 290.064 279.751 289.913 279.927 289.795H280.299C280.071 290.719 280.899 291.779 279.72 292.51Z" fill="#EBEBEB"/>
<path d="M268.943 286.175C268.157 286.175 267.309 286.368 266.667 285.732L269.625 285.674C269.6 285.822 269.516 285.956 269.389 286.049C269.263 286.142 269.103 286.187 268.943 286.175Z" fill="#717171"/>
<path d="M97.0086 282.594C95.6641 282.17 95.147 281.496 95.9744 280.206C96.8018 278.916 95.6641 277.991 95.3745 276.74C97.0707 276.855 97.7119 277.76 97.443 279.089C97.292 279.631 97.3404 280.204 97.5804 280.717C97.8203 281.23 98.2381 281.653 98.7669 281.92C98.8197 281.963 98.862 282.016 98.891 282.076C98.9199 282.136 98.9349 282.201 98.9349 282.266C98.9349 282.332 98.9199 282.397 98.891 282.456C98.862 282.516 98.8197 282.569 98.7669 282.613C98.2004 282.82 97.5697 282.813 97.0086 282.594Z" fill="#D6D6D6"/>
<path d="M100.422 274.66C102.759 275.661 102.635 277.934 104.042 279.57C99.8424 279.532 101.021 276.547 100.422 274.66Z" fill="#E2E2E2"/>
<path d="M103.214 281.438H102.676C102.262 281.246 101.828 280.899 101.435 280.918C99.2425 281.091 98.2289 280.263 98.7253 278.203C98.9322 277.317 96.843 276.277 98.7253 275.777C99.408 275.584 99.863 277.279 99.8217 278.299C99.7389 280.514 102.469 280.032 103.214 281.438Z" fill="#EBEBEB"/>
<path d="M104.89 273.524L106.482 274.795C106.482 275.411 106.896 276.085 106.234 276.72C105.034 276.47 105.489 274.91 104.331 274.66C104.145 274.121 104.269 273.697 104.89 273.524Z" fill="#DBDBDB"/>
<path d="M103.752 275.584C104.228 276.47 105.448 276.971 105.262 278.203C103.731 277.818 103.214 276.99 103.752 275.584Z" fill="#D7D7D7"/>
<path d="M106.689 278.858L108.861 279.339C108.993 279.458 109.094 279.603 109.159 279.763C109.223 279.922 109.249 280.093 109.233 280.264C109.172 280.491 109.043 280.698 108.861 280.861C107.103 281.169 107.144 279.782 106.689 278.858Z" fill="#B7B7B7"/>
<path d="M97.0085 282.593L98.684 282.42C98.9372 282.269 99.2315 282.189 99.5321 282.189C99.8328 282.189 100.127 282.269 100.38 282.42L100.215 282.94C99.077 282.882 97.9807 283.364 97.0085 282.593Z" fill="#0E0E0E"/>
<path d="M100.38 282.497H98.6841C98.6733 282.331 98.6733 282.163 98.6841 281.997C99.5529 282.305 100.608 281.997 101.352 282.594L100.38 282.497Z" fill="#CECECE"/>
<path d="M111.033 279.898C110.869 279.87 110.701 279.87 110.537 279.898C110.448 279.951 110.343 279.973 110.238 279.962C110.134 279.951 110.037 279.906 109.964 279.836C109.891 279.765 109.846 279.674 109.837 279.576C109.829 279.479 109.856 279.381 109.916 279.301H110.123C110.163 279.22 110.227 279.151 110.308 279.103C110.388 279.056 110.482 279.03 110.578 279.031C110.678 279.038 110.775 279.064 110.864 279.107C110.953 279.15 111.031 279.21 111.095 279.281C111.219 279.416 111.24 279.532 111.095 279.628C110.95 279.724 111.095 279.898 111.033 279.898Z" fill="#DDDDDD"/>
<path d="M110.061 279.782C110.232 279.768 110.403 279.816 110.536 279.917L109.978 280.398L109.792 280.187V279.898L110.061 279.782Z" fill="#161616"/>
<path d="M111.033 279.898C111.078 279.821 111.102 279.735 111.102 279.647C111.102 279.56 111.078 279.474 111.033 279.397L111.571 279.917L111.033 279.898Z" fill="#232323"/>
<path d="M109.978 280.398L109.42 280.899L109.233 280.533L109.42 280.244L109.854 280.36L109.978 280.398Z" fill="#161616"/>
<path d="M109.419 280.36V280.899H109.151H108.902V280.225C108.994 280.201 109.09 280.201 109.181 280.225C109.272 280.249 109.355 280.295 109.419 280.36Z" fill="#F0F0F0"/>
<path d="M109.419 280.36C109.234 280.343 109.057 280.283 108.902 280.186V279.339H109.419C109.503 279.413 109.566 279.503 109.606 279.603C109.645 279.703 109.659 279.811 109.647 279.917L109.419 280.167V280.36Z" fill="black"/>
<path d="M109.42 279.898V279.339H109.916C110.007 279.479 110.057 279.638 110.061 279.801L109.854 279.994H109.627L109.42 279.898Z" fill="#161616"/>
<path d="M111.095 279.359H110.537C110.486 279.323 110.447 279.276 110.421 279.222C110.396 279.168 110.386 279.109 110.392 279.051C110.392 278.935 110.392 278.877 110.392 278.877H111.033C111.063 279.037 111.083 279.197 111.095 279.359Z" fill="#363636"/>
<path d="M110.454 278.858C110.495 279.016 110.495 279.181 110.454 279.339C110.318 279.312 110.177 279.312 110.04 279.339C109.978 279.07 110.102 278.896 110.454 278.858Z" fill="#E4E4E4"/>
<path d="M106.565 300.906H113.37C113.929 301.619 116.163 300.117 115.604 302.331H102.449C101.704 302.331 100.877 302.331 100.628 301.464C100.38 300.598 101.042 300.829 101.518 300.771C102.283 301.177 103.143 301.401 104.023 301.424C104.903 301.448 105.776 301.27 106.565 300.906Z" fill="#A8A8A8"/>
<path d="M115.625 302.369C115.625 300.964 113.908 301.715 113.391 300.944C115.672 300.7 117.981 300.823 120.217 301.31C120.714 302.331 121.748 301.715 122.534 301.946C123.32 302.177 123.568 302.196 123.506 302.87C120.817 303.274 118.231 302.369 115.625 302.369Z" fill="#B3B3B3"/>
<path d="M106.565 300.906C106.259 301.253 105.873 301.532 105.437 301.724C105.001 301.916 104.524 302.015 104.042 302.015C103.559 302.015 103.083 301.916 102.646 301.724C102.21 301.532 101.825 301.253 101.518 300.906H106.565Z" fill="#969696"/>
<path d="M123.486 302.87L122.348 302.408C122.058 302.138 121.5 301.965 121.81 301.407H125.182C125.823 302.138 125.285 302.504 124.644 302.832L123.486 302.87Z" fill="#B1B1B1"/>
<path d="M124.644 302.889L125.182 301.464C125.885 301.464 126.94 301.195 126.733 302.273C126.526 303.351 125.409 302.851 124.644 302.889Z" fill="#BCBCBC"/>
<path d="M121.831 301.407L122.368 302.408C121.707 301.926 119.886 303.428 120.3 301.31L121.831 301.407Z" fill="#979797"/>
<path d="M279.844 289.795L279.637 291.913C279.432 292.099 279.158 292.203 278.872 292.203C278.586 292.203 278.311 292.099 278.106 291.913C278.096 291.76 278.096 291.605 278.106 291.451C278.106 290.835 278.106 290.238 278.106 289.641C278.106 289.352 278.23 289.064 278.313 288.775C279.265 288.582 279.347 289.449 279.823 289.853V289.738L279.844 289.795Z" fill="#646464"/>
<path d="M274.155 293.993C274.941 293.993 275.19 293.55 275.252 292.934C275.831 293.685 276.596 294.686 275.583 295.283C274.569 295.88 274.507 294.59 274.155 293.993Z" fill="#C4C4C4"/>
<path d="M279.616 289.853C278.809 289.853 278.603 289.141 278.106 288.775V287.735H279.347C279.989 288.332 279.596 289.121 279.616 289.853Z" fill="#2A2A2A"/>
<path d="M109.42 279.898C109.56 279.849 109.714 279.849 109.854 279.898C109.905 280.022 109.905 280.159 109.854 280.283C109.68 280.259 109.516 280.192 109.378 280.09L109.42 279.898Z" fill="black"/>
</g>
</g>
<defs>
<clipPath id="clip0">
<rect width="269.154" height="73.8854" fill="white" transform="translate(59.7754 272.195)"/>
</clipPath>
</defs>
</svg>
