<svg width="387" height="239" viewBox="0 0 387 239" fill="none" xmlns="http://www.w3.org/2000/svg">
<path d="M13.6146 120.151L12.4986 118.968C10.9727 115.942 11.5193 112.552 11.3144 109.389C10.8361 102.177 10.4489 94.9184 10.1528 87.6831C11.1094 86.2725 12.4303 86.9778 13.5463 87.2281C26.4141 90.0949 39.2591 93.1665 52.1269 96.1016C54.1766 96.5566 55.8848 97.3757 56.0214 99.8102C56.0214 101.517 57.4107 102.085 58.7316 102.336C62.5199 103.097 66.1787 104.4 69.5952 106.204C76.4389 109.136 83.6234 111.2 90.9808 112.347C92.7345 112.665 94.4426 112.483 94.7159 109.912C95.0575 106.636 95.6724 106.249 98.952 107.023L126.396 113.371C137.783 116.033 149.171 118.513 160.558 121.289C164.293 122.199 164.589 122.677 164.658 126.613C164.817 135.077 164.361 143.563 164.908 152.027C165.067 154.303 163.633 154.621 161.856 154.303C156.595 153.301 151.334 152.232 146.164 150.844C139.992 149.206 133.684 148.159 127.466 146.749C109.702 142.653 92.0057 138.399 74.2185 134.508C56.4314 130.617 39.2819 126.749 21.8363 122.745C19.0123 121.994 15.9376 122.199 13.6146 120.151Z" fill="#989FC9"/>
<path d="M13.6146 120.152L41.1494 126.409L109.269 141.926C119.427 144.201 129.584 146.636 139.81 148.752C147.258 150.23 154.591 152.187 161.993 153.78C163.109 154.007 164.27 154.303 164.065 152.324C163.337 143.359 163.792 134.349 163.747 125.385C163.747 123.246 162.813 122.654 160.991 122.222C143.431 118.24 125.895 114.168 108.335 110.118C104.782 109.299 101.184 108.662 97.6994 107.638C95.6952 107.046 95.4219 107.638 95.4219 109.412C95.4219 110.414 96.4696 111.688 95.4219 112.37C94.2662 113.233 92.8246 113.624 91.3908 113.462C83.7014 112.213 76.1816 110.083 68.9803 107.114C65.4802 105.379 61.7986 104.036 58.0028 103.11C57.5914 103.097 57.1877 102.995 56.819 102.812C56.4503 102.63 56.1254 102.37 55.8661 102.05C55.6069 101.731 55.4195 101.359 55.3166 100.961C55.2137 100.563 55.1978 100.147 55.2698 99.7426C55.2698 98.1726 54.746 97.7403 53.2201 97.4673C38.963 94.0089 24.7971 90.6643 10.6083 87.3197C9.85675 87.7292 9.60623 86.8646 9.05963 86.7281C7.26042 86.4323 5.43842 86.182 3.63921 85.818C3.28559 85.7839 2.94225 85.6801 2.62904 85.5127C2.31583 85.3452 2.03897 85.1173 1.81447 84.8422C1.58997 84.5672 1.42228 84.2504 1.32112 83.9102C1.21995 83.57 1.1873 83.2131 1.22507 82.8602C1.32078 82.1452 1.27434 81.4184 1.08843 80.7214C0.610154 79.7658 -0.61969 79.0833 0.382404 77.8091C0.829176 77.3116 1.37242 76.9098 1.97923 76.6282C2.58603 76.3466 3.24374 76.191 3.91251 76.1709C17.5774 74.3052 31.4245 72.576 45.135 70.5283C60.7586 68.253 76.3366 65.6138 91.9374 63.202C104.441 61.268 116.99 59.4933 129.425 57.5366C141.86 55.5799 154.227 53.4184 166.753 51.4617C176.614 49.9145 186.521 48.5266 196.36 46.9112C204.81 45.6143 213.236 44.1581 221.686 42.8157C222.799 42.713 223.916 42.6674 225.034 42.6792C225.034 43.8168 224.168 44.0898 223.394 44.4766C214.284 46.4334 204.855 47.5482 195.586 49.0271C142.065 57.5366 88.5211 65.9702 34.9547 74.328C28.646 75.3291 22.3146 76.3757 15.9832 77.2403C13.6924 77.6804 11.3432 77.7265 9.03685 77.3768C15.2316 77.9684 22.178 80.2209 29.2837 81.6998C42.812 84.5211 56.3175 87.57 69.7774 90.8008C100.227 98.0134 130.791 104.725 161.264 111.847C162.285 111.985 163.264 112.342 164.134 112.894C164.412 113.099 164.632 113.373 164.771 113.69C165.092 114.619 165.155 115.618 164.954 116.579C164.78 117.328 164.78 118.106 164.954 118.855C165.074 119.25 165.085 119.67 164.985 120.071C164.885 120.472 164.677 120.838 164.384 121.13C164.227 121.177 164.061 121.187 163.899 121.159C163.737 121.132 163.583 121.067 163.45 120.971C161.942 119.406 159.97 118.369 157.825 118.013C138.466 113.462 119.146 108.919 99.863 104.384C98.9976 104.179 98.0866 103.724 97.0389 104.384C97.7677 105.635 99.0887 105.613 100.205 105.886C119.905 110.436 139.582 115.192 159.419 119.537C160.943 119.821 162.416 120.327 163.792 121.039C164.148 121.067 164.489 121.199 164.772 121.417C165.055 121.635 165.268 121.931 165.386 122.268C165.804 124.61 165.994 126.987 165.956 129.366C165.956 135.874 165.956 142.381 165.956 148.888C165.956 152.551 166.297 152.824 169.919 152.278C202.487 147.364 235.055 142.495 267.623 137.671C297.746 133.121 327.87 128.623 357.993 124.179L360.134 123.86C366.557 122.836 366.716 122.632 366.967 115.988C367.217 109.344 366.466 102.154 367.468 95.2603C367.52 94.3348 367.736 93.4258 368.105 92.5755C368.14 92.4908 368.191 92.4141 368.257 92.3503C368.322 92.2865 368.4 92.237 368.486 92.2049C368.572 92.1728 368.663 92.1589 368.754 92.1639C368.846 92.169 368.935 92.1929 369.016 92.2342C369.29 99.8108 369.244 107.387 369.016 114.987C369.016 117.558 368.652 120.152 368.652 122.723C368.652 124.224 368.242 124.998 366.648 125.157C351.571 127.432 336.471 129.708 321.394 131.983C308.185 133.917 294.998 135.737 281.789 137.648C280.758 137.868 279.746 138.164 278.76 138.536L321.144 148.752C322.886 148.986 324.654 148.567 326.105 147.576C327.557 146.584 328.588 145.09 329.001 143.382C329.479 141.835 329.912 141.311 331.575 141.38C334.353 141.38 335.082 140.06 333.852 137.557C333.607 137.083 333.494 136.552 333.527 136.019C333.559 135.486 333.735 134.972 334.037 134.531C334.338 134.091 334.753 133.739 335.237 133.515C335.722 133.291 336.259 133.202 336.79 133.257C339.502 133.62 342.182 134.19 344.807 134.963C347.358 135.737 348.519 139.286 347.631 142.517C346.577 145.724 344.663 148.581 342.097 150.777C341.391 151.459 340.639 152.119 339.819 153.052C344.215 153.484 347.312 151.664 348.382 147.659C348.815 146.044 349.362 145.862 350.66 145.862C353.53 145.862 354.327 144.542 353.165 142.108C352.829 141.637 352.636 141.08 352.609 140.503C352.582 139.925 352.722 139.352 353.013 138.853C353.304 138.353 353.733 137.948 354.249 137.686C354.765 137.424 355.345 137.316 355.921 137.375C358.718 137.759 361.476 138.383 364.165 139.241C366.648 140.037 367.764 143.45 366.898 146.545L365.873 150.003C364.737 152.42 363.025 154.522 360.886 156.123C362.089 155.487 363.147 154.608 363.994 153.543C364.84 152.478 365.457 151.25 365.805 149.935C366.716 149.935 367.65 149.935 368.584 149.935C370.747 149.775 371.84 148.205 370.679 146.476C370.266 145.941 370.057 145.275 370.09 144.6C370.124 143.924 370.397 143.283 370.861 142.79C371.795 141.402 373.139 141.584 374.414 141.835C376.692 142.267 378.787 142.654 380.95 143.2C383.661 143.905 385.187 147.477 384.298 150.822C383.091 155.373 379.743 158.239 376.441 161.379C377.762 161.743 378.514 161.948 378.582 163.654C378.878 171.277 379.538 178.876 379.516 186.407C379.421 189.502 379.588 192.6 380.017 195.667C380.183 196.729 380.108 197.814 379.796 198.842C379.485 199.87 378.945 200.815 378.217 201.606C376.585 203.565 374.565 205.166 372.284 206.309C370.003 207.453 367.511 208.113 364.962 208.249C358.586 208.682 352.254 209.91 345.9 210.843C338.248 211.958 330.618 213.118 322.988 214.302C315.359 215.485 307.501 216.713 299.758 217.874C292.015 219.034 284.636 220.013 276.983 221.15C269.331 222.288 261.701 223.425 254.072 224.654C246.442 225.883 238.972 226.929 231.297 227.976C223.622 229.023 215.833 230.41 208.089 231.594C200.938 232.686 193.787 233.71 186.635 234.779C179.484 235.848 172.515 236.713 165.5 237.942C161.833 238.579 158.668 237.168 155.229 236.463C134.048 231.912 112.913 227.111 91.778 222.333C73.9452 218.443 55.8848 214.279 37.8243 210.183C37.4173 210.114 37.0067 210.069 36.5944 210.047C36.4806 209.182 36.9361 208.75 37.7332 208.591C45.7979 209.851 53.7943 211.514 61.6923 213.574C93.9871 220.718 126.259 227.93 158.508 235.211L160.649 235.644C162.038 235.962 162.38 235.416 162.38 234.028C162.38 221.719 161.355 209.455 161.606 197.169C161.606 194.348 160.216 193.46 157.779 192.937C140.106 189.069 122.342 185.156 104.76 181.356C72.5332 174.394 40.3523 167.249 8.12586 160.355C6.73659 160.06 5.32455 159.377 4.00361 160.537C3.80094 160.692 3.55282 160.776 3.29759 160.776C3.04236 160.776 2.79423 160.692 2.59157 160.537C1.95387 157.921 2.88764 156.988 5.6434 156.715C12.1342 156.078 18.5795 155.008 25.0476 154.076L44.3834 151.232L68.8892 147.682L92.2334 144.406L106.946 142.313L18.5568 122.677C16.8714 122.29 15.1861 121.904 13.5691 121.38C12.5442 121.039 13.0225 120.516 13.6146 120.152Z" fill="#030303"/>
<path d="M223.849 43.8162L225.079 42.7696C226.172 43.0653 227.357 44.1347 228.268 42.5648C230.978 38.128 235.1 37.8095 239.541 38.9926C241.591 39.5159 243.641 40.153 245.69 40.6991C247.74 41.2451 248.924 42.1097 246.966 44.203C246.075 45.2432 245.238 46.3292 244.461 47.4566C244.95 47.6699 245.503 47.6925 246.008 47.5199C246.514 47.3473 246.937 46.9919 247.194 46.5237C248.117 44.9732 249.55 43.7903 251.248 43.1764C252.947 42.5624 254.806 42.5554 256.508 43.1563C258.991 43.8844 262.043 43.7479 264.093 45.1358C266.332 46.4446 268.951 46.9503 271.517 46.5692C274.854 46.8412 278.144 47.5291 281.31 48.617C284.362 49.436 284.522 50.1641 282.654 52.7124C281.994 53.6225 281.219 54.4644 280.377 55.3745C281.811 56.6486 284.021 55.9205 285.524 57.3539L282.813 59.1969C291.923 61.4721 301.033 63.4289 309.847 65.8406C311.378 66.2026 312.987 66.0258 314.402 65.3401C315.336 64.8494 316.364 64.5649 317.417 64.506C318.47 64.4471 319.523 64.6152 320.506 64.9988C321.012 65.2714 321.567 65.4406 322.139 65.4965C322.711 65.5524 323.288 65.4939 323.837 65.3245C324.386 65.155 324.896 64.878 325.337 64.5096C325.778 64.1411 326.141 63.6887 326.405 63.1786C328.864 59.7657 332.508 60.5165 335.947 61.3129C338.225 61.8134 340.252 62.5643 342.415 63.1103C344.579 63.6564 345.239 64.521 343.622 66.4322C342.757 67.4106 342.074 68.5482 341.345 69.6403C342.165 70.0498 342.916 70.2319 343.372 69.481C346.355 64.339 350.888 64.43 355.67 65.9999C358.358 66.91 361.979 65.9999 363.436 69.6858C363.559 69.7384 363.691 69.7655 363.824 69.7655C363.957 69.7655 364.089 69.7384 364.211 69.6858C369.107 67.2968 373.503 70.2091 378.081 70.9827C380.745 71.4605 381.315 72.7802 379.356 74.8961C378.536 75.7835 377.83 76.7846 377.079 77.854C379.584 78.3773 381.93 78.8096 384.253 79.3784C386.576 79.9472 387.578 82.2907 386.348 84.8845C385.892 84.609 385.528 84.2054 385.3 83.7241C384.002 82.359 382.431 82.8368 380.928 83.0643C359.451 86.1131 337.997 89.4123 316.543 92.5521C284.248 97.2619 251.954 102.108 219.659 106.841C202.411 109.389 185.155 111.983 167.891 114.622C167.299 114.812 166.67 114.863 166.054 114.772C165.438 114.682 164.852 114.451 164.339 114.099V113.439C164.954 111.459 166.776 111.755 168.165 111.55C182.581 109.503 196.975 107.273 211.437 105.157C244.256 100.356 277.074 95.4417 309.87 90.6181C331.848 87.3645 353.825 84.0199 375.917 80.9256C376.936 80.8061 377.947 80.6315 378.946 80.4022C376.218 79.6961 373.406 79.3669 370.588 79.4239C366.24 79.6742 361.927 78.5173 358.289 76.1248C357.216 75.5027 355.944 75.3154 354.736 75.6015C349.612 75.829 344.693 75.3284 340.479 71.9156C339.232 71.1536 337.737 70.9086 336.312 71.233C331.274 71.8754 326.177 70.6267 322.009 67.7291C321.142 67.1389 320.139 66.7809 319.094 66.6892C318.049 66.5976 316.998 66.7755 316.042 67.2058C312.99 68.229 309.688 68.229 306.636 67.2058C298.369 64.9305 289.988 63.1331 281.584 61.1309C280.217 60.8123 278.372 60.9943 279.306 58.2868C279.693 57.1037 277.598 57.1719 276.687 57.2402C272.757 57.4277 268.825 56.9193 265.072 55.7385C264.041 55.6047 263.066 55.196 262.248 54.5554C261.634 54.0153 260.903 53.6268 260.111 53.4213C259.32 53.2158 258.492 53.199 257.693 53.3722C252.869 53.863 248.027 52.6296 244.028 49.8911C243.326 49.4427 242.54 49.1409 241.718 49.0041C240.896 48.8672 240.055 48.8981 239.245 49.0948C235.191 49.6863 231.479 48.1847 227.698 47.1835C225.854 46.6147 225.056 44.9083 223.849 43.8162Z" fill="#030303"/>
<path d="M386.325 83.5876V84.9073C384.697 85.8334 382.799 86.1709 380.95 85.8629C377.671 85.8629 377.329 87.3646 377.511 89.8218C377.407 89.9117 377.286 89.9802 377.155 90.0231C377.023 90.0661 376.885 90.0827 376.748 90.0722C376.61 90.0616 376.476 90.024 376.353 89.9615C376.23 89.899 376.121 89.8129 376.031 89.7081C375.097 87.8196 373.503 87.9334 371.772 88.2064L331.005 94.3041L221.549 110.618C204.263 113.189 187 115.805 169.736 118.354C167.974 118.967 166.056 118.967 164.293 118.354C163.633 117.921 163.678 117.489 164.293 117.102C165.382 116.137 166.778 115.589 168.233 115.555L324.423 92.2564L383.205 83.4966C384.236 83.2644 385.309 83.2957 386.325 83.5876Z" fill="#040404"/>
<path d="M376.373 89.799H377.557C375.826 92.0743 373.002 90.6864 370.975 91.642C370.315 91.9378 369.312 91.2325 368.857 92.3018H368.401C366.803 93.2748 364.967 93.7867 363.095 93.7807C323.148 99.6357 283.193 105.551 243.231 111.528C219.226 115.077 195.221 118.536 171.194 122.176C169.973 122.381 168.726 122.381 167.504 122.176C166.798 121.903 165.978 121.789 166.161 120.72C167.566 119.656 169.295 119.109 171.057 119.173C192.739 116.033 214.329 112.779 236.079 109.571L335.423 94.8729C347.79 93.0299 360.134 91.0732 372.546 89.3895C373.173 89.1617 373.844 89.0802 374.507 89.1512C375.17 89.2222 375.808 89.4438 376.373 89.799Z" fill="#040404"/>
<path d="M9.05969 86.7955L10.6084 87.3871L12.4987 118.968C12.4987 119.536 12.4987 120.538 12.2026 120.583C11.155 120.788 11.1094 119.9 11.1778 119.218C11.2581 114.504 11.0069 109.79 10.4262 105.111C10.0162 99.0136 10.4945 92.825 9.05969 86.7955Z" fill="#090909"/>
<path d="M2.59153 160.537H3.57085C4.05895 161.002 4.4104 161.591 4.58706 162.241C4.76372 162.89 4.75884 163.576 4.57294 164.223C4.03398 171.384 3.85914 178.568 4.04912 185.747C4.20001 187.181 4.01282 188.63 3.50252 189.979C3.43501 190.116 3.33718 190.235 3.21649 190.328C3.0958 190.421 2.95543 190.486 2.80608 190.516C2.65673 190.547 2.50233 190.543 2.35464 190.506C2.20695 190.468 2.06986 190.397 1.95383 190.298C1.65356 180.373 1.86641 170.44 2.59153 160.537Z" fill="#060606"/>
<path d="M1.95388 190.297H2.97875C4.28613 192.495 5.10915 194.946 5.39289 197.487C5.25624 197.964 5.05126 198.397 4.43634 198.351C2.76632 196.002 1.89607 193.178 1.95388 190.297Z" fill="#121212"/>
<path d="M31.0146 208.795L22.3829 206.861C22.679 205.451 23.8861 205.815 24.7971 205.633C27.1115 205.63 29.3925 206.184 31.4473 207.248C32.0622 207.908 31.7206 208.431 31.0146 208.795Z" fill="#444444"/>
<path d="M19.1262 205.859C16.7895 205.761 14.4833 205.292 12.2937 204.471C12.2499 204.315 12.2399 204.152 12.2644 203.992C12.2889 203.832 12.3473 203.679 12.4357 203.543C12.524 203.407 12.6404 203.292 12.777 203.205C12.9135 203.118 13.0671 203.061 13.2275 203.038C15.505 203.47 18.0785 203.038 19.8777 205.154C19.855 205.632 19.855 206.109 19.1262 205.859Z" fill="#484848"/>
<path d="M19.1261 205.86L19.8093 205.291C20.2009 204.997 20.6516 204.791 21.1303 204.688C21.6091 204.584 22.1046 204.586 22.5828 204.692C23.061 204.798 23.5106 205.006 23.9007 205.302C24.2908 205.598 24.6121 205.974 24.8426 206.406C24.0227 206.565 23.0889 206.133 22.3829 206.861C21.4264 206.156 19.9688 206.952 19.1261 205.86Z" fill="#606060"/>
<path d="M13.0226 203.47L12.4076 204.472C11.2234 204.218 10.139 203.625 9.28748 202.765C9.22877 202.712 9.18186 202.647 9.14976 202.574C9.11766 202.502 9.10107 202.423 9.10107 202.344C9.10107 202.265 9.11766 202.187 9.14976 202.114C9.18186 202.042 9.22877 201.977 9.28748 201.923C9.99208 201.686 10.7587 201.713 11.4454 201.997C12.1321 202.282 12.6924 202.805 13.0226 203.47Z" fill="#3E3E3E"/>
<path d="M9.35573 201.901V202.766C8.10311 202.766 7.46542 201.856 6.87327 200.923C6.8116 200.874 6.76179 200.811 6.72755 200.741C6.69332 200.67 6.67554 200.592 6.67554 200.513C6.67554 200.434 6.69332 200.357 6.72755 200.286C6.76179 200.215 6.8116 200.153 6.87327 200.104C8.46751 199.603 9.15076 200.354 9.35573 201.901Z" fill="#303030"/>
<path d="M31.0146 208.794L31.6296 207.77C32.2554 207.44 32.9751 207.332 33.6703 207.465C34.3656 207.597 34.9952 207.962 35.4558 208.498C35.4558 209.522 34.4992 209.022 34.112 209.409L31.0146 208.794Z" fill="#313131"/>
<path d="M6.87331 200.081V200.923C5.8623 200.326 5.06533 199.427 4.59583 198.352L5.14243 197.624C6.37227 197.851 6.82776 198.807 6.87331 200.081Z" fill="#161616"/>
<path d="M34.1119 209.409L35.4101 208.863C35.5304 208.739 35.6771 208.643 35.8393 208.582C36.0016 208.522 36.1753 208.499 36.3478 208.514C36.5202 208.529 36.6871 208.583 36.8362 208.671C36.9853 208.759 37.1127 208.879 37.2093 209.022L36.5944 210.024L34.1119 209.409Z" fill="#171717"/>
<path d="M223.849 43.8163C225.034 43.9756 226.696 43.475 226.377 45.6592C226.377 46.1598 226.628 46.3873 227.106 46.3873C231.433 46.3873 235.351 49.2769 240.02 47.9117C241.158 47.5932 244.575 46.8196 245.03 50.187C245.087 50.3102 245.172 50.418 245.279 50.5011C245.386 50.5843 245.512 50.6405 245.645 50.6648C249.972 50.6648 253.912 53.6909 258.536 52.121C259.697 51.7342 262.088 51.4156 262.453 54.0549C262.453 54.6465 263.341 54.2597 263.774 54.419C269.468 56.5577 275.594 55.4883 281.356 56.9445C281.633 57.0674 281.899 57.2119 282.153 57.3768C281.698 58.7647 279.602 57.8091 279.466 59.4245C290.01 62.0866 300.555 64.8396 311.146 67.2969C312.626 67.6382 314.425 66.5006 316.088 66.2048C318.821 65.727 321.872 64.3163 323.262 68.48C323.262 68.7076 324.196 68.6166 324.651 68.7758C329.684 70.596 334.968 70.2775 340.161 70.6188C341.231 70.6188 342.256 70.6188 341.755 72.2797C341.55 73.0078 342.119 73.0761 342.689 73.0988C347.244 73.3946 351.411 76.0566 356.194 74.4867C357.105 74.1682 359.383 73.8269 359.155 76.3752C359.155 76.5117 359.565 76.7847 359.793 76.8075C363.095 76.8075 366.147 79.0827 369.313 78.5594C373.868 77.8313 377.853 79.5605 382.613 80.1976C380.6 81.2308 378.363 81.7543 376.099 81.722C366.557 83.3375 356.991 84.7253 347.403 86.0905C336.904 87.6149 326.382 88.9573 315.905 90.5045C305.429 92.0517 294.975 93.8036 284.499 95.3508C275.389 96.6932 266.279 97.8536 257.169 99.196C248.059 100.538 238.949 102.063 229.976 103.405C221.003 104.748 211.756 105.908 202.646 107.25C193.536 108.593 184.699 110.072 175.635 111.391C171.781 111.66 167.966 112.323 164.248 113.371L7.03271 77.5128C13.8652 76.671 20.5154 75.7381 27.1429 74.6687C34.3626 73.4856 41.605 72.3935 48.8474 71.2103L70.8707 67.752L92.279 64.3846L118.538 60.2209C126.965 58.9012 135.437 57.6498 143.887 56.3302L169.827 52.212L191.259 48.8901L216.926 44.9312L223.849 43.8163Z" fill="#CAD0F1"/>
<path d="M163.337 205.837C163.337 202.219 163.337 198.602 163.337 195.007C163.337 193.96 163.496 193.528 164.566 193.391C173.995 192.185 183.401 190.98 192.807 189.66C202.213 188.34 211.938 186.793 221.504 185.451C229.611 184.313 237.719 183.357 245.804 182.22C253.889 181.082 262.157 179.808 270.333 178.648C276.778 177.738 283.269 176.941 289.714 176.031C298.095 174.848 306.454 173.619 314.767 172.459C321.349 171.549 327.931 170.73 334.512 169.82C342.689 168.682 350.865 167.544 359.018 166.339C364.575 165.542 370.178 165.087 375.667 163.745C377.511 163.312 377.58 164.928 377.557 166.02C377.557 171.822 378.582 177.556 378.195 183.357C378.145 187.485 378.358 191.612 378.832 195.712C378.87 197.243 378.52 198.759 377.816 200.119C377.111 201.48 376.074 202.64 374.801 203.493C370.656 206.884 365.691 206.884 360.704 207.566C353.028 208.658 345.399 209.841 337.746 211.047C330.094 212.253 322.647 213.323 314.972 214.392L292.06 217.85L269.285 221.195L246.351 224.699C238.79 225.814 231.228 226.974 223.576 228.021C215.924 229.067 208.089 230.433 200.346 231.57C192.602 232.708 185.223 233.845 177.571 234.846C174.155 235.347 170.738 235.779 167.322 236.485C165.045 236.985 163.633 236.871 163.769 233.891C164.749 224.608 163.746 215.234 163.337 205.837Z" fill="#737AA5"/>
<path d="M37.2094 209.022L35.4102 208.863C34.4081 207.612 32.7 208.863 31.6296 207.771C29.4069 207.076 27.1166 206.618 24.7971 206.406C23.2402 205.71 21.5601 205.331 19.855 205.291L13.0225 203.471L9.37855 201.901C8.76971 201.042 7.89873 200.403 6.89609 200.081L5.00577 197.623C3.96308 195.299 3.287 192.828 3.00159 190.297C3.29766 180.377 2.79661 170.434 3.59373 160.537L3.82148 158.443L50.1911 168.591L94.3971 178.329L143.932 189.159C149.376 190.342 154.773 191.685 160.239 192.709C162.016 193.027 162.517 193.846 162.517 195.348C162.517 196.076 162.517 196.804 162.517 197.623C162.714 209.091 162.934 220.543 163.177 231.98C163.177 233.732 163.451 235.461 163.633 237.508C150.332 234.46 137.191 231.434 124.027 228.407C106.149 224.403 88.2707 220.467 70.3924 216.485C60.5081 214.21 50.6466 211.935 40.7851 209.796C39.578 209.386 38.3026 209.705 37.2094 209.022Z" fill="#989FC9"/>
<path d="M167.527 121.448C174.36 120.538 181.192 119.696 188.161 118.718C195.905 117.603 203.648 116.442 211.414 115.214L234.69 111.71L257.465 108.388C265.322 107.205 273.157 105.954 281.014 104.793C288.872 103.633 296.365 102.677 304.04 101.54C311.715 100.402 319.344 99.2643 326.997 98.0584C334.649 96.8525 342.529 95.7832 350.318 94.7365C356.376 93.8492 362.366 92.4613 368.538 92.2338C367.172 102.086 368.538 112.051 367.331 121.812C367.172 123.063 367.126 123.632 365.532 123.86C354.44 125.361 343.372 127.045 332.303 128.752C320.551 130.549 308.822 132.506 297.048 134.28C285.273 136.055 273.43 137.489 261.656 139.332C247.786 141.607 233.893 143.609 219.978 145.543C207.588 147.249 195.221 149.183 182.855 151.095C178.026 151.823 173.221 152.665 168.415 153.506C166.138 153.939 165.045 153.506 165.022 150.617C165.022 141.652 165.5 132.665 164.68 123.678C164.73 123.074 164.876 122.483 165.113 121.926C165.614 121.175 166.776 122.153 167.527 121.448Z" fill="#737AA5"/>
<path d="M376.373 89.7991L356.399 92.6432L333.624 96.0333C325.767 97.1937 317.91 98.4223 310.052 99.5599C302.195 100.698 294.725 101.721 287.05 102.859C279.375 103.997 271.768 105.134 264.115 106.363L245.645 109.048C237.97 110.14 230.295 111.323 222.642 112.37C214.99 113.416 207.338 114.645 199.663 115.851C191.987 117.057 184.289 117.967 176.637 119.104C173.107 119.605 169.622 120.31 166.115 120.925C165.868 121.165 165.537 121.3 165.193 121.3C164.848 121.3 164.517 121.165 164.27 120.925V118.354L184.494 115.259C192.124 114.076 199.754 112.87 207.406 111.733C215.058 110.595 222.506 109.457 230.181 108.433L252.956 105.089L275.867 101.608L298.642 98.3085L321.895 94.7819L349.088 90.6637C357.538 89.3895 365.987 88.0244 374.46 86.8185C376.487 86.4772 376.692 88.0471 376.373 89.7991Z" fill="#FEFEFE"/>
<path d="M386.325 83.5879C381.711 84.7671 377.013 85.5961 372.273 86.068C364.462 87.3876 356.604 88.5252 348.747 89.6856C340.89 90.846 333.602 91.8016 325.972 92.9392C318.342 94.0769 310.667 95.2145 303.015 96.4659C295.363 97.7173 288.097 98.6274 280.627 99.7422L257.42 103.246L235.055 106.545C227.22 107.728 219.363 109.003 211.528 110.186C204.354 111.278 197.203 112.302 190.029 113.348L164.362 117.102V114.031L183.994 111.21L202.714 108.434C210.549 107.251 218.384 106.022 226.241 104.862C234.098 103.701 241.363 102.586 249.016 101.608C256.668 100.63 264.525 99.3327 272.292 98.1268C280.058 96.9209 287.619 95.8515 295.271 94.7822L318.525 91.2783L340.981 87.9564L364.826 84.3615C370.77 83.4742 376.714 82.5868 382.681 81.7677C384.253 81.563 385.938 81.4492 386.325 83.5879Z" fill="#FEFEFE"/>
<path d="M373.936 162.88C368.994 163.699 364.165 164.45 359.36 165.315C356.9 165.747 354.805 165.77 353.507 163.04C352.209 160.309 349.476 160.218 346.97 159.786C341.869 158.876 336.995 156.783 331.757 156.874C328.955 156.874 326.655 157.465 324.378 154.462C322.1 151.459 317.91 152.187 314.493 151.254C309.255 149.957 303.994 148.546 298.551 149.934C297.936 150.093 296.957 150.366 296.547 149.638C293.905 144.906 288.849 145.657 284.727 144.451C279.4 142.581 273.677 142.134 268.124 143.154C267.087 143.324 266.024 143.201 265.054 142.799C264.084 142.397 263.246 141.732 262.635 140.879C270.606 137.989 278.441 139.513 286.435 141.447C308.959 146.931 331.552 152.096 354.144 157.374C359.861 158.717 365.532 159.922 371.294 161.31C372.137 161.583 373.389 161.538 373.936 162.88Z" fill="#FEFEFE"/>
<path d="M274.683 158.739C276.96 155.44 280.491 154.621 283.793 153.802C288.097 152.733 292.356 150.753 297.002 151.845C305.065 148.341 312.512 152.755 320.21 153.711C321.266 153.857 322.274 154.248 323.151 154.852C324.029 155.457 324.754 156.258 325.266 157.192C318.902 158.069 312.644 159.594 306.591 161.743C305.362 162.214 304.211 162.866 303.174 163.677C302.4 164.268 301.603 165.042 302.446 166.202L302.058 166.475C299.781 166.794 297.503 165.565 295.226 165.246C293.861 164.879 292.435 164.794 291.035 164.996C289.582 165.156 288.116 165.156 286.663 164.996C286.35 164.93 286.05 164.815 285.774 164.655C283.825 162.575 281.236 161.206 278.418 160.764C277.074 160.377 275.548 160.423 274.524 159.24L274.683 158.739Z" fill="#FEFEFE"/>
<path d="M244.916 151.913C246.099 150.181 247.858 148.924 249.881 148.364C257.522 145.507 265.593 143.968 273.749 143.813C280.195 143.677 286.275 146.089 292.493 147.454C293.837 147.75 294.338 148.933 295.795 150.07C291.21 150.716 286.681 151.704 282.244 153.028C279.872 153.591 277.63 154.602 275.64 156.009C274.797 156.714 273.658 157.328 274.751 158.694C273.613 159.786 272.474 158.967 271.267 158.694C268.736 157.851 266.075 157.465 263.409 157.556C261.132 157.374 258.854 158.261 256.577 157.897C254.307 155.721 251.434 154.279 248.332 153.756C247.101 153.704 245.929 153.211 245.03 152.368L244.916 151.913Z" fill="#FEFEFE"/>
<path d="M302.536 166.179C306.089 161.628 311.51 161.287 316.406 160.013C320.582 159.14 324.801 158.494 329.046 158.079C334.08 157.374 338.726 159.308 343.531 160.127C345.125 160.4 346.697 160.832 348.268 161.151C349.562 161.396 350.77 161.975 351.773 162.828C352.775 163.682 353.537 164.782 353.985 166.02L320.711 170.57C318.433 170.889 316.156 171.367 313.878 171.776C311.496 169.875 308.679 168.593 305.679 168.045C304.609 167.703 302.878 168.045 302.741 166.156L302.536 166.179Z" fill="#FEFEFE"/>
<path d="M212.69 175.462H207.861C207.727 175.573 207.558 175.634 207.383 175.634C207.209 175.634 207.04 175.573 206.905 175.462C204.74 173.538 202.069 172.275 199.207 171.822C197.954 171.435 196.383 171.298 196.201 169.547C196.019 167.795 197.522 167.067 198.843 166.543C202.953 165.217 207.201 164.362 211.505 163.995C216.06 163.267 220.502 162.971 224.943 162.22C231.393 163.386 237.738 165.076 243.914 167.271C245.03 167.613 245.987 168.227 246.009 169.547C245.981 169.886 245.855 170.21 245.645 170.479C241.409 172.254 236.763 171.867 232.39 172.982C229.247 173.801 225.785 173.824 223.667 176.918C223.391 177.235 223.021 177.454 222.611 177.544C222.201 177.634 221.773 177.59 221.39 177.419C218.52 176.736 215.537 176.418 212.69 175.462Z" fill="#FEFEFE"/>
<path d="M116.557 180.377C115.897 181.037 115.555 181.788 114.143 181.469C105.944 179.543 97.7374 177.738 89.5232 176.054C87.7012 175.69 87.8834 174.712 87.929 173.506C88.2023 171.094 90.2065 170.798 91.9601 170.32C97.144 169.044 102.422 168.184 107.743 167.749C110.626 167.003 113.625 166.81 116.58 167.181C122.296 168.705 127.967 170.161 133.752 171.731C135.041 171.97 136.24 172.56 137.214 173.437C136.872 175.349 135.278 175.303 133.889 175.508C130.336 176.031 126.76 176.486 123.253 177.283C120.814 177.792 118.524 178.85 116.557 180.377Z" fill="#FEFEFE"/>
<path d="M206.996 175.372H207.861C203.99 175.986 200.095 176.532 196.223 177.192C193.149 177.738 190.074 178.398 187.114 179.103C186.339 179.285 185.314 179.649 185.018 180.241C183.583 183.039 181.397 182.243 179.37 181.492C175.179 179.922 171.034 181.06 166.867 181.492C166.661 181.24 166.541 180.929 166.525 180.605C166.388 179.308 165.318 179.058 164.248 178.694C163.177 178.33 161.72 177.829 160.421 177.442C159.123 177.055 156.504 176.919 156.618 174.621C156.732 172.323 158.895 172.073 160.512 171.64C167.349 170.145 174.27 169.066 181.238 168.409C182.559 168.25 183.879 168 185.2 167.841C192.033 168.705 198.182 171.413 204.627 173.324C205.634 173.705 206.474 174.431 206.996 175.372Z" fill="#FEFEFE"/>
<path d="M56.4313 166.748C55.7481 167.863 55.452 168.636 53.4706 168.136C45.5905 166.156 37.5282 164.7 29.6253 162.971C28.6916 162.766 27.234 162.971 27.3478 161.242C27.6895 158.557 29.8075 157.875 31.9028 157.306C37.0075 156.138 42.1797 155.287 47.3897 154.757C50.3277 154.325 53.3112 154.098 56.2264 153.597C62.7062 154.766 69.081 156.455 75.2889 158.648C75.7576 158.715 76.1938 158.927 76.5367 159.253C76.8795 159.579 77.1121 160.004 77.202 160.468C76.8604 162.152 75.4939 162.357 74.173 162.539C68.0649 162.94 62.0676 164.362 56.4313 166.748Z" fill="#FEFEFE"/>
<path d="M166.889 180.787V181.515C160.743 182.102 154.651 183.167 148.67 184.7C148.1 184.882 147.303 184.905 146.984 185.292C144.479 188.409 141.495 187.362 138.375 186.611C131.702 185.041 124.984 183.654 118.265 182.266C117.422 182.084 117.286 181.72 117.354 181.06C117.627 178.967 119.199 178.307 120.93 177.761C124.863 176.684 128.877 175.923 132.932 175.485C137.487 174.78 141.792 173.984 146.255 173.46C153.088 174.211 159.192 177.01 165.637 178.898C166.275 179.103 167.368 179.467 166.889 180.787Z" fill="#FEFEFE"/>
<path d="M176.797 167.203C174.519 164.769 171.262 165.087 168.598 163.813C167.983 163.517 166.776 164.2 166.73 162.903C166.685 161.606 167.482 161.31 168.347 160.878C171.069 159.783 173.926 159.063 176.842 158.739C182.855 157.715 188.89 156.873 195.062 156.305C197.085 156.304 199.089 156.699 200.961 157.465C206.017 159.058 211.392 159.74 216.061 162.379C215.582 164.222 213.92 164.04 212.576 164.2C208.692 164.617 204.837 165.263 201.029 166.134C199.992 166.224 198.989 166.549 198.097 167.085C197.205 167.622 196.447 168.355 195.882 169.228C195.222 170.525 194.174 169.956 193.172 169.751C190.558 168.843 187.828 168.314 185.064 168.181C183.083 168.727 181.01 168.295 179.006 168.909C177.548 169.433 177.002 168.454 176.797 167.203Z" fill="#FEFEFE"/>
<path d="M26.6874 160.536C26.4141 161.788 25.6398 162.038 24.4099 161.788C18.6251 160.491 12.8175 159.262 7.07825 157.647C21.2442 155.713 35.4102 153.802 49.5761 151.822C63.7421 149.843 78.4319 147.704 92.8484 145.611C97.8816 144.883 102.869 143.927 107.903 143.199C110.627 142.975 113.362 143.477 115.828 144.655C113.232 145.247 110.909 145.77 108.609 146.339C108.297 146.38 108.009 146.525 107.789 146.748C104.35 151.731 100.227 148.205 96.4013 147.681C95.9686 147.681 95.6269 147.499 95.3309 147.909C93.0534 149.774 90.2748 149.092 87.7468 149.501C82.3947 150.366 76.9743 150.821 71.6905 152.118C70.6201 152.391 69.1625 152.323 68.5248 153.165C65.8374 156.759 62.6489 155.121 59.4149 154.393C58.3672 154.143 57.2968 153.529 56.1353 153.984C48.1037 154.736 40.1149 155.89 32.1989 157.442C30.0626 157.816 28.1181 158.908 26.6874 160.536Z" fill="#FEFEFE"/>
<path d="M137.715 172.8C135.437 170.252 131.976 170.525 129.197 169.319C128.446 168.955 127.125 169.319 127.147 168.045C127.17 166.771 128.263 166.543 129.083 166.27C133.35 164.96 137.737 164.075 142.179 163.631C146.324 163.062 150.446 162.471 154.591 161.97C157.531 161.913 160.449 162.479 163.154 163.631C167.573 164.973 172.264 165.428 176.296 167.954C175.794 169.82 174.155 169.638 172.811 169.797C168.84 170.205 164.9 170.866 161.014 171.776C159.807 172.072 158.281 172.209 157.666 173.21C155.798 176.372 153.27 175.121 150.833 174.598C149.307 173.934 147.642 173.653 145.982 173.779C144.001 174.302 141.928 173.779 139.924 174.507C138.466 175.007 137.943 174.029 137.715 172.8Z" fill="#FEFEFE"/>
<path d="M216.47 161.629C214.193 159.058 210.572 159.354 207.679 158.126C206.973 157.807 205.903 158.126 205.903 156.897C205.903 155.668 206.791 155.532 207.52 155.259C211.859 153.891 216.321 152.946 220.843 152.437C225.194 152.097 229.516 151.458 233.779 150.526C236.057 149.184 238.22 150.526 240.27 151.14C244.506 152.301 248.651 153.712 252.842 155.031C253.912 155.372 255.415 155.577 255.119 157.306C253.047 159.582 250.131 158.831 247.581 159.331C244.666 159.9 241.728 160.378 238.858 161.174C238.357 161.311 237.674 161.174 237.423 161.652C234.645 165.657 231.114 163.563 227.767 162.904C226.818 162.5 225.769 162.397 224.76 162.608C222.779 163.154 220.706 162.608 218.725 163.336C217.222 163.859 216.698 162.881 216.47 161.629Z" fill="#FEFEFE"/>
<path d="M95.4903 148.614C101.23 150.139 106.878 151.595 112.663 153.165C113.949 153.412 115.145 154.002 116.124 154.871C115.783 156.805 114.188 156.737 112.799 156.942C108.806 157.392 104.843 158.083 100.934 159.012C99.1485 159.243 97.5191 160.146 96.3786 161.538C95.5131 162.789 94.3288 162.584 93.0534 162.357C90.7011 161.586 88.241 161.195 85.7655 161.196C83.078 160.764 80.3223 162.675 77.6576 160.946C76.2911 158.261 73.3759 158.443 71.0985 157.465C69.4814 156.782 66.7712 157.237 66.7257 154.962C66.6801 152.687 69.2992 152.323 71.144 151.913C79.1595 150.173 87.3004 149.07 95.4903 148.614Z" fill="#FEFEFE"/>
<path d="M86.9497 172.96C86.9497 174.757 86.722 175.463 84.3989 174.894C75.5623 172.778 66.6345 171.049 57.7523 169.183C57.0691 169.024 57.0691 168.523 57.0691 168.022C57.2968 166.088 58.7317 165.338 60.3487 164.814C66.086 163.344 71.9249 162.302 77.817 161.697C80.5272 161.265 83.283 161.015 86.0159 160.833C92.4182 161.743 98.718 163.267 104.828 165.383C105.693 165.679 106.787 166.043 106.627 167.181C106.468 168.318 105.329 168.432 104.35 168.5C101.48 168.773 98.656 169.274 95.8091 169.729C92.6539 170.141 89.6288 171.244 86.9497 172.96Z" fill="#FEFEFE"/>
<path d="M125.257 155.44C132.224 156.961 139.034 159.132 145.595 161.925C143.317 162.289 141.04 162.584 138.762 163.017C135.688 163.586 132.613 164.245 129.653 164.882C129.246 164.935 128.865 165.109 128.559 165.383C125.303 169.797 121.454 166.93 117.787 166.293C117.354 166.293 117.012 166.111 116.716 166.521C113.186 167.271 109.77 169.114 106.172 166.202C104.012 165.013 101.648 164.241 99.2025 163.927C98.1549 163.608 96.7884 163.449 96.7201 162.016C96.6517 160.582 97.9727 159.922 99.1114 159.536C102.739 158.379 106.48 157.616 110.271 157.26C114.826 156.737 119.153 155.463 123.686 155.304C124.212 155.202 124.756 155.249 125.257 155.44Z" fill="#FEFEFE"/>
<path d="M312.557 171.685L275.935 176.782C271.995 175.781 268.306 174.052 264.548 172.732C262.658 172.072 262.885 170.206 264.89 169.001C267.742 167.613 270.835 166.786 274 166.566C279.784 165.61 285.592 164.996 291.422 164.587C293.364 164.412 295.319 164.717 297.116 165.474C301.671 166.566 306.226 167.749 310.644 169.342C311.555 169.66 313.309 169.774 312.557 171.685Z" fill="#FEFEFE"/>
<path d="M273.476 177.283C266.803 178.125 260.13 178.921 253.457 179.808C247.512 180.628 241.568 181.538 235.624 182.425C232.542 181.005 229.351 179.834 226.081 178.921C225.102 178.694 224.054 178.216 224.077 176.919C224.1 175.622 225.011 175.076 225.945 174.644C228.789 173.416 231.81 172.648 234.895 172.368C240.908 171.618 246.852 170.457 252.865 169.684C259.697 170.525 265.915 173.256 272.383 175.258C273.203 175.531 274.25 176.054 273.476 177.283Z" fill="#FEFEFE"/>
<path d="M233.779 182.88C228.245 183.608 222.688 184.313 217.154 185.155C210.686 186.065 204.24 187.021 197.772 187.908C197.271 187.908 196.52 188.068 196.269 187.908C193.65 184.905 189.733 184.996 186.362 183.745C185.702 183.494 184.859 183.585 184.813 182.653C184.768 181.72 185.451 181.401 186.111 181.105C189.11 179.865 192.283 179.097 195.517 178.83C200.756 178.102 206.039 177.556 211.3 176.873C211.793 176.732 212.261 176.517 212.69 176.236C214.717 175.349 216.493 176.555 218.338 176.942C222.911 177.97 227.42 179.261 231.843 180.81C232.777 180.832 234.554 180.923 233.779 182.88Z" fill="#FEFEFE"/>
<path d="M145.436 188.135C147.166 185.428 149.831 185.269 152.063 184.882C159.344 183.376 166.716 182.35 174.132 181.81C178.687 181.605 183.356 183.812 187.911 185.2C190.484 185.582 192.928 186.573 195.039 188.09L179.279 190.365C176.364 190.775 173.403 190.979 170.533 191.639C162.676 193.459 155.57 189.91 148.123 188.795C147.394 188.613 146.574 188.386 145.436 188.135Z" fill="#FEFEFE"/>
<path d="M185.018 156.578C179.886 156.989 174.801 157.865 169.827 159.195C168.005 159.695 166.229 160.219 165.591 162.266C165.295 163.199 164.976 162.881 164.293 162.653C159.356 160.767 153.958 160.442 148.829 161.72C148.538 161.816 148.23 161.845 147.926 161.805C147.623 161.766 147.332 161.659 147.075 161.493C144.798 158.74 141.222 158.945 138.33 157.67C137.669 157.375 136.485 158.012 136.348 156.806C136.212 155.6 137.191 154.986 138.148 154.531C141.027 153.574 143.984 152.866 146.984 152.415C151.79 151.345 156.208 153.279 160.649 154.44C165.09 155.6 168.78 154.44 172.788 153.962C175.066 153.734 177.343 153.211 179.461 153.074C180.633 153.033 181.79 153.345 182.781 153.97C183.772 154.595 184.552 155.504 185.018 156.578Z" fill="#FEFEFE"/>
<path d="M163.473 121.448C155.297 119.628 147.121 117.876 138.968 115.964C125.098 112.734 111.273 109.366 97.4034 106.158C96.0825 105.862 95.3309 105.726 95.5814 104.156C95.8319 102.586 97.1984 102.904 98.1778 103.132C119.131 108.024 140.084 112.961 161.059 117.807C161.797 117.938 162.463 118.33 162.935 118.91C163.408 119.491 163.655 120.222 163.633 120.97L164.02 121.357L163.473 121.448Z" fill="#FDFDFD"/>
<path d="M116.625 154.189C114.485 151.914 111.296 152.073 108.7 150.89C107.994 150.594 106.604 151.299 106.582 149.843C106.559 148.387 107.584 148.046 108.518 147.568C111.386 146.564 114.357 145.885 117.377 145.543C123.185 144.792 128.423 147.545 134.003 148.273C134.895 148.432 135.778 148.645 136.644 148.91C134.149 149.562 131.605 150.011 129.038 150.253C131.819 151.131 134.798 151.171 137.601 150.367C140.302 149.717 143.146 150.056 145.618 151.322C143.139 151.85 140.691 152.511 138.284 153.302C138.075 153.336 137.887 153.45 137.76 153.62C134.321 158.603 130.199 155.076 126.373 154.53C125.94 154.53 125.599 154.371 125.303 154.781C123.207 156.305 120.748 155.304 118.47 156.032C117.126 156.328 116.853 155.076 116.625 154.189Z" fill="#FEFEFE"/>
<path d="M226.263 150.366C220.797 151.321 215.741 152.141 210.708 153.119C208.431 153.574 205.766 153.961 204.65 156.6C204.126 157.851 203.284 156.828 202.965 156.737C198.369 155.081 193.371 154.89 188.662 156.19C185.519 157.078 185.451 153.21 183.151 152.505C189.983 151.458 196.816 150.389 203.648 149.365C208.406 148.924 213.135 148.218 217.814 147.249C221.617 146.293 223.622 148.091 226.263 150.366Z" fill="#FEFEFE"/>
<path d="M4.50472 81.1301C9.05969 82.1312 13.9791 83.2006 18.8984 84.361C30.9008 87.1823 42.8804 90.0719 54.8827 92.8932C55.7202 93.0093 56.5088 93.3559 57.1602 93.8943C55.6343 93.8943 56.4997 96.7839 53.8806 96.1696C39.8741 92.7339 25.7537 89.5941 11.6788 86.4997L3.91257 84.7933C2.45498 84.4975 2.29555 83.5192 2.31833 82.2678C2.3411 81.0164 3.22932 81.0619 4.50472 81.1301Z" fill="#FDFDFD"/>
<path d="M233.779 150.048C233.779 150.048 233.574 150.048 233.483 150.048C229.543 150.708 225.968 150.389 223.781 146.521C234.599 144.838 245.645 143.063 256.736 141.448C257.97 141.065 259.293 141.078 260.519 141.486C261.745 141.895 262.812 142.677 263.569 143.723C258.512 144.545 253.557 145.903 248.788 147.773C247.08 148.524 244.233 148.797 245.007 152.073C242.73 153.12 240.794 151.299 238.63 151.163C237.037 150.697 235.417 150.324 233.779 150.048Z" fill="#FEFEFE"/>
<path d="M58.7544 98.2401C64.4314 99.4074 70.2009 100.07 75.995 100.22C80.8249 100.247 85.6527 100.011 90.457 99.5142C90.9579 99.4252 91.4524 99.3036 91.9374 99.1502C94.4426 98.5358 95.4675 99.4004 94.8298 102.017C94.3106 104.545 94.142 107.133 94.3287 109.707C94.3287 111.505 93.5088 111.983 92.0512 112.142C90.5937 112.301 89.4777 111.573 89.5005 109.867C89.523 109.556 89.523 109.244 89.5005 108.934C89.2499 102.995 89.2499 103.2 83.0552 103.428C75.1567 103.964 67.2226 103.574 59.4149 102.267C59.2099 102.267 59.0049 102.267 58.7999 102.267C58.0906 102.134 57.4593 101.734 57.0357 101.15C56.6121 100.566 56.4285 99.8424 56.5225 99.1274C56.6363 96.4198 58.5722 100.174 58.7544 98.2401Z" fill="#FDFDFD"/>
<path d="M162.972 117.17C141.23 111.983 119.563 106.84 97.9726 101.744C96.7428 101.471 95.6951 101.425 96.1506 99.8327C96.6061 98.24 97.5855 99.4914 98.4281 99.6734C119.335 104.451 140.243 109.298 161.196 113.871C163.655 114.417 163.132 115.464 162.972 117.17Z" fill="#FDFDFD"/>
<path d="M63.6055 92.0742C58.094 93.8944 53.2657 91.2324 48.3464 90.163C33.9071 87.0232 19.5817 83.3373 5.23354 79.9926H4.61862C3.43432 79.7424 1.20239 80.6297 1.45291 78.764C1.70344 76.8983 3.9126 77.8994 5.16521 78.218C23.9165 82.4803 42.6602 86.7653 61.3964 91.0731C62.185 91.277 62.9325 91.6157 63.6055 92.0742Z" fill="#FDFDFD"/>
<path d="M89.5232 97.581C78.5399 99.5083 67.2587 98.8618 56.568 95.6926C61.5438 92.9888 67.3495 92.2344 72.852 93.5766C78.3863 95.01 83.9662 96.2614 89.5232 97.581Z" fill="#FDFDFD"/>
<path d="M116.625 154.189C117.217 154.894 117.582 156.055 118.903 155.509C120.953 154.621 123.162 155.167 125.234 154.735V155.44C120.717 156.34 116.156 157.001 111.569 157.42C107.256 157.959 102.997 158.865 98.8382 160.127C97.9044 160.446 96.6974 160.855 96.7657 162.107C96.834 163.358 98.2005 162.926 99.0432 163.29C102.027 164.632 105.739 164.314 108.153 167.203C108.41 167.371 108.702 167.476 109.006 167.512C109.31 167.547 109.619 167.512 109.907 167.408C112.159 166.964 114.444 166.705 116.739 166.635V167.34C112.264 168.26 107.74 168.921 103.188 169.319C99.1885 169.825 95.2253 170.585 91.3225 171.595C90.6631 171.686 90.0317 171.921 89.473 172.283C88.9142 172.644 88.4416 173.124 88.0885 173.688L87.1091 173.096C89.1589 170.002 92.6434 170.07 95.6725 169.41C98.7015 168.751 102.3 168.478 105.602 168C106.122 167.795 106.618 167.536 107.083 167.226C100.304 164.765 93.3739 162.743 86.3348 161.174C86.0159 160.969 85.9932 160.719 86.3348 160.446C88.7767 160.512 91.1918 160.973 93.4861 161.811C94.4654 162.084 95.4675 162.494 96.2646 160.855C97.0617 159.217 99.5442 158.58 101.503 158.216C105.535 157.275 109.63 156.629 113.756 156.282C114.258 156.319 114.761 156.225 115.216 156.01C115.671 155.794 116.062 155.465 116.352 155.054L116.625 154.189Z" fill="#060606"/>
<path d="M67.8871 104.702C73.5353 104.702 79.1606 104.702 84.8088 104.702C85.5455 104.693 86.2716 104.877 86.9155 105.234C87.5595 105.592 88.0989 106.111 88.4806 106.741C88.8624 107.37 89.0732 108.088 89.0923 108.824C89.1113 109.56 88.938 110.288 88.5894 110.936C88.564 111.031 88.5188 111.12 88.4567 111.197C88.3946 111.274 88.317 111.337 88.229 111.382C88.1409 111.427 88.0444 111.454 87.9457 111.459C87.8469 111.464 87.7481 111.449 87.6557 111.414C81.051 109.366 74.1729 108.16 67.8871 104.702Z" fill="#FDFDFD"/>
<path d="M352.96 155.895C354.098 155.289 355.104 154.461 355.917 153.461C356.731 152.461 357.336 151.308 357.697 150.071C358.039 148.979 358.882 148.979 359.588 148.842C360.119 148.795 360.633 148.627 361.091 148.352C361.549 148.077 361.938 147.702 362.229 147.256C362.521 146.809 362.707 146.302 362.774 145.773C362.841 145.243 362.788 144.706 362.617 144.201C362.321 143.131 362.822 142.722 363.209 142.085C364.302 140.219 365.054 141.084 365.486 142.449C366.02 143.919 366.02 145.529 365.486 146.999C364.07 150.985 361.329 154.366 357.72 156.578C356.08 157.579 354.645 155.759 352.96 155.895Z" fill="#FDFDFD"/>
<path d="M333.579 151.367C334.692 150.884 335.687 150.166 336.497 149.263C337.307 148.36 337.912 147.293 338.27 146.134C338.635 144.928 339.5 144.655 340.548 144.428C342.643 143.973 343.964 142.585 343.508 140.537C343.331 139.769 343.394 138.965 343.687 138.233C343.98 137.501 344.49 136.876 345.148 136.442C347.312 139.058 347.289 141.811 345.148 145.361C341.686 151.026 338.953 152.528 333.579 151.367Z" fill="#FDFDFD"/>
<path d="M370.952 159.855C371.909 158.967 373.23 158.308 373.617 157.307C374.687 155.031 375.667 153.143 378.422 152.551C378.751 152.451 379.055 152.285 379.318 152.065C379.581 151.844 379.796 151.572 379.952 151.267C380.107 150.961 380.199 150.627 380.222 150.284C380.245 149.942 380.198 149.599 380.085 149.275C379.47 147.364 380.472 146.294 381.611 145.134C383.888 147.728 383.888 150.936 381.383 154.531C378.081 159.263 375.143 162.403 370.952 159.855Z" fill="#FDFDFD"/>
<path d="M146.255 173.324C147.576 172.664 148.806 173.506 149.991 173.756C152.632 174.302 154.751 175.599 157.483 172.8C160.216 170.002 164.544 170.753 168.142 169.774C170.852 169.046 173.927 170.093 176.296 167.954L176.797 167.203C177.366 167.908 177.753 169.069 179.074 168.523C181.124 167.635 183.333 168.204 185.428 167.749C185.499 167.8 185.556 167.87 185.592 167.949C185.628 168.029 185.642 168.117 185.633 168.204C185.633 168.386 185.588 168.477 185.497 168.477C180.98 169.379 176.419 170.04 171.832 170.457C167.5 170.949 163.218 171.809 159.032 173.028C158.121 173.346 156.914 173.756 156.96 174.984C157.005 176.213 158.326 175.895 159.237 176.168C161.72 176.987 164.225 177.76 166.639 178.716C166.798 178.716 169.873 179.603 167.026 180.786C166.366 178.943 164.521 178.966 163.086 178.511C157.575 176.918 152.018 175.508 146.483 173.961C146.005 173.779 145.982 173.597 146.255 173.324Z" fill="#070707"/>
<path d="M185.406 168.477V167.749C188.366 167.453 190.985 168.955 193.832 169.296C194.333 169.296 194.948 170.32 195.335 169.296C197.043 165.155 201.075 165.633 204.445 164.746C207.515 163.953 210.661 163.488 213.829 163.358C214.277 163.387 214.726 163.294 215.127 163.09C215.527 162.886 215.866 162.577 216.106 162.198L216.607 161.447C217.199 162.152 217.586 163.312 218.885 162.766C220.934 161.879 223.143 162.448 225.216 161.97C225.295 162.019 225.357 162.091 225.393 162.177C225.43 162.262 225.44 162.357 225.421 162.448C225.421 162.63 225.421 162.698 225.421 162.698C220.906 163.608 216.344 164.269 211.756 164.678C207.729 165.151 203.741 165.911 199.822 166.953C198.478 167.385 196.702 167.704 196.838 169.456C196.975 171.208 198.752 170.343 199.754 170.775C201.485 171.526 203.443 171.685 205.174 172.596C206.29 173.164 207.452 173.528 207.247 175.144C201.644 171.549 195.017 171.048 189.027 169.001C187.615 168.887 186.499 168.728 185.406 168.477Z" fill="#070707"/>
<path d="M233.779 182.879C234.053 181.332 232.595 181.309 231.866 181.082C225.581 179.021 219.177 177.342 212.69 176.054V175.576C215.354 174.552 217.677 176.145 220.137 176.6C221.663 176.895 223.007 177.737 224.009 175.394C224.669 173.847 226.856 173.46 228.564 173.118C234.235 172.095 239.951 171.298 245.645 170.411C246.662 169.684 247.843 169.221 249.083 169.062C250.323 168.903 251.583 169.054 252.751 169.501C252.834 169.537 252.908 169.59 252.969 169.657C253.031 169.723 253.078 169.801 253.108 169.887C253.138 169.972 253.15 170.063 253.143 170.153C253.137 170.243 253.112 170.331 253.07 170.411C248.554 171.316 243.992 171.969 239.405 172.368C235.082 172.869 230.808 173.729 226.628 174.939C225.58 175.303 224.35 175.803 224.35 177.214C224.35 178.625 226.013 178.192 226.628 178.42C229.794 179.375 233.164 179.762 235.465 182.538C235.123 182.993 234.44 182.879 233.779 182.879Z" fill="#070707"/>
<path d="M253.001 170.343V169.592C254.436 167.908 256.053 169.16 257.556 169.592C259.834 170.07 262.111 170.752 263.91 168.318C264.503 167.521 265.71 167.362 266.712 167.066C272.125 165.793 277.608 164.836 283.132 164.2C284.385 163.995 285.41 164.791 286.731 164.404H291.582C291.779 164.526 291.848 164.639 291.787 164.746C291.787 164.746 291.65 164.905 291.582 164.905C287.312 165.845 282.982 166.491 278.623 166.839C274.369 167.309 270.159 168.108 266.028 169.228C264.981 169.569 263.751 169.91 263.614 171.23C263.478 172.55 265.163 172.322 265.892 172.527C269.452 173.304 272.831 174.756 275.844 176.804C275.161 177.555 274.227 177.237 273.385 177.305C273.111 175.03 271.107 175.303 269.741 174.893C264.275 173.21 258.627 171.822 253.001 170.343Z" fill="#070707"/>
<path d="M95.4903 148.614C90.9757 149.527 86.4136 150.188 81.8254 150.594C77.7028 151.063 73.6269 151.877 69.6409 153.028C68.4794 153.415 66.999 153.688 66.9534 155.099C66.9079 156.509 68.6843 156.123 69.5953 156.509C71.2351 157.26 73.1027 157.465 74.788 158.079C76.0406 158.512 77.5665 158.807 77.8398 160.537C77.7918 160.607 77.7272 160.665 77.6518 160.704C77.5764 160.744 77.4924 160.765 77.4071 160.765C77.3218 160.765 77.2378 160.744 77.1624 160.704C77.087 160.665 77.0225 160.607 76.9744 160.537C71.554 157.51 65.3592 156.873 59.5744 154.962C58.5267 154.621 57.4108 154.462 56.3176 154.211C55.9987 154.007 55.976 153.756 56.3176 153.483C57.6671 153.305 59.0397 153.478 60.3032 153.984C62.8312 154.575 64.8582 155.759 67.4773 152.983C70.0964 150.207 74.0364 150.707 77.4982 150.07C83.4197 149.092 89.4095 148.614 95.3765 147.795L95.4903 148.614Z" fill="#070707"/>
<path d="M344.192 154.007C346.624 152.613 348.475 150.393 349.407 147.75C349.612 147.182 350.045 146.681 350.842 147.136C351.184 147.318 351.639 147.295 351.958 147.5C353.438 148.41 356.285 147.068 356.513 149.935C356.65 151.778 353.188 154.69 350.979 154.94C348.683 154.956 346.398 154.642 344.192 154.007Z" fill="#FDFDFD"/>
<path d="M325.038 149.548C326.725 148.495 328.156 147.08 329.229 145.407C329.889 144.519 329.684 142.631 330.891 142.699C332.894 142.957 334.855 143.477 336.722 144.246C337.564 144.542 337.337 145.429 337.086 146.135C336.588 147.431 335.721 148.553 334.592 149.361C333.462 150.17 332.12 150.63 330.732 150.685C329.138 150.458 327.475 149.98 325.038 149.548Z" fill="#FDFDFD"/>
<path d="M362.23 157.852C363.154 157.433 363.982 156.829 364.664 156.078C365.346 155.326 365.866 154.443 366.192 153.483C366.853 151.208 368.174 151.208 369.677 151.936C371.18 152.664 373.526 151.799 373.799 153.733C374.118 156.009 372.091 157.51 370.292 158.648C368.493 159.786 366.443 159.513 362.23 157.852Z" fill="#FDFDFD"/>
<path d="M146.255 173.323V174.052C141.7 175.28 137.145 175.257 132.591 176.054C128.719 176.736 124.824 177.351 120.975 178.17C120.134 178.306 119.337 178.639 118.648 179.141C117.959 179.643 117.399 180.3 117.013 181.059L116.352 180.377C117.172 177.419 119.882 177.237 122.114 176.714C126.141 175.701 130.248 175.038 134.39 174.734C134.893 174.773 135.398 174.682 135.856 174.471C136.315 174.26 136.711 173.936 137.009 173.528L137.51 172.8C138.102 173.483 138.466 174.643 139.787 174.12C141.974 173.21 144.16 173.779 146.255 173.323Z" fill="#090909"/>
<path d="M77.0654 160.537H77.9308C80.6866 161.72 83.374 159.968 86.107 160.309V161.037C81.6887 162.243 76.9971 162.22 72.5787 163.017C68.707 163.699 64.8125 164.336 60.9636 165.133C60.1251 165.278 59.3314 165.614 58.6441 166.115C57.9568 166.616 57.3945 167.269 57.0007 168.022L56.363 166.748C58.5039 163.79 61.9429 163.722 65.0175 163.062C68.0921 162.402 71.44 162.175 74.6513 161.697C75.1172 161.711 75.5796 161.612 75.9996 161.41C76.4197 161.208 76.7852 160.909 77.0654 160.537Z" fill="#090909"/>
<path d="M370.588 151.299C371.271 149.706 372.865 148.842 372.296 147.181C372.258 146.899 372.331 146.613 372.501 146.384C374.511 146.375 376.492 146.868 378.263 147.818C379.538 148.364 379.288 149.866 378.764 150.798C377.944 152.3 376.487 152.368 374.87 151.959C373.253 151.549 372.159 150.776 370.588 151.299Z" fill="#FBFBFB"/>
<path d="M333.966 142.266C334.425 141.512 334.934 140.789 335.492 140.105C336.175 139.376 334.49 137.306 336.585 137.67C338.613 137.644 340.578 138.374 342.097 139.718C342.383 140.152 342.512 140.671 342.463 141.188C342.413 141.705 342.187 142.19 341.823 142.562C341.458 142.974 340.987 143.277 340.46 143.437C339.934 143.598 339.373 143.61 338.84 143.472C337.291 143.04 335.72 142.698 333.966 142.266Z" fill="#FBFBFB"/>
<path d="M353.142 146.475L354.577 144.746C355.283 143.904 354.099 142.016 355.397 141.97C357.202 142.051 358.974 142.483 360.612 143.245C361.979 143.768 361.728 145.179 361.41 146.202C361.169 146.822 360.699 147.326 360.097 147.61C359.495 147.893 358.807 147.935 358.176 147.727C356.581 147.568 355.055 147.067 353.142 146.475Z" fill="#FBFBFB"/>
<path d="M56.2947 153.484V154.212C51.8176 155.115 47.2935 155.768 42.7437 156.169C38.7404 156.698 34.771 157.458 30.8552 158.444C30.0719 158.603 29.335 158.937 28.6998 159.422C28.0647 159.907 27.5479 160.529 27.1884 161.242L26.6874 160.537C27.3706 157.443 30.1719 157.352 32.3811 156.874C40.2693 155.222 48.2578 154.089 56.2947 153.484Z" fill="#080808"/>
<path d="M233.779 150.048C236.33 148.933 238.539 150.617 240.931 150.912C242.288 151.14 243.634 151.436 244.962 151.8C247.568 152.799 250.23 153.65 252.933 154.348C254.368 154.94 256.099 155.304 256.121 157.42C255.955 157.585 255.73 157.678 255.495 157.678C255.26 157.678 255.035 157.585 254.869 157.42C255.142 155.872 253.685 155.85 252.933 155.622C246.657 153.538 240.261 151.836 233.779 150.526V150.048Z" fill="#0A0A0A"/>
<path d="M291.468 164.792C291.445 164.626 291.445 164.457 291.468 164.291C293.996 163.199 296.228 164.883 298.596 165.179C299.963 165.338 301.307 165.77 302.65 166.066C305.251 167.062 307.904 167.913 310.599 168.614C312.034 169.206 313.787 169.57 313.787 171.686H312.557C312.808 170.139 311.35 170.116 310.622 169.888C304.346 167.805 297.95 166.103 291.468 164.792Z" fill="#0A0A0A"/>
<path d="M343.896 135.782C343.167 138.057 341.618 138.057 340.047 137.465C338.885 137.101 337.769 136.692 336.585 136.351C335.947 136.191 334.877 136.351 335.105 135.418C335.332 134.485 335.925 134.007 337.177 134.371C339.364 135.099 341.641 135.327 343.896 135.782Z" fill="#F9F9F9"/>
<path d="M363.14 140.196C363.048 140.583 362.869 140.943 362.615 141.25C362.361 141.556 362.04 141.8 361.677 141.963C361.314 142.125 360.918 142.203 360.52 142.188C360.122 142.174 359.733 142.068 359.383 141.879C358.503 141.679 357.653 141.366 356.855 140.946C356.058 140.332 354.053 141.402 354.395 139.581C354.737 137.761 356.399 138.694 357.47 138.876C359.36 139.172 361.205 139.65 363.14 140.196Z" fill="#F9F9F9"/>
<path d="M373.526 142.994C375.299 143.277 377.055 143.657 378.787 144.132C379.288 144.291 380.609 143.95 380.267 144.951C379.925 145.952 379.516 146.862 378.126 146.43C376.737 145.998 374.847 145.475 373.184 145.042C372.546 144.883 371.453 145.042 371.681 144.087C371.909 143.131 372.592 142.426 373.526 142.994Z" fill="#F9F9F9"/>
<path d="M365.805 150.002C365.824 151.922 365.083 153.771 363.743 155.147C362.404 156.523 360.575 157.316 358.654 157.352C361.246 155.116 363.66 152.682 365.874 150.071L365.805 150.002Z" fill="#F1F1F1"/>
<path d="M163.473 121.448C163.443 121.362 163.442 121.268 163.471 121.182C163.5 121.095 163.557 121.021 163.633 120.97H164.362H166.206L167.527 121.539C166.844 122.517 165.842 121.971 164.977 122.13L163.473 121.448Z" fill="#1E1E1E"/>
<path d="M240.635 40.6085C238.752 42.016 237.282 43.9016 236.376 46.0691C235.943 47.1157 235.396 47.1612 234.485 46.7744C234.03 46.5696 233.415 46.6606 233.051 46.3648C231.684 45.3182 229.088 46.7289 228.496 44.3399C228.245 43.2705 232.686 39.7894 234.144 39.5846C236.353 39.2661 238.334 40.4037 240.635 40.6085Z" fill="#FDFDFD"/>
<path d="M355.989 67.274C354.097 68.6509 352.636 70.5368 351.776 72.7119C351.366 73.7813 350.842 73.8268 349.954 73.5082C349.361 73.414 348.78 73.2538 348.223 73.0304C346.879 72.1203 344.556 73.2124 343.918 71.2785C343.509 70.0954 347.859 66.4777 349.544 66.2502C351.707 65.9544 353.689 67.0693 355.989 67.274Z" fill="#FDFDFD"/>
<path d="M338.248 62.7919C335.908 63.9749 334.085 65.9747 333.123 68.4117C332.691 69.5494 332.167 69.4356 331.301 69.1398C330.436 68.844 329.206 68.4345 328.136 68.1615C324.514 67.2969 324.56 67.2514 326.906 64.5211C327.735 63.3399 328.947 62.4803 330.336 62.0866C331.726 61.693 333.209 61.7894 334.535 62.3596C335.757 62.618 337 62.7627 338.248 62.7919Z" fill="#FDFDFD"/>
<path d="M259.242 44.9309C257.355 46.3228 255.895 48.2143 255.028 50.3915C254.618 51.4382 254.049 51.5974 253.229 51.1424C252.409 50.6873 251.931 50.9604 251.498 50.6873C250.109 49.8227 247.809 50.8921 247.171 48.9581C246.761 47.7523 251.02 44.1574 252.774 43.9298C254.96 43.6113 256.941 44.7717 259.242 44.9309Z" fill="#FDFDFD"/>
<path d="M374.232 70.7781C371.866 72.0732 370.023 74.1477 369.017 76.6482C368.987 76.7945 368.923 76.9319 368.832 77.05C368.741 77.1681 368.623 77.2638 368.489 77.3297C368.355 77.3956 368.208 77.4299 368.058 77.4301C367.909 77.4303 367.762 77.3963 367.627 77.3308C366.956 77.1631 366.294 76.958 365.646 76.7165C364.211 75.9657 361.979 76.8985 361.227 75.0328C360.795 73.9179 365.122 70.1865 366.853 69.9817C369.085 69.686 371.112 70.7553 374.232 70.7781Z" fill="#FDFDFD"/>
<path d="M277.416 48.6395C275.355 49.689 273.687 51.3719 272.656 53.4403C272.178 54.5779 271.198 55.4425 269.741 54.5097C269.49 54.3504 269.126 54.5097 268.853 54.2594C267.418 53.554 265.186 54.4869 264.434 52.7122C263.91 51.4153 268.556 47.6156 270.515 47.6839C272.474 47.7521 274.546 48.1617 277.416 48.6395Z" fill="#FCFCFC"/>
<path d="M273.749 54.464C274.038 53.3537 274.61 52.3368 275.408 51.5118C276.206 50.6867 277.203 50.0813 278.304 49.7542C279.875 49.2081 281.857 49.4356 282.085 50.9373C282.111 51.7467 281.848 52.5389 281.343 53.1724C280.838 53.806 280.124 54.2396 279.329 54.3957C277.473 54.5471 275.608 54.5699 273.749 54.464Z" fill="#FCFCFC"/>
<path d="M260.107 50.7101C258.968 50.5053 257.283 51.4154 256.805 49.527C256.554 48.4803 260.449 45.659 262.02 45.8411C263.091 45.9548 265.14 45.9776 264.73 47.3655C264.184 49.2539 263.205 51.734 260.107 50.7101Z" fill="#FCFCFC"/>
<path d="M373.663 76.8074C372.774 76.4888 370.565 77.3762 371.021 75.5787C371.377 74.512 372.058 73.5832 372.969 72.9223C373.879 72.2614 374.974 71.9015 376.099 71.8928C377.17 71.8928 378.764 71.8928 378.946 73.4172C379.128 74.9417 376.509 76.8301 373.663 76.8074Z" fill="#FCFCFC"/>
<path d="M357.606 73.0762C355.966 73.0762 354.349 73.2582 353.598 71.893C353.074 70.9147 357.265 67.9113 358.973 68.1616C359.975 68.2981 361.888 68.5256 361.501 69.595C360.909 71.3925 360.43 73.9635 357.606 73.0762Z" fill="#FCFCFC"/>
<path d="M240.931 46.3642C240.02 46.1367 238.653 47.024 238.198 45.3631C237.924 44.1572 241.682 41.2904 243.459 41.4952C244.506 41.6089 246.533 41.4952 246.123 43.0651C245.508 45.3403 243.982 47.2743 240.931 46.3642Z" fill="#FCFCFC"/>
<path d="M338.703 68.73C337.154 68.73 335.332 69.0031 334.991 67.6379C334.649 66.2728 336.312 65.3627 337.268 64.7256C337.998 64.1661 338.881 63.8405 339.8 63.7918C340.718 63.7431 341.63 63.9734 342.415 64.4526C342.531 64.5115 342.631 64.5955 342.71 64.6984C342.788 64.8012 342.842 64.9204 342.868 65.047C342.895 65.1736 342.892 65.3045 342.861 65.43C342.83 65.5555 342.771 65.6725 342.689 65.7722C341.687 67.1374 341.254 69.6174 338.703 68.73Z" fill="#FCFCFC"/>
<path d="M286.617 164.291C282.745 164.905 278.851 165.451 275.002 166.134C271.927 166.657 268.875 167.362 265.892 167.999C265.505 167.999 264.981 168.204 264.799 168.5C261.701 173.051 257.966 169.956 254.345 169.501C253.867 169.501 253.411 169.046 253.001 169.501L245.645 170.252V169.547C246.146 167.817 244.643 167.749 243.732 167.271C241.659 166.407 239.427 165.974 237.287 165.315C236.353 165.019 235.465 164.632 235.374 163.563C235.282 162.493 236.171 161.902 236.991 161.515C240.021 160.274 243.224 159.506 246.488 159.24C252.159 158.421 257.875 157.624 263.501 156.964C265.437 156.806 267.382 157.118 269.171 157.875C273.726 158.967 278.281 160.286 282.654 161.674C283.932 162.025 285.035 162.835 285.752 163.949L286.617 164.291Z" fill="#FEFEFE"/>
<path d="M285.751 164.2C280.035 160.628 273.362 159.968 267.122 158.079C265.945 157.769 264.751 157.526 263.546 157.351C263.349 157.245 263.28 157.131 263.341 157.01C263.341 157.01 263.478 156.851 263.546 156.851C266.097 155.759 268.306 157.442 270.697 157.738C272.055 157.966 273.4 158.262 274.728 158.625C277.211 159.968 280.103 160.082 282.654 161.174C284.043 161.743 285.934 161.947 285.751 164.2Z" fill="#0A0A0A"/>
<path d="M301.717 157.579C306.499 157.056 311.1 155.122 316.133 156.35L301.808 158.626L301.717 157.579Z" fill="#0A0A0A"/>
<path d="M297.503 158.671C293.677 157.329 289.578 156.919 285.888 155.304C290.023 155.135 294.101 156.317 297.503 158.671Z" fill="#0F0F0F"/>
<path d="M263.546 156.851V157.351C259.277 158.295 254.947 158.933 250.587 159.262C246.26 159.793 241.98 160.66 237.788 161.856C236.854 162.175 235.647 162.584 235.692 163.813C235.738 165.041 237.059 164.723 237.97 164.996C240.452 165.815 242.958 166.589 245.372 167.544C245.531 167.544 248.606 168.432 245.759 169.637C245.099 167.772 243.254 167.817 241.819 167.362C236.307 165.77 230.75 164.336 225.216 162.812V162.084C226.575 161.912 227.955 162.092 229.224 162.607C231.752 163.199 233.779 164.268 236.376 161.629C238.972 158.989 243.527 159.353 247.285 158.603C249.858 158.125 252.478 157.761 255.074 157.351H256.327C258.604 157.419 261.018 156.327 263.546 156.851Z" fill="#070707"/>
<path d="M271.904 150.799C276.71 150.184 281.31 148.296 286.366 149.479L272.064 151.754L271.904 150.799Z" fill="#0A0A0A"/>
<path d="M267.714 151.845C263.865 150.48 259.765 150.094 256.076 148.455C260.221 148.289 264.308 149.479 267.714 151.845Z" fill="#0F0F0F"/>
<path d="M343.987 163.791L329.707 166.066L329.593 165.156C334.33 164.428 338.908 162.608 343.987 163.791Z" fill="#0A0A0A"/>
<path d="M325.721 166.748C321.738 165.19 317.632 163.965 313.446 163.085C316.566 161.993 323.899 164.109 325.721 166.748Z" fill="#0F0F0F"/>
<path d="M219.363 170.093C225.499 169.161 231.679 168.546 237.879 168.25V169.137L219.363 171.139V170.093Z" fill="#0C0C0C"/>
<path d="M216.47 170.433C212.394 170.638 209.205 168.158 205.493 167.931C207.907 167.112 213.988 168.568 216.47 170.433Z" fill="#090909"/>
<path d="M129.448 173.483L110.954 175.463V174.462C117.091 173.472 123.282 172.856 129.493 172.619L129.448 173.483Z" fill="#0C0C0C"/>
<path d="M97.0162 171.89C100.743 171.929 104.411 172.816 107.743 174.484C103.826 174.78 100.501 172.823 97.0162 171.89Z" fill="#090909"/>
<path d="M198.228 174.734L179.734 176.691V175.69C185.87 174.705 192.062 174.104 198.273 173.892L198.228 174.734Z" fill="#0C0C0C"/>
<path d="M165.796 173.278C169.645 172.709 172.993 174.439 176.455 175.553C172.629 176.19 169.44 173.779 165.796 173.278Z" fill="#090909"/>
<path d="M69.2765 160.468L50.7605 162.402V161.424C56.8945 160.42 63.0869 159.812 69.2992 159.604L69.2765 160.468Z" fill="#0C0C0C"/>
<path d="M36.8223 158.944C40.694 158.398 43.9736 160.332 47.5037 161.219C43.6547 161.811 40.3524 159.717 36.8223 158.944Z" fill="#090909"/>
<path d="M140.562 181.265C146.711 180.468 152.837 179.581 159.055 179.376V180.286L140.539 182.311L140.562 181.265Z" fill="#0C0C0C"/>
<path d="M137.533 181.242C133.57 181.742 130.336 179.399 126.646 178.807C130.632 178.329 133.98 180.127 137.533 181.242Z" fill="#090909"/>
<path d="M189.619 163.244C195.747 162.323 201.92 161.731 208.112 161.47V162.311L189.596 164.291L189.619 163.244Z" fill="#0C0C0C"/>
<path d="M175.658 160.718C179.428 160.723 183.143 161.62 186.499 163.335C182.581 163.608 179.279 161.651 175.658 160.718Z" fill="#090909"/>
<path d="M149.899 168.864C156.049 168.045 162.198 167.203 168.393 166.953V167.885L149.899 169.865V168.864Z" fill="#0C0C0C"/>
<path d="M136.007 166.338C139.924 165.906 143.318 167.612 146.825 168.887C142.839 169.228 139.582 167.226 136.007 166.338Z" fill="#090909"/>
<path d="M228.678 157.692C234.827 156.941 240.953 155.963 247.171 155.826V156.714L228.632 158.739L228.678 157.692Z" fill="#0C0C0C"/>
<path d="M225.489 157.692C221.663 157.92 218.361 156.1 214.808 155.19C218.679 154.666 222.005 156.532 225.489 157.692Z" fill="#090909"/>
<path d="M108.358 154.894L89.8195 156.828V155.826C95.9687 155.007 102.141 154.188 108.335 153.892L108.358 154.894Z" fill="#0C0C0C"/>
<path d="M86.5853 155.781C82.6908 156.122 79.434 154.075 75.8356 153.506C79.7756 152.755 83.078 154.78 86.5853 155.781Z" fill="#090909"/>
<path d="M99.066 167.294L80.5272 169.228V168.25C86.6764 167.431 92.8484 166.566 99.0432 166.339L99.066 167.294Z" fill="#0C0C0C"/>
<path d="M77.2703 168.204C73.4442 168.591 70.1874 166.452 66.5662 165.929C70.4607 165.201 73.7858 167.089 77.2703 168.204Z" fill="#090909"/>
<path d="M119.563 162.584C125.691 161.67 131.865 161.108 138.057 160.9V161.697L119.518 163.653L119.563 162.584Z" fill="#0C0C0C"/>
<path d="M116.352 162.629C112.48 162.88 109.178 161.06 105.625 160.172C109.542 159.581 112.845 161.606 116.352 162.629Z" fill="#090909"/>
<path d="M286.321 171.958C292.47 171.139 298.642 170.32 304.837 170.047V171.025L286.298 172.959L286.321 171.958Z" fill="#0C0C0C"/>
<path d="M272.064 169.229C276.277 168.91 279.557 170.867 283.451 171.504C281.356 172.437 276.004 171.253 272.064 169.229Z" fill="#090909"/>
<path d="M247.307 177.464C253.444 176.562 259.625 176 265.823 175.781V176.6L247.307 178.534V177.464Z" fill="#0C0C0C"/>
<path d="M244.392 177.874C240.316 178.033 237.082 175.803 232.663 175.348C236.747 174.824 240.887 175.716 244.392 177.874Z" fill="#090909"/>
<path d="M226.172 182.174L207.634 184.131V183.152C213.77 182.164 219.961 181.548 226.172 181.309V182.174Z" fill="#0C0C0C"/>
<path d="M204.696 183.471C200.619 183.608 197.385 181.378 192.967 180.923C197.053 180.402 201.195 181.302 204.696 183.471Z" fill="#090909"/>
<path d="M187.341 187.726L168.005 189.705C170.442 187.84 185.36 186.406 187.341 187.726Z" fill="#0C0C0C"/>
<path d="M165.386 188.727C161.56 189.046 158.258 187.066 154.682 186.224C158.577 185.724 161.902 187.43 165.386 188.727Z" fill="#090909"/>
<path d="M156.322 157.419C152.245 157.556 149.034 155.144 145.344 154.871C149.188 154.435 153.065 155.335 156.322 157.419Z" fill="#090909"/>
<path d="M126.282 150.184C122.433 150.639 119.199 148.455 115.578 147.909C119.472 147.136 122.729 149.229 126.282 150.184Z" fill="#090909"/>
<path d="M258.422 164.518C264.594 163.768 270.72 162.789 276.938 162.653V163.54L258.399 165.565L258.422 164.518Z" fill="#0C0C0C"/>
<path d="M244.62 161.879C248.354 161.977 252.024 162.861 255.393 164.473C251.643 164.502 247.944 163.611 244.62 161.879Z" fill="#090909"/>
<path fill-rule="evenodd" clip-rule="evenodd" d="M179.743 86.3852L164.619 101.313C163.691 102.229 162.186 102.229 161.258 101.313L146.135 86.3852C145.207 85.4691 145.207 83.9839 146.135 83.0679C147.063 82.1518 148.567 82.1518 149.495 83.0679L160.562 93.9913L160.562 28.3457C160.562 27.0502 161.626 26 162.939 26C164.251 26 165.315 27.0502 165.315 28.3457L165.315 93.9913L176.382 83.0679C177.31 82.1518 178.815 82.1518 179.743 83.0679C180.671 83.9839 180.671 85.4691 179.743 86.3852Z" fill="url(#paint0_linear)"/>
<path fill-rule="evenodd" clip-rule="evenodd" d="M72.6197 55.305L87.7439 40.2041C88.672 39.2774 88.672 37.775 87.7439 36.8483C86.8158 35.9216 85.311 35.9216 84.3829 36.8483L73.3158 47.8985L73.3158 2.37288C73.3158 1.06237 72.2518 0 70.9393 0C69.6267 0 68.5627 1.06238 68.5627 2.37288L68.5627 47.8985L57.4956 36.8483C56.5675 35.9216 55.0628 35.9216 54.1347 36.8483C53.2066 37.775 53.2066 39.2774 54.1347 40.2041L69.2588 55.305C70.1869 56.2317 71.6916 56.2317 72.6197 55.305ZM303.618 55.305L318.743 40.2041C319.671 39.2774 319.671 37.775 318.743 36.8483C317.814 35.9216 316.31 35.9216 315.382 36.8483L304.314 47.8985V2.37288C304.314 1.06237 303.25 0 301.938 0C300.625 0 299.561 1.06238 299.561 2.37288V47.8985L288.494 36.8483C287.566 35.9216 286.061 35.9216 285.133 36.8483C284.205 37.775 284.205 39.2774 285.133 40.2041L300.257 55.305C301.186 56.2317 302.69 56.2317 303.618 55.305Z" fill="url(#paint1_linear)"/>
<defs>
<linearGradient id="paint0_linear" x1="162.939" y1="102.295" x2="162.939" y2="23.7238" gradientUnits="userSpaceOnUse">
<stop stop-color="#E05C5C"/>
<stop offset="1" stop-color="#FFDDDD" stop-opacity="0"/>
</linearGradient>
<linearGradient id="paint1_linear" x1="186.439" y1="0" x2="186.439" y2="56" gradientUnits="userSpaceOnUse">
<stop offset="0.078125" stop-color="#E05B5B" stop-opacity="0"/>
<stop offset="0.505208" stop-color="#E05B5B" stop-opacity="0.279762"/>
<stop offset="0.953125" stop-color="#E05B5B"/>
</linearGradient>
</defs>
</svg>
