<svg width="69" height="29" viewBox="0 0 69 29" fill="none" xmlns="http://www.w3.org/2000/svg">
<path d="M63.25 0H5.75004C2.57874 0 0 2.57888 0 5.75005V23C0 26.1712 2.57874 28.7501 5.75004 28.7501H63.2501C66.4213 28.7501 69 26.1712 69 23V5.75005C69 2.57888 66.4213 0 63.25 0ZM66.125 23C66.125 24.5849 64.8349 25.875 63.2501 25.875H5.75004C4.1652 25.875 2.87509 24.5849 2.87509 23V5.75005C2.87509 4.1652 4.1652 2.87509 5.75004 2.87509H63.2501C64.8349 2.87509 66.125 4.1652 66.125 5.75005V23Z" fill="#42E8E0"/>
<path d="M17.9168 11.5001C17.5182 10.8094 16.6352 10.5778 15.9529 10.9737L14.375 11.8847V10.0626C14.375 9.268 13.7321 8.62503 12.9375 8.62503C12.1429 8.62503 11.5 9.268 11.5 10.0626V11.8847L9.92212 10.9737C9.23562 10.5778 8.35547 10.8094 7.95818 11.5001C7.56089 12.188 7.79673 13.0668 8.48458 13.4641L10.0623 14.3751L8.48458 15.2861C7.79673 15.6834 7.56089 16.5622 7.95818 17.25C8.22488 17.7119 8.70788 17.9687 9.20476 17.9687C9.44909 17.9687 9.69612 17.907 9.92212 17.7764L11.5 16.8654V18.6876C11.5 19.4822 12.1429 20.1251 12.9375 20.1251C13.7321 20.1251 14.375 19.4822 14.375 18.6876V16.8654L15.9529 17.7764C16.1789 17.907 16.4259 17.9687 16.6702 17.9687C17.1673 17.9687 17.6501 17.7119 17.9168 17.25C18.3141 16.5622 18.0783 15.6834 17.3904 15.2861L15.8127 14.3751L17.3904 13.4641C18.0783 13.0668 18.3141 12.188 17.9168 11.5001Z" fill="#42E8E0"/>
<path d="M32.2919 11.5001C31.8918 10.8094 31.0116 10.5778 30.3279 10.9737L28.7501 11.8847V10.0626C28.7501 9.268 28.1071 8.62503 27.3125 8.62503C26.518 8.62503 25.875 9.268 25.875 10.0626V11.8847L24.2972 10.9737C23.6093 10.5778 22.7292 10.8094 22.3332 11.5001C21.9359 12.188 22.1718 13.0668 22.8596 13.4641L24.4373 14.3751L22.8596 15.2861C22.1718 15.6834 21.9359 16.5622 22.3332 17.25C22.5999 17.7119 23.0829 17.9687 23.5798 17.9687C23.8241 17.9687 24.0712 17.907 24.2972 17.7764L25.875 16.8654V18.6876C25.875 19.4822 26.518 20.1251 27.3125 20.1251C28.1071 20.1251 28.7501 19.4822 28.7501 18.6876V16.8654L30.3279 17.7764C30.5539 17.907 30.801 17.9687 31.0453 17.9687C31.5423 17.9687 32.0252 17.7119 32.2919 17.25C32.6892 16.5622 32.4533 15.6834 31.7655 15.2861L30.1876 14.3751L31.7653 13.4641C32.4533 13.0668 32.6892 12.188 32.2919 11.5001Z" fill="#42E8E0"/>
<path d="M46.6668 11.5001C46.2682 10.8094 45.3852 10.5778 44.7029 10.9737L43.125 11.8847V10.0626C43.125 9.268 42.482 8.62503 41.6875 8.62503C40.8929 8.62503 40.2499 9.268 40.2499 10.0626V11.8847L38.6721 10.9737C37.9856 10.5778 37.1054 10.8094 36.7082 11.5001C36.3109 12.188 36.5467 13.0668 37.2345 13.4641L38.8122 14.3751L37.2345 15.2861C36.5467 15.6834 36.3109 16.5622 36.7082 17.25C36.9749 17.7119 37.4579 17.9687 37.9547 17.9687C38.1991 17.9687 38.4461 17.907 38.6721 17.7764L40.2499 16.8654V18.6876C40.2499 19.4822 40.8929 20.1251 41.6875 20.1251C42.482 20.1251 43.125 19.4822 43.125 18.6876V16.8654L44.7029 17.7764C44.9289 17.907 45.1759 17.9687 45.4202 17.9687C45.9172 17.9687 46.4001 17.7119 46.6668 17.25C47.0641 16.5622 46.8282 15.6834 46.1404 15.2861L44.5627 14.3751L46.1404 13.4641C46.8282 13.0668 47.0641 12.188 46.6668 11.5001Z" fill="#42E8E0"/>
<path d="M61.0418 11.5001C60.6445 10.8094 59.7615 10.5778 59.0779 10.9737L57.5 11.8847V10.0626C57.5 9.268 56.8571 8.62503 56.0625 8.62503C55.2679 8.62503 54.625 9.268 54.625 10.0626V11.8847L53.0471 10.9737C52.3578 10.5778 51.4818 10.8094 51.0832 11.5001C50.6859 12.188 50.9217 13.0668 51.6096 13.4641L53.1873 14.3751L51.6096 15.2861C50.9217 15.6834 50.6859 16.5622 51.0832 17.25C51.3499 17.7119 51.8329 17.9687 52.3298 17.9687C52.5741 17.9687 52.8211 17.907 53.0471 17.7764L54.625 16.8654V18.6876C54.625 19.4822 55.2679 20.1251 56.0625 20.1251C56.8571 20.1251 57.5 19.4822 57.5 18.6876V16.8654L59.0779 17.7764C59.3039 17.907 59.5509 17.9687 59.7952 17.9687C60.2923 17.9687 60.7751 17.7119 61.0418 17.25C61.4391 16.5622 61.2033 15.6834 60.5154 15.2861L58.9377 14.3751L60.5154 13.4641C61.2033 13.0668 61.4391 12.188 61.0418 11.5001Z" fill="#42E8E0"/>
</svg>
