<svg width="44" height="44" viewBox="0 0 44 44" fill="none" xmlns="http://www.w3.org/2000/svg">
<g clip-path="url(#clip0)">
<path d="M40.2646 26.3462C39.9088 25.4663 38.9069 25.041 38.0269 25.397C37.1468 25.7528 36.7218 26.7545 37.0776 27.6346L39.1018 32.6418L33.0898 29.9916C32.6546 29.7998 32.1594 29.7968 31.7219 29.9834C29.6674 30.8601 27.4663 31.3046 25.18 31.3046C15.9785 31.3046 9.79726 24.1 9.79726 17.371C9.79726 9.68806 16.6979 3.43749 25.18 3.43749C33.6622 3.43749 40.5628 9.68806 40.5628 17.371C40.5628 17.9704 40.507 18.6882 40.4098 19.3401C40.2697 20.279 40.9172 21.1536 41.8561 21.2936C42.7951 21.4341 43.6697 20.7862 43.8096 19.8473C43.9326 19.0232 44.0003 18.1437 44.0003 17.371C44.0003 12.7021 42.0233 8.32114 38.4331 5.03533C34.8854 1.78827 30.1787 0 25.18 0C20.1814 0 15.4748 1.78827 11.927 5.03524C8.71883 7.97155 6.80002 11.7827 6.42782 15.8921C2.39246 18.5644 0.000392997 22.8466 0.000392997 27.4591C0.000392997 30.3404 0.90815 33.0743 2.63609 35.427L0.12569 41.637C-0.136505 42.2855 0.0205023 43.0282 0.522806 43.5151C0.850142 43.8326 1.28146 44 1.71948 44C1.95349 43.9999 2.18948 43.9522 2.4124 43.8539L9.65082 40.6631C11.4717 41.3408 13.3964 41.684 15.3831 41.684C15.4261 41.684 15.4683 41.6806 15.5105 41.6775C18.3839 41.6558 21.1775 40.9 23.597 39.4855C25.7642 38.2185 27.5469 36.4779 28.7966 34.4224C30.0169 34.2032 31.2095 33.8722 32.3671 33.4297L41.5882 37.4945C41.8113 37.5928 42.0472 37.6406 42.2812 37.6406C42.7192 37.6406 43.1506 37.4731 43.4779 37.1558C43.9802 36.6689 44.1372 35.9262 43.875 35.2776L40.2646 26.3462ZM15.3833 38.2421C15.3598 38.2421 15.337 38.2447 15.3137 38.2456C13.5587 38.2367 11.8695 37.8917 10.2919 37.2187C9.85458 37.0319 9.35932 37.035 8.92413 37.2269L4.89908 39.0011L6.19751 35.7892C6.43753 35.1955 6.32745 34.5174 5.91203 34.0301C4.2934 32.1311 3.43789 29.859 3.43789 27.4591C3.43789 24.7125 4.59332 22.11 6.61491 20.1368C7.24431 23.5678 9.02021 26.8499 11.6991 29.4282C15.0327 32.6365 19.4422 34.4952 24.2035 34.7189C21.9681 36.9194 18.7692 38.2421 15.3833 38.2421Z" fill="#42E8E0"/>
<path d="M25.0938 19.164C26.043 19.164 26.8125 18.3945 26.8125 17.4453C26.8125 16.496 26.043 15.7265 25.0938 15.7265C24.1445 15.7265 23.375 16.496 23.375 17.4453C23.375 18.3945 24.1445 19.164 25.0938 19.164Z" fill="#42E8E0"/>
<path d="M31.9688 19.164C32.918 19.164 33.6875 18.3945 33.6875 17.4453C33.6875 16.496 32.918 15.7265 31.9688 15.7265C31.0195 15.7265 30.25 16.496 30.25 17.4453C30.25 18.3945 31.0195 19.164 31.9688 19.164Z" fill="#42E8E0"/>
<path d="M18.2188 19.164C19.168 19.164 19.9376 18.3945 19.9376 17.4453C19.9376 16.496 19.168 15.7265 18.2188 15.7265C17.2696 15.7265 16.5001 16.496 16.5001 17.4453C16.5001 18.3945 17.2696 19.164 18.2188 19.164Z" fill="#42E8E0"/>
</g>
<defs>
<clipPath id="clip0">
<rect width="44" height="44" fill="white"/>
</clipPath>
</defs>
</svg>
