<svg width="24" height="24" viewBox="0 0 24 24" fill="none" xmlns="http://www.w3.org/2000/svg">
<path opacity="0.9" d="M12.0889 5.74805C8.71387 5.74805 6.02441 8.49023 6.02441 11.8125C6.02441 15.1875 8.71387 17.877 12.0889 17.877C15.4111 17.877 18.1533 15.1875 18.1533 11.8125C18.1533 8.49023 15.4111 5.74805 12.0889 5.74805ZM12.0889 15.7676C9.92676 15.7676 8.13379 14.0273 8.13379 11.8125C8.13379 9.65039 9.87402 7.91016 12.0889 7.91016C14.251 7.91016 15.9912 9.65039 15.9912 11.8125C15.9912 14.0273 14.251 15.7676 12.0889 15.7676ZM19.7881 5.53711C19.7881 4.74609 19.1553 4.11328 18.3643 4.11328C17.5732 4.11328 16.9404 4.74609 16.9404 5.53711C16.9404 6.32812 17.5732 6.96094 18.3643 6.96094C19.1553 6.96094 19.7881 6.32812 19.7881 5.53711ZM23.7959 6.96094C23.6904 5.0625 23.2686 3.375 21.8975 2.00391C20.5264 0.632812 18.8389 0.210938 16.9404 0.105469C14.9893 0 9.13574 0 7.18457 0.105469C5.28613 0.210938 3.65137 0.632812 2.22754 2.00391C0.856445 3.375 0.43457 5.0625 0.329102 6.96094C0.223633 8.91211 0.223633 14.7656 0.329102 16.7168C0.43457 18.6152 0.856445 20.25 2.22754 21.6738C3.65137 23.0449 5.28613 23.4668 7.18457 23.5723C9.13574 23.6777 14.9893 23.6777 16.9404 23.5723C18.8389 23.4668 20.5264 23.0449 21.8975 21.6738C23.2686 20.25 23.6904 18.6152 23.7959 16.7168C23.9014 14.7656 23.9014 8.91211 23.7959 6.96094ZM21.2646 18.7734C20.8955 19.8281 20.0518 20.6191 19.0498 21.041C17.4678 21.6738 13.7764 21.5156 12.0889 21.5156C10.3486 21.5156 6.65723 21.6738 5.12793 21.041C4.07324 20.6191 3.28223 19.8281 2.86035 18.7734C2.22754 17.2441 2.38574 13.5527 2.38574 11.8125C2.38574 10.125 2.22754 6.43359 2.86035 4.85156C3.28223 3.84961 4.07324 3.05859 5.12793 2.63672C6.65723 2.00391 10.3486 2.16211 12.0889 2.16211C13.7764 2.16211 17.4678 2.00391 19.0498 2.63672C20.0518 3.00586 20.8428 3.84961 21.2646 4.85156C21.8975 6.43359 21.7393 10.125 21.7393 11.8125C21.7393 13.5527 21.8975 17.2441 21.2646 18.7734Z" fill="white"/>
</svg>
