<svg width="439" height="119" viewBox="0 0 439 119" fill="none" xmlns="http://www.w3.org/2000/svg">
<path d="M423.801 24.2634L400.559 1.02126C399.905 0.367459 399.018 0 398.094 0H346.961C339.912 0 334.178 5.73455 334.178 12.7832V106.217C334.178 113.265 339.912 119 346.961 119H412.039C419.088 119 424.822 113.265 424.822 106.217V26.7285C424.822 25.8039 424.455 24.9173 423.801 24.2634ZM401.58 11.903L412.919 23.2422H401.58V11.903ZM412.039 112.027H346.961C343.757 112.027 341.15 109.421 341.15 106.217V12.7832C341.15 9.57927 343.757 6.97266 346.961 6.97266H394.607V26.7285C394.607 28.6539 396.168 30.2148 398.094 30.2148H417.85V106.217C417.85 109.421 415.243 112.027 412.039 112.027Z" fill="#313A5A"/>
<path d="M402.742 46.9492C398.337 46.9492 394.376 44.5014 392.406 40.5613L391.915 39.5798C391.325 38.3984 390.117 37.6523 388.797 37.6523H370.203C368.883 37.6523 367.675 38.3984 367.085 39.5796L366.594 40.5609C364.624 44.5014 360.663 46.9492 356.258 46.9492C354.332 46.9492 352.771 48.5102 352.771 50.4355V70.3302C352.771 78.1521 355.24 85.6038 359.909 91.8794C364.578 98.1548 371.006 102.66 378.498 104.908C378.825 105.006 379.163 105.055 379.5 105.055C379.837 105.055 380.175 105.006 380.502 104.908C387.994 102.66 394.422 98.1548 399.091 91.8794C403.76 85.6038 406.229 78.1521 406.229 70.3302V50.4355C406.229 48.5102 404.668 46.9492 402.742 46.9492ZM399.256 70.3302C399.256 82.9404 391.36 93.8943 379.5 97.9093C367.64 93.8943 359.744 82.9404 359.744 70.3302V53.597C365.02 52.601 369.607 49.3669 372.324 44.6248H386.676C389.393 49.3666 393.98 52.601 399.256 53.597V70.3302Z" fill="#313A5A"/>
<path d="M386.896 62.3144L376.214 72.9967L372.105 68.8882C370.744 67.5267 368.536 67.5267 367.174 68.8882C365.813 70.2497 365.813 72.457 367.174 73.8185L373.748 80.3924C374.429 81.0731 375.321 81.4136 376.213 81.4136C377.105 81.4136 377.998 81.0734 378.678 80.3924L391.826 67.2447C393.188 65.8832 393.188 63.6759 391.826 62.3144C390.465 60.9528 388.257 60.9528 386.896 62.3144Z" fill="#313A5A"/>
<line x1="3.0598e-07" y1="70.5" x2="340" y2="70.5" stroke="url(#paint0_linear)" stroke-width="7"/>
<defs>
<linearGradient id="paint0_linear" x1="333.704" y1="73.9996" x2="2.64972e-10" y2="74.0001" gradientUnits="userSpaceOnUse">
<stop stop-color="#313A5A"/>
<stop offset="1" stop-color="white" stop-opacity="0"/>
</linearGradient>
</defs>
</svg>
