<svg width="25" height="24" viewBox="0 0 25 24" fill="none" xmlns="http://www.w3.org/2000/svg">
<path opacity="0.9" d="M21.7188 0H3.15625C1.73242 0 0.625 1.16016 0.625 2.53125V21.0938C0.625 22.5176 1.73242 23.625 3.15625 23.625H21.7188C23.0898 23.625 24.25 22.5176 24.25 21.0938V2.53125C24.25 1.16016 23.0898 0 21.7188 0ZM19.1348 8.38477C19.1348 8.54297 19.1348 8.70117 19.1348 8.85938C19.1348 13.3945 15.6543 18.668 9.27344 18.668C7.32227 18.668 5.5293 18.1406 4 17.1387C4.26367 17.1914 4.52734 17.1914 4.79102 17.1914C6.42578 17.1914 7.90234 16.6113 9.11523 15.7148C7.58594 15.6621 6.32031 14.6602 5.8457 13.2891C6.42578 13.3945 6.90039 13.3945 7.42773 13.2363C5.8457 12.9199 4.68555 11.5488 4.68555 9.86133V9.80859C5.10742 10.0723 5.63477 10.2305 6.21484 10.2305C5.37109 9.65039 4.68555 8.38477 4.68555 7.38281C4.68555 6.69727 4.84375 6.11719 5.16016 5.58984C6.84766 7.69922 9.43164 9.07031 12.2793 9.22852C11.8047 6.9082 13.5449 4.95703 15.6543 4.95703C16.6562 4.95703 17.5527 5.37891 18.1855 6.06445C18.9766 5.90625 19.7148 5.64258 20.4004 5.2207C20.1367 6.06445 19.5566 6.69727 18.8711 7.11914C19.5566 7.06641 20.2422 6.85547 20.875 6.5918C20.4004 7.27734 19.7676 7.91016 19.1348 8.38477Z" fill="white"/>
</svg>
