<svg width="44" height="44" viewBox="0 0 44 44" fill="none" xmlns="http://www.w3.org/2000/svg">
<path d="M40.2642 26.3462C39.9084 25.4663 38.9066 25.041 38.0266 25.397C37.1465 25.7528 36.7215 26.7545 37.0772 27.6346L39.1015 32.6418L33.0895 29.9916C32.6543 29.7998 32.159 29.7968 31.7216 29.9834C29.667 30.8601 27.466 31.3046 25.1797 31.3046C15.9781 31.3046 9.79692 24.1 9.79692 17.371C9.79692 9.68806 16.6976 3.43749 25.1797 3.43749C33.6618 3.43749 40.5625 9.68806 40.5625 17.371C40.5625 17.9704 40.5066 18.6882 40.4095 19.3401C40.2694 20.279 40.9169 21.1536 41.8558 21.2936C42.7947 21.4341 43.6693 20.7862 43.8093 19.8473C43.9323 19.0232 44 18.1437 44 17.371C44 12.7021 42.0229 8.32114 38.4327 5.03533C34.8851 1.78827 30.1783 0 25.1797 0C20.1811 0 15.4745 1.78827 11.9267 5.03524C8.71849 7.97155 6.79968 11.7827 6.42749 15.8921C2.39212 18.5644 5.7304e-05 22.8466 5.7304e-05 27.4591C5.7304e-05 30.3404 0.907814 33.0743 2.63576 35.427L0.125354 41.637C-0.136841 42.2855 0.0201667 43.0282 0.522471 43.5151C0.849806 43.8326 1.28113 44 1.71915 44C1.95316 43.9999 2.18914 43.9522 2.41206 43.8539L9.65048 40.6631C11.4713 41.3408 13.3961 41.684 15.3828 41.684C15.4257 41.684 15.4679 41.6806 15.5101 41.6775C18.3836 41.6558 21.1772 40.9 23.5967 39.4855C25.7638 38.2185 27.5465 36.4779 28.7963 34.4224C30.0165 34.2032 31.2092 33.8722 32.3667 33.4297L41.5879 37.4945C41.8109 37.5928 42.0468 37.6406 42.2808 37.6406C42.7188 37.6406 43.1503 37.4731 43.4776 37.1558C43.9799 36.6689 44.1369 35.9262 43.8747 35.2776L40.2642 26.3462ZM15.3829 38.2421C15.3595 38.2421 15.3366 38.2447 15.3133 38.2456C13.5583 38.2367 11.8691 37.8917 10.2916 37.2187C9.85424 37.0319 9.35898 37.035 8.9238 37.2269L4.89875 39.0011L6.19717 35.7892C6.4372 35.1955 6.32711 34.5174 5.91169 34.0301C4.29306 32.1311 3.43755 29.859 3.43755 27.4591C3.43755 24.7125 4.59298 22.11 6.61457 20.1368C7.24398 23.5678 9.01987 26.8499 11.6988 29.4282C15.0324 32.6365 19.4418 34.4952 24.2032 34.7189C21.9678 36.9194 18.7689 38.2421 15.3829 38.2421Z" fill="#42E8E0"/>
<path d="M15.6679 20.368C15.5933 20.368 15.5279 20.34 15.4719 20.284C15.4159 20.228 15.3879 20.1627 15.3879 20.088V19.64C15.4346 19.2013 15.5699 18.8187 15.7939 18.492C16.0273 18.156 16.3539 17.7733 16.7739 17.344C17.0819 17.0453 17.3153 16.7887 17.4739 16.574C17.6326 16.3593 17.7259 16.14 17.7539 15.916C17.7913 15.5333 17.6653 15.23 17.3759 15.006C17.0866 14.7727 16.7366 14.656 16.3259 14.656C15.4113 14.656 14.8606 15.1087 14.6739 16.014C14.6086 16.2287 14.4733 16.336 14.2679 16.336H13.0779C12.9846 16.336 12.9099 16.308 12.8539 16.252C12.7979 16.1867 12.7699 16.1027 12.7699 16C12.7886 15.4867 12.9426 15.006 13.2319 14.558C13.5213 14.11 13.9413 13.7507 14.4919 13.48C15.0426 13.2 15.6866 13.06 16.4239 13.06C17.1986 13.06 17.8333 13.186 18.3279 13.438C18.8319 13.6807 19.1959 13.9933 19.4199 14.376C19.6533 14.7587 19.7699 15.1553 19.7699 15.566C19.7699 16.042 19.6626 16.4527 19.4479 16.798C19.2426 17.134 18.9299 17.526 18.5099 17.974C18.2113 18.3007 17.9779 18.5807 17.8099 18.814C17.6513 19.038 17.5439 19.2807 17.4879 19.542C17.4506 19.7753 17.4273 19.934 17.4179 20.018C17.3433 20.2513 17.2173 20.368 17.0399 20.368H15.6679ZM15.6259 23C15.5326 23 15.4533 22.9673 15.3879 22.902C15.3226 22.8367 15.2899 22.7573 15.2899 22.664V21.446C15.2899 21.3527 15.3226 21.2733 15.3879 21.208C15.4533 21.1333 15.5326 21.096 15.6259 21.096H16.9839C17.0866 21.096 17.1706 21.1287 17.2359 21.194C17.3013 21.2593 17.3339 21.3433 17.3339 21.446V22.664C17.3339 22.7573 17.3013 22.8367 17.2359 22.902C17.1706 22.9673 17.0866 23 16.9839 23H15.6259ZM23.0403 20.284C22.9469 20.284 22.8676 20.2513 22.8023 20.186C22.7369 20.1207 22.7043 20.0413 22.7043 19.948V13.536C22.7043 13.4427 22.7369 13.3633 22.8023 13.298C22.8676 13.2327 22.9469 13.2 23.0403 13.2H24.1743C24.2769 13.2 24.3563 13.2327 24.4123 13.298C24.4776 13.354 24.5103 13.4333 24.5103 13.536V19.948C24.5103 20.0413 24.4776 20.1207 24.4123 20.186C24.3563 20.2513 24.2769 20.284 24.1743 20.284H23.0403ZM22.9563 23C22.8629 23 22.7836 22.9673 22.7183 22.902C22.6529 22.8367 22.6203 22.7573 22.6203 22.664V21.362C22.6203 21.2593 22.6529 21.1753 22.7183 21.11C22.7836 21.0447 22.8629 21.012 22.9563 21.012H24.2583C24.3609 21.012 24.4449 21.0447 24.5103 21.11C24.5756 21.1753 24.6083 21.2593 24.6083 21.362V22.664C24.6083 22.7573 24.5756 22.8367 24.5103 22.902C24.4449 22.9673 24.3609 23 24.2583 23H22.9563ZM29.2244 22.454C29.1404 22.454 29.0657 22.426 29.0004 22.37C28.9444 22.314 28.921 22.244 28.9304 22.16L29.1544 20.634H27.9644C27.871 20.634 27.7917 20.606 27.7264 20.55C27.6704 20.4847 27.6424 20.4053 27.6424 20.312V19.528C27.6424 19.4347 27.6704 19.36 27.7264 19.304C27.7917 19.2387 27.871 19.206 27.9644 19.206H29.3644L29.6864 17.078H28.3284C28.235 17.078 28.1557 17.05 28.0904 16.994C28.0344 16.9287 28.0064 16.8493 28.0064 16.756V15.972C28.0064 15.8787 28.0344 15.804 28.0904 15.748C28.1557 15.6827 28.235 15.65 28.3284 15.65H29.8964L30.1344 14.124C30.153 14.04 30.1904 13.97 30.2464 13.914C30.3024 13.858 30.3724 13.83 30.4564 13.83H31.2684C31.3524 13.83 31.4224 13.858 31.4784 13.914C31.5344 13.97 31.5577 14.04 31.5484 14.124L31.3244 15.65H33.0744L33.3124 14.124C33.331 14.04 33.3684 13.97 33.4244 13.914C33.4804 13.858 33.5504 13.83 33.6344 13.83H34.4464C34.5304 13.83 34.6004 13.858 34.6564 13.914C34.7124 13.97 34.7357 14.04 34.7264 14.124L34.5024 15.65H35.6784C35.7717 15.65 35.8464 15.6827 35.9024 15.748C35.9677 15.804 36.0004 15.8787 36.0004 15.972V16.756C36.0004 16.8493 35.9677 16.9287 35.9024 16.994C35.8464 17.05 35.7717 17.078 35.6784 17.078H34.2924L33.9844 19.206H35.3144C35.4077 19.206 35.4824 19.2387 35.5384 19.304C35.6037 19.36 35.6364 19.4347 35.6364 19.528V20.312C35.6364 20.4053 35.6037 20.4847 35.5384 20.55C35.4824 20.606 35.4077 20.634 35.3144 20.634H33.7604L33.5364 22.16C33.5177 22.244 33.4804 22.314 33.4244 22.37C33.3684 22.426 33.2984 22.454 33.2144 22.454H32.4024C32.3184 22.454 32.2437 22.426 32.1784 22.37C32.1224 22.314 32.099 22.244 32.1084 22.16L32.3324 20.634H30.5824L30.3584 22.16C30.3397 22.244 30.3024 22.314 30.2464 22.37C30.1904 22.426 30.1204 22.454 30.0364 22.454H29.2244ZM32.5424 19.206L32.8644 17.078H31.1144L30.8064 19.206H32.5424Z" fill="#E8426A"/>
</svg>
