<svg width="69" height="29" viewBox="0 0 69 29" fill="none" xmlns="http://www.w3.org/2000/svg">
<path d="M63.25 0H5.75004C2.57874 0 0 2.57888 0 5.75005V23C0 26.1712 2.57874 28.7501 5.75004 28.7501H63.2501C66.4213 28.7501 69 26.1712 69 23V5.75005C69 2.57888 66.4213 0 63.25 0ZM66.125 23C66.125 24.5849 64.8349 25.875 63.2501 25.875H5.75004C4.1652 25.875 2.87509 24.5849 2.87509 23V5.75005C2.87509 4.1652 4.1652 2.87509 5.75004 2.87509H63.2501C64.8349 2.87509 66.125 4.1652 66.125 5.75005V23Z" fill="#42E8E0"/>
<path d="M13.726 17.396C13.63 17.396 13.546 17.36 13.474 17.288C13.402 17.216 13.366 17.132 13.366 17.036V16.46C13.426 15.896 13.6 15.404 13.888 14.984C14.188 14.552 14.608 14.06 15.148 13.508C15.544 13.124 15.844 12.794 16.048 12.518C16.252 12.242 16.372 11.96 16.408 11.672C16.456 11.18 16.294 10.79 15.922 10.502C15.55 10.202 15.1 10.052 14.572 10.052C13.396 10.052 12.688 10.634 12.448 11.798C12.364 12.074 12.19 12.212 11.926 12.212H10.396C10.276 12.212 10.18 12.176 10.108 12.104C10.036 12.02 10 11.912 10 11.78C10.024 11.12 10.222 10.502 10.594 9.926C10.966 9.35 11.506 8.888 12.214 8.54C12.922 8.18 13.75 8 14.698 8C15.694 8 16.51 8.162 17.146 8.486C17.794 8.798 18.262 9.2 18.55 9.692C18.85 10.184 19 10.694 19 11.222C19 11.834 18.862 12.362 18.586 12.806C18.322 13.238 17.92 13.742 17.38 14.318C16.996 14.738 16.696 15.098 16.48 15.398C16.276 15.686 16.138 15.998 16.066 16.334C16.018 16.634 15.988 16.838 15.976 16.946C15.88 17.246 15.718 17.396 15.49 17.396H13.726ZM13.672 20.78C13.552 20.78 13.45 20.738 13.366 20.654C13.282 20.57 13.24 20.468 13.24 20.348V18.782C13.24 18.662 13.282 18.56 13.366 18.476C13.45 18.38 13.552 18.332 13.672 18.332H15.418C15.55 18.332 15.658 18.374 15.742 18.458C15.826 18.542 15.868 18.65 15.868 18.782V20.348C15.868 20.468 15.826 20.57 15.742 20.654C15.658 20.738 15.55 20.78 15.418 20.78H13.672Z" fill="#E8426A"/>
<path d="M26.726 17.396C26.63 17.396 26.546 17.36 26.474 17.288C26.402 17.216 26.366 17.132 26.366 17.036V16.46C26.426 15.896 26.6 15.404 26.888 14.984C27.188 14.552 27.608 14.06 28.148 13.508C28.544 13.124 28.844 12.794 29.048 12.518C29.252 12.242 29.372 11.96 29.408 11.672C29.456 11.18 29.294 10.79 28.922 10.502C28.55 10.202 28.1 10.052 27.572 10.052C26.396 10.052 25.688 10.634 25.448 11.798C25.364 12.074 25.19 12.212 24.926 12.212H23.396C23.276 12.212 23.18 12.176 23.108 12.104C23.036 12.02 23 11.912 23 11.78C23.024 11.12 23.222 10.502 23.594 9.926C23.966 9.35 24.506 8.888 25.214 8.54C25.922 8.18 26.75 8 27.698 8C28.694 8 29.51 8.162 30.146 8.486C30.794 8.798 31.262 9.2 31.55 9.692C31.85 10.184 32 10.694 32 11.222C32 11.834 31.862 12.362 31.586 12.806C31.322 13.238 30.92 13.742 30.38 14.318C29.996 14.738 29.696 15.098 29.48 15.398C29.276 15.686 29.138 15.998 29.066 16.334C29.018 16.634 28.988 16.838 28.976 16.946C28.88 17.246 28.718 17.396 28.49 17.396H26.726ZM26.672 20.78C26.552 20.78 26.45 20.738 26.366 20.654C26.282 20.57 26.24 20.468 26.24 20.348V18.782C26.24 18.662 26.282 18.56 26.366 18.476C26.45 18.38 26.552 18.332 26.672 18.332H28.418C28.55 18.332 28.658 18.374 28.742 18.458C28.826 18.542 28.868 18.65 28.868 18.782V20.348C28.868 20.468 28.826 20.57 28.742 20.654C28.658 20.738 28.55 20.78 28.418 20.78H26.672Z" fill="#E8426A"/>
<path d="M39.726 17.396C39.63 17.396 39.546 17.36 39.474 17.288C39.402 17.216 39.366 17.132 39.366 17.036V16.46C39.426 15.896 39.6 15.404 39.888 14.984C40.188 14.552 40.608 14.06 41.148 13.508C41.544 13.124 41.844 12.794 42.048 12.518C42.252 12.242 42.372 11.96 42.408 11.672C42.456 11.18 42.294 10.79 41.922 10.502C41.55 10.202 41.1 10.052 40.572 10.052C39.396 10.052 38.688 10.634 38.448 11.798C38.364 12.074 38.19 12.212 37.926 12.212H36.396C36.276 12.212 36.18 12.176 36.108 12.104C36.036 12.02 36 11.912 36 11.78C36.024 11.12 36.222 10.502 36.594 9.926C36.966 9.35 37.506 8.888 38.214 8.54C38.922 8.18 39.75 8 40.698 8C41.694 8 42.51 8.162 43.146 8.486C43.794 8.798 44.262 9.2 44.55 9.692C44.85 10.184 45 10.694 45 11.222C45 11.834 44.862 12.362 44.586 12.806C44.322 13.238 43.92 13.742 43.38 14.318C42.996 14.738 42.696 15.098 42.48 15.398C42.276 15.686 42.138 15.998 42.066 16.334C42.018 16.634 41.988 16.838 41.976 16.946C41.88 17.246 41.718 17.396 41.49 17.396H39.726ZM39.672 20.78C39.552 20.78 39.45 20.738 39.366 20.654C39.282 20.57 39.24 20.468 39.24 20.348V18.782C39.24 18.662 39.282 18.56 39.366 18.476C39.45 18.38 39.552 18.332 39.672 18.332H41.418C41.55 18.332 41.658 18.374 41.742 18.458C41.826 18.542 41.868 18.65 41.868 18.782V20.348C41.868 20.468 41.826 20.57 41.742 20.654C41.658 20.738 41.55 20.78 41.418 20.78H39.672Z" fill="#E8426A"/>
<path d="M52.726 17.396C52.63 17.396 52.546 17.36 52.474 17.288C52.402 17.216 52.366 17.132 52.366 17.036V16.46C52.426 15.896 52.6 15.404 52.888 14.984C53.188 14.552 53.608 14.06 54.148 13.508C54.544 13.124 54.844 12.794 55.048 12.518C55.252 12.242 55.372 11.96 55.408 11.672C55.456 11.18 55.294 10.79 54.922 10.502C54.55 10.202 54.1 10.052 53.572 10.052C52.396 10.052 51.688 10.634 51.448 11.798C51.364 12.074 51.19 12.212 50.926 12.212H49.396C49.276 12.212 49.18 12.176 49.108 12.104C49.036 12.02 49 11.912 49 11.78C49.024 11.12 49.222 10.502 49.594 9.926C49.966 9.35 50.506 8.888 51.214 8.54C51.922 8.18 52.75 8 53.698 8C54.694 8 55.51 8.162 56.146 8.486C56.794 8.798 57.262 9.2 57.55 9.692C57.85 10.184 58 10.694 58 11.222C58 11.834 57.862 12.362 57.586 12.806C57.322 13.238 56.92 13.742 56.38 14.318C55.996 14.738 55.696 15.098 55.48 15.398C55.276 15.686 55.138 15.998 55.066 16.334C55.018 16.634 54.988 16.838 54.976 16.946C54.88 17.246 54.718 17.396 54.49 17.396H52.726ZM52.672 20.78C52.552 20.78 52.45 20.738 52.366 20.654C52.282 20.57 52.24 20.468 52.24 20.348V18.782C52.24 18.662 52.282 18.56 52.366 18.476C52.45 18.38 52.552 18.332 52.672 18.332H54.418C54.55 18.332 54.658 18.374 54.742 18.458C54.826 18.542 54.868 18.65 54.868 18.782V20.348C54.868 20.468 54.826 20.57 54.742 20.654C54.658 20.738 54.55 20.78 54.418 20.78H52.672Z" fill="#E8426A"/>
</svg>
