<svg width="63" height="62" viewBox="0 0 63 62" fill="none" xmlns="http://www.w3.org/2000/svg">
<path d="M62.4993 10.63L52.1893 0.32C51.9582 0.113688 51.6591 -0.000233853 51.3493 3.60424e-07C51.0383 0.0092442 50.7392 0.121839 50.4993 0.32L40.7793 10.05L37.0793 6.35C36.9733 6.24297 36.8471 6.15801 36.7081 6.10002C36.5691 6.04204 36.4199 6.01219 36.2693 6.01219C36.1187 6.01219 35.9695 6.04204 35.8305 6.10002C35.6914 6.15801 35.5653 6.24297 35.4593 6.35L21.5393 20.35L20.4893 21.4V22.49H28.8893V32.26L39.4093 32.57L39.6193 39.49L39.6893 41.97H40.3593L41.7893 40.54L46.3393 35.99L55.6893 26.64C55.7963 26.534 55.8813 26.4078 55.9393 26.2688C55.9973 26.1298 56.0271 25.9806 56.0271 25.83C56.0271 25.6794 55.9973 25.5302 55.9393 25.3912C55.8813 25.2522 55.7963 25.126 55.6893 25.02L52.7693 22.02L62.4993 12.29C62.6125 12.1834 62.7027 12.0548 62.7644 11.9121C62.826 11.7693 62.8578 11.6155 62.8578 11.46C62.8578 11.3045 62.826 11.1507 62.7644 11.0079C62.7027 10.8652 62.6125 10.7366 62.4993 10.63ZM41.6993 37.37L41.4893 30.45L31.0193 30.14V20.31H24.8093L33.5193 11.61L50.5193 28.61L41.6993 37.37ZM53.2893 25.8L52.0193 27L35.0193 10L36.2493 8.84L53.2893 25.8ZM51.0893 20.36L42.3993 11.67L51.3493 2.79L60.0193 11.48L51.0893 20.36Z" fill="#E8426A"/>
<path d="M34.8793 43.8L34.6693 36.87L24.2093 36.56V26.73H14.7293L13.6793 27.78L13.5393 27.92L4.1993 37.28C2.19506 39.2764 0.829431 41.8235 0.275873 44.5978C-0.277684 47.372 0.00581253 50.2481 1.09035 52.8609C2.17489 55.4737 4.01154 57.7051 6.36699 59.2718C8.72244 60.8385 11.4904 61.6698 14.3193 61.66C16.2004 61.6639 18.0634 61.2927 19.7993 60.5681C21.5352 59.8435 23.1092 58.7801 24.4293 57.44L35.0193 46.9L34.8793 43.8ZM31.2393 47.42L22.8093 55.82C21.6982 56.9389 20.375 57.8249 18.9171 58.4259C17.4593 59.0269 15.8961 59.3308 14.3193 59.32C11.958 59.3102 9.65212 58.6039 7.69036 57.2897C5.72859 55.9754 4.19817 54.1116 3.29074 51.9316C2.3833 49.7517 2.13919 47.3524 2.58897 45.0344C3.03875 42.7163 4.16244 40.5824 5.8193 38.9L15.2993 29.42L15.8493 28.87H22.0693V38.64L32.5893 39L32.7993 45.92L31.2393 47.42Z" fill="#E8426A"/>
<path d="M48.0827 8.84095C48.0591 8.81731 48.0473 8.78973 48.0473 8.75821C48.0473 8.72669 48.0591 8.6991 48.0827 8.67546C48.0985 8.6597 48.1182 8.64788 48.1419 8.64L50.3011 8.24597L50.6952 6.19701C50.7004 6.176 50.7122 6.1563 50.7306 6.13791C50.7543 6.11427 50.7819 6.10245 50.8134 6.10245C50.8449 6.10245 50.8725 6.11427 50.8961 6.13791L51.298 6.53982C51.3453 6.5871 51.3611 6.65278 51.3453 6.73684L51.0734 8.16716L52.5077 7.89922C52.5918 7.88346 52.6574 7.89922 52.7047 7.94651L53.0869 8.32872C53.1106 8.35236 53.1224 8.37994 53.1224 8.41146C53.1224 8.44298 53.1106 8.47057 53.0869 8.49421C53.0685 8.5126 53.0475 8.5231 53.0239 8.52573L50.9789 8.9237L50.5848 11.083C50.5743 11.1145 50.5638 11.1355 50.5533 11.146C50.5297 11.1697 50.5008 11.1802 50.4666 11.1775C50.4351 11.1775 50.4088 11.167 50.3878 11.146L49.9701 10.7284C49.9202 10.6784 49.9045 10.6154 49.9229 10.5392L50.1829 9.01827L48.6738 9.29015C48.5924 9.30328 48.528 9.28621 48.4807 9.23892L48.0827 8.84095Z" fill="#E8426A"/>
<path d="M52.0827 12.841C52.0591 12.8173 52.0473 12.7897 52.0473 12.7582C52.0473 12.7267 52.0591 12.6991 52.0827 12.6755C52.0985 12.6597 52.1182 12.6479 52.1419 12.64L54.3011 12.246L54.6952 10.197C54.7004 10.176 54.7122 10.1563 54.7306 10.1379C54.7543 10.1143 54.7819 10.1024 54.8134 10.1024C54.8449 10.1024 54.8725 10.1143 54.8961 10.1379L55.298 10.5398C55.3453 10.5871 55.3611 10.6528 55.3453 10.7368L55.0734 12.1672L56.5077 11.8992C56.5918 11.8835 56.6574 11.8992 56.7047 11.9465L57.0869 12.3287C57.1106 12.3524 57.1224 12.3799 57.1224 12.4115C57.1224 12.443 57.1106 12.4706 57.0869 12.4942C57.0685 12.5126 57.0475 12.5231 57.0239 12.5257L54.9789 12.9237L54.5848 15.083C54.5743 15.1145 54.5638 15.1355 54.5533 15.146C54.5297 15.1697 54.5008 15.1802 54.4666 15.1775C54.4351 15.1775 54.4088 15.167 54.3878 15.146L53.9701 14.7284C53.9202 14.6784 53.9045 14.6154 53.9229 14.5392L54.1829 13.0183L52.6738 13.2901C52.5924 13.3033 52.528 13.2862 52.4807 13.2389L52.0827 12.841Z" fill="#E8426A"/>
</svg>
