<svg width="38" height="47" viewBox="0 0 38 47" fill="none" xmlns="http://www.w3.org/2000/svg">
<path d="M28.5828 17.627H9.41729C8.88832 17.627 8.45898 18.0656 8.45898 18.6061V34.2717C8.45898 36.6373 10.1072 38.6131 12.2921 39.0694V44.0628C12.2921 45.6823 13.5819 47.0001 15.1669 47.0001C16.7519 47.0001 18.0417 45.6823 18.0417 44.0628V39.1673H19.9582V44.0628C19.9582 45.6823 21.248 47.0001 22.833 47.0001C24.418 47.0001 25.7079 45.6823 25.7079 44.0628V39.0694C27.8927 38.6151 29.541 36.6373 29.541 34.2717V18.6061C29.541 18.0637 29.1117 17.627 28.5828 17.627Z" fill="#3CADB3"/>
<path d="M24.0156 5.2179L25.6312 1.36608C25.8401 0.868667 25.614 0.294974 25.1271 0.0814691C24.646 -0.133964 24.0768 0.0971653 23.8698 0.596507L22.2542 4.45025C21.2289 4.10952 20.1365 3.91961 19.0018 3.91961C17.8672 3.91961 16.7748 4.10952 15.7494 4.45025L14.1301 0.596507C13.9231 0.0971653 13.3539 -0.135891 12.8728 0.0814691C12.386 0.294883 12.1617 0.870594 12.3707 1.36608L13.9863 5.2179C10.6957 7.04297 8.45906 10.6049 8.45906 14.6897C8.45906 15.2302 8.8884 15.6688 9.41736 15.6688H28.5827C29.1117 15.6688 29.541 15.2302 29.541 14.6897C29.5409 10.6049 27.3043 7.04297 24.0156 5.2179ZM15.1669 11.7524C14.6379 11.7524 14.2086 11.3137 14.2086 10.7733C14.2086 10.2328 14.6379 9.79413 15.1669 9.79413C15.6959 9.79413 16.1252 10.2328 16.1252 10.7733C16.1252 11.3137 15.6959 11.7524 15.1669 11.7524ZM22.8331 11.7524C22.3041 11.7524 21.8748 11.3137 21.8748 10.7733C21.8748 10.2328 22.3041 9.79413 22.8331 9.79413C23.3621 9.79413 23.7914 10.2328 23.7914 10.7733C23.7914 11.3137 23.3621 11.7524 22.8331 11.7524Z" fill="#3CADB3"/>
<path d="M34.3324 17.627C32.7474 17.627 31.4576 18.9448 31.4576 20.5643V30.3553C31.4576 31.9748 32.7474 33.2926 34.3324 33.2926C35.9174 33.2926 37.2072 31.9748 37.2072 30.3553V20.5643C37.2072 18.9449 35.9174 17.627 34.3324 17.627Z" fill="#3CADB3"/>
<path d="M3.66766 17.627C2.08265 17.627 0.792847 18.9448 0.792847 20.5643V30.3553C0.792847 31.9748 2.08265 33.2926 3.66766 33.2926C5.25266 33.2926 6.54247 31.9748 6.54247 30.3553V20.5643C6.54247 18.9449 5.25266 17.627 3.66766 17.627Z" fill="#3CADB3"/>
</svg>
