<svg width="47" height="47" viewBox="0 0 47 47" fill="none" xmlns="http://www.w3.org/2000/svg">
<path d="M37.3613 0H9.63867C4.32391 0 0 4.32391 0 9.63867V37.3613C0 42.6761 4.32391 47 9.63867 47H37.3613C42.6761 47 47 42.6761 47 37.3613V9.63867C47 4.32391 42.6761 0 37.3613 0ZM14.4717 36.2152C14.0471 36.9506 13.2741 37.3622 12.4803 37.3622C12.0912 37.3622 11.6972 37.2634 11.3367 37.0553C10.2409 36.4226 9.86403 35.0163 10.4967 33.9204L10.9481 33.1387H16.248L14.4717 36.2152ZM10.1436 31.3027C8.87813 31.3027 7.84863 30.2732 7.84863 29.0078C7.84863 27.7424 8.87813 26.7129 10.1436 26.7129H14.6579L20.85 15.9879L19.1719 13.0812C18.5392 11.9854 18.9159 10.579 20.0118 9.94628H20.0119C21.1078 9.31362 22.5141 9.69054 23.1468 10.7863L23.5 11.3981L23.8532 10.7864C24.4862 9.69044 25.8925 9.31371 26.9881 9.94637C27.519 10.2529 27.8987 10.7478 28.0573 11.3399C28.2161 11.9319 28.1346 12.5505 27.828 13.0813L19.9578 26.7129H24.9221L27.5721 31.3027H10.1436ZM36.8564 31.3027H34.992L36.5032 33.9203C37.136 35.0161 36.7591 36.4224 35.6634 37.0552C35.3097 37.2593 34.9171 37.3637 34.5195 37.3637C34.3201 37.3637 34.1196 37.3376 33.9218 37.2845C33.3296 37.1258 32.8347 36.746 32.5282 36.2151L24.5599 22.4136L27.2098 17.8237L32.3421 26.7129H36.8564C38.1219 26.7129 39.1514 27.7424 39.1514 29.0078C39.1514 30.2732 38.1219 31.3027 36.8564 31.3027Z" fill="#3CADB3"/>
</svg>
