<svg width="24" height="24" viewBox="0 0 24 24" fill="none" xmlns="http://www.w3.org/2000/svg">
<path opacity="0.9" d="M21.0938 0H2.53125C1.10742 0 0 1.16016 0 2.53125V21.0938C0 22.5176 1.10742 23.625 2.53125 23.625H9.75586V15.6094H6.43359V11.8125H9.75586V8.96484C9.75586 5.69531 11.707 3.84961 14.6602 3.84961C16.1367 3.84961 17.6133 4.11328 17.6133 4.11328V7.33008H15.9785C14.3438 7.33008 13.8164 8.33203 13.8164 9.38672V11.8125H17.4551L16.875 15.6094H13.8164V23.625H21.0938C22.4648 23.625 23.625 22.5176 23.625 21.0938V2.53125C23.625 1.16016 22.4648 0 21.0938 0Z" fill="white"/>
</svg>
