<svg width="141" height="36" viewBox="0 0 141 36" fill="none" xmlns="http://www.w3.org/2000/svg">
<path d="M39 28.3789V11.2461H42.6328V28.3789H39Z" fill="white"/>
<path d="M56.0227 14.0234C54.6555 14.0234 53.5969 14.5391 52.8469 15.5703C52.0969 16.5938 51.7219 18.0234 51.7219 19.8594C51.7219 23.6797 53.1555 25.5898 56.0227 25.5898C57.2258 25.5898 58.6828 25.2891 60.3938 24.6875V27.7344C58.9875 28.3203 57.4172 28.6133 55.6828 28.6133C53.1906 28.6133 51.2844 27.8594 49.9641 26.3516C48.6438 24.8359 47.9836 22.6641 47.9836 19.8359C47.9836 18.0547 48.3078 16.4961 48.9563 15.1602C49.6047 13.8164 50.5344 12.7891 51.7453 12.0781C52.9641 11.3594 54.3899 11 56.0227 11C57.6867 11 59.3586 11.4023 61.0383 12.207L59.8664 15.1602C59.2258 14.8555 58.5813 14.5898 57.9328 14.3633C57.2844 14.1367 56.6477 14.0234 56.0227 14.0234Z" fill="white"/>
<path d="M75.7172 28.3789H65.85V11.2461H75.7172V14.2227H69.4828V17.9844H75.2836V20.9609H69.4828V25.3789H75.7172V28.3789Z" fill="white"/>
<path d="M94.8844 28.3789H90.7594L86.2711 21.1602L84.736 22.2617V28.3789H81.1031V11.2461H84.736V19.0859L86.1656 17.0703L90.8063 11.2461H94.8375L88.861 18.8281L94.8844 28.3789Z" fill="white"/>
<path d="M108.708 28.3789H98.8406V11.2461H108.708V14.2227H102.473V17.9844H108.274V20.9609H102.473V25.3789H108.708V28.3789Z" fill="white"/>
<path d="M119.426 18.3008L123 11.2461H126.914L121.23 21.7109V28.3789H117.621V21.8281L111.938 11.2461H115.875L119.426 18.3008Z" fill="white"/>
<path d="M140.984 23.6211C140.984 25.168 140.425 26.3867 139.308 27.2773C138.198 28.168 136.652 28.6133 134.667 28.6133C132.839 28.6133 131.222 28.2695 129.816 27.582V24.207C130.972 24.7227 131.948 25.0859 132.745 25.2969C133.55 25.5078 134.284 25.6133 134.948 25.6133C135.745 25.6133 136.355 25.4609 136.777 25.1562C137.206 24.8516 137.421 24.3984 137.421 23.7969C137.421 23.4609 137.327 23.1641 137.14 22.9062C136.952 22.6406 136.675 22.3867 136.308 22.1445C135.948 21.9023 135.21 21.5156 134.093 20.9844C133.046 20.4922 132.261 20.0195 131.738 19.5664C131.214 19.1133 130.796 18.5859 130.484 17.9844C130.171 17.3828 130.015 16.6797 130.015 15.875C130.015 14.3594 130.527 13.168 131.55 12.3008C132.581 11.4336 134.003 11 135.816 11C136.706 11 137.554 11.1055 138.359 11.3164C139.171 11.5273 140.019 11.8242 140.902 12.207L139.73 15.0312C138.816 14.6562 138.058 14.3945 137.456 14.2461C136.863 14.0977 136.277 14.0234 135.698 14.0234C135.011 14.0234 134.484 14.1836 134.116 14.5039C133.749 14.8242 133.566 15.2422 133.566 15.7578C133.566 16.0781 133.64 16.3594 133.788 16.6016C133.937 16.8359 134.171 17.0664 134.491 17.293C134.82 17.5117 135.589 17.9102 136.8 18.4883C138.402 19.2539 139.499 20.0234 140.093 20.7969C140.687 21.5625 140.984 22.5039 140.984 23.6211Z" fill="white"/>
<rect x="3.33389" width="2" height="3" fill="white"/>
<rect x="19.3339" width="2" height="3" fill="white"/>
<rect x="7.33389" width="2" height="3" fill="white"/>
<rect x="23.3339" width="2" height="3" fill="white"/>
<rect x="11.3339" width="2" height="3" fill="white"/>
<rect x="27.3339" width="2" height="3" fill="white"/>
<path fill-rule="evenodd" clip-rule="evenodd" d="M33 5.00003C33 3.89546 32.1045 3.00003 31 3.00003L2 3.00003C0.895431 3.00003 0 3.89546 0 5.00003L0 34C0 35.1046 0.89543 36 2 36L31 36C32.1045 36 33 35.1046 33 34L33 5.00003ZM8.40579 8.4772L8.40579 30.1477L15.1183 30.1477C17.0135 30.1378 18.7152 29.7012 20.2234 28.838C21.7316 27.9747 22.8975 26.7592 23.721 25.1915C24.5545 23.6238 24.9713 21.8328 24.9713 19.8185V18.8213C24.9713 16.8071 24.5496 15.0111 23.7061 13.4334C22.8627 11.8459 21.6869 10.6254 20.1787 9.77208C18.6804 8.90883 16.9788 8.4772 15.0737 8.4772L8.40579 8.4772ZM12.8709 26.5608L12.8709 12.0939H15.0737C16.8299 12.0939 18.1645 12.6645 19.0773 13.8055C19.9902 14.9367 20.4466 16.6037 20.4466 18.8064V19.9525C20.4268 22.0759 19.9555 23.7081 19.0327 24.8492C18.1099 25.9903 16.7753 26.5608 15.029 26.5608H12.8709Z" fill="white"/>
</svg>
