<svg width="176" height="1455" viewBox="0 0 176 1455" fill="none" xmlns="http://www.w3.org/2000/svg">
<path d="M99.5228 192.413C99.5228 196.752 96.0052 200.27 91.666 200.27H83.6085C77.0166 200.27 71.6728 194.926 71.6728 188.334C71.6759 186.301 72.2289 184.306 73.2728 182.562C74.3124 180.824 75.5545 179.216 76.9728 177.772C78.3928 176.298 79.9728 174.835 81.5228 173.422C83.0366 172.083 84.4818 170.669 85.8528 169.183C87.0893 167.856 88.1636 166.386 89.0528 164.804C89.8319 163.426 90.2355 161.867 90.2228 160.284C90.2242 159.196 90.0451 158.116 89.6928 157.087C89.3774 156.128 88.8671 155.244 88.1942 154.492C87.5213 153.74 86.7002 153.136 85.7828 152.718C84.7748 152.25 83.6732 152.021 82.5628 152.046C81.2278 151.979 79.8981 152.259 78.7028 152.858C77.8001 153.361 77.0423 154.09 76.5028 154.973C75.9195 155.96 75.5355 157.053 75.3728 158.19C75.1517 159.551 75.0413 160.929 75.0428 162.308V164.223C75.0433 164.783 75.0834 165.342 75.1628 165.896C75.3158 166.953 74.4959 167.9 73.4277 167.9H47.1444C46.2628 167.9 45.5237 167.234 45.4328 166.357C45.3428 165.435 45.2428 164.543 45.1528 163.681C45.0509 162.729 45.0008 161.773 45.0028 160.815C44.9373 156.166 46.0121 151.572 48.1328 147.437C50.2153 143.46 53.1526 139.996 56.7328 137.295C60.6047 134.418 64.9703 132.279 69.6128 130.981C74.2734 129.648 79.087 128.927 83.9328 128.837V0H87.4028V132.284H85.6728C80.5771 132.238 75.5003 132.912 70.5928 134.288C66.357 135.475 62.372 137.424 58.8328 140.041C55.6641 142.432 53.0648 145.499 51.2228 149.02C49.3706 152.657 48.4334 156.692 48.4928 160.775C48.4894 161.609 48.5328 162.442 48.6228 163.271C48.6911 163.914 49.2341 164.403 49.8816 164.403H69.4884C70.623 164.403 71.5428 163.483 71.5428 162.349C71.5442 160.781 71.668 159.216 71.9128 157.669C72.1517 156.093 72.6916 154.579 73.5028 153.209C74.3463 151.823 75.5308 150.677 76.9428 149.882C78.6648 148.969 80.5962 148.527 82.5428 148.599C84.1715 148.572 85.7851 148.914 87.2628 149.601C88.5913 150.227 89.7813 151.113 90.7628 152.207C91.7437 153.3 92.4922 154.582 92.9628 155.975C93.4428 157.371 93.6862 158.838 93.6828 160.314C93.701 162.491 93.1567 164.635 92.1028 166.538C91.078 168.348 89.8427 170.03 88.4228 171.548C86.9701 173.122 85.4381 174.621 83.8328 176.038C82.3028 177.391 80.8328 178.784 79.4828 180.197C78.2583 181.446 77.1843 182.835 76.2828 184.336C75.5443 185.541 75.1564 186.93 75.1628 188.344C75.1628 193.01 78.9452 196.792 83.611 196.792H91.6634C94.0821 196.792 96.0428 194.832 96.0428 192.413C96.0783 191.477 96.302 190.558 96.7007 189.711C97.0994 188.863 97.6647 188.105 98.3628 187.482C99.8364 186.029 101.418 184.689 103.093 183.474C104.903 182.151 106.843 180.708 108.923 179.125C110.952 177.583 112.828 175.848 114.523 173.943C116.235 172.023 117.669 169.87 118.783 167.55C119.909 165.073 120.466 162.374 120.413 159.653C120.465 155.758 119.62 151.903 117.943 148.389C116.288 145.023 113.895 142.077 110.943 139.77C107.654 137.246 103.923 135.359 99.9428 134.208L100.943 130.881C105.321 132.156 109.422 134.243 113.033 137.034C116.384 139.663 119.098 143.017 120.973 146.845C122.879 150.842 123.844 155.224 123.793 159.653C123.841 162.9 123.157 166.117 121.793 169.063C120.539 171.682 118.923 174.111 116.993 176.278C115.145 178.348 113.102 180.235 110.893 181.911C108.886 183.567 106.969 185.064 105.143 186.4C103.614 187.499 102.17 188.712 100.823 190.028C100.102 190.628 99.6364 191.481 99.5228 192.413Z" fill="#313A5A"/>
<path d="M87.5888 1455H84.1323V228.737H83.3683C77.0898 228.737 72 223.647 72 217.368C72 211.09 77.0898 206 83.3683 206H86C93.732 206 100 212.268 100 220V227.242H96.5336V219.514C96.5336 213.697 91.8176 208.981 86 208.981H83.8541C79.2217 208.981 75.4664 212.736 75.4664 217.368C75.4664 222.001 79.2217 225.756 83.8541 225.756H87.5888V1455Z" fill="url(#paint0_linear)"/>
<path d="M144.904 106.496C144.52 106.496 144.184 106.352 143.896 106.065C143.608 105.777 143.464 105.442 143.464 105.059V102.761C143.704 100.51 144.4 98.5465 145.552 96.8704C146.752 95.1465 148.432 93.1831 150.592 90.9803C152.176 89.4479 153.376 88.131 154.192 87.0296C155.008 85.9282 155.488 84.8028 155.632 83.6535C155.824 81.6901 155.176 80.1338 153.688 78.9845C152.2 77.7873 150.4 77.1887 148.288 77.1887C143.584 77.1887 140.752 79.5113 139.792 84.1563C139.456 85.2577 138.76 85.8085 137.704 85.8085H131.584C131.104 85.8085 130.72 85.6648 130.432 85.3775C130.144 85.0423 130 84.6113 130 84.0845C130.096 81.4507 130.888 78.9845 132.376 76.6859C133.864 74.3873 136.024 72.5437 138.856 71.1549C141.688 69.7183 145 69 148.792 69C152.776 69 156.04 69.6465 158.584 70.9394C161.176 72.1845 163.048 73.7887 164.2 75.7521C165.4 77.7155 166 79.7507 166 81.8577C166 84.3 165.448 86.407 164.344 88.1789C163.288 89.9028 161.68 91.9141 159.52 94.2127C157.984 95.8887 156.784 97.3254 155.92 98.5225C155.104 99.6718 154.552 100.917 154.264 102.258C154.072 103.455 153.952 104.269 153.904 104.7C153.52 105.897 152.872 106.496 151.96 106.496H144.904ZM144.688 120C144.208 120 143.8 119.832 143.464 119.497C143.128 119.162 142.96 118.755 142.96 118.276V112.027C142.96 111.548 143.128 111.141 143.464 110.806C143.8 110.423 144.208 110.231 144.688 110.231H151.672C152.2 110.231 152.632 110.399 152.968 110.734C153.304 111.069 153.472 111.5 153.472 112.027V118.276C153.472 118.755 153.304 119.162 152.968 119.497C152.632 119.832 152.2 120 151.672 120H144.688Z" fill="#42E8E0"/>
<path d="M19.108 126.792C18.8733 126.792 18.668 126.704 18.492 126.53C18.316 126.355 18.228 126.151 18.228 125.918V124.521C18.3747 123.153 18.8 121.96 19.504 120.941C20.2373 119.893 21.264 118.7 22.584 117.361C23.552 116.429 24.2853 115.629 24.784 114.959C25.2827 114.29 25.576 113.606 25.664 112.907C25.7813 111.714 25.3853 110.768 24.476 110.069C23.5667 109.341 22.4667 108.977 21.176 108.977C18.3013 108.977 16.5707 110.389 15.984 113.213C15.7787 113.882 15.3533 114.217 14.708 114.217H10.968C10.6747 114.217 10.44 114.13 10.264 113.955C10.088 113.751 10 113.489 10 113.169C10.0587 111.568 10.5427 110.069 11.452 108.672C12.3613 107.275 13.6813 106.154 15.412 105.31C17.1427 104.437 19.1667 104 21.484 104C23.9187 104 25.9133 104.393 27.468 105.179C29.052 105.936 30.196 106.911 30.9 108.104C31.6333 109.298 32 110.535 32 111.815C32 113.3 31.6627 114.581 30.988 115.658C30.3427 116.706 29.36 117.928 28.04 119.325C27.1013 120.344 26.368 121.217 25.84 121.945C25.3413 122.644 25.004 123.4 24.828 124.215C24.7107 124.943 24.6373 125.438 24.608 125.7C24.3733 126.428 23.9773 126.792 23.42 126.792H19.108ZM18.976 135C18.6827 135 18.4333 134.898 18.228 134.694C18.0227 134.491 17.92 134.243 17.92 133.952V130.154C17.92 129.862 18.0227 129.615 18.228 129.411C18.4333 129.178 18.6827 129.062 18.976 129.062H23.244C23.5667 129.062 23.8307 129.164 24.036 129.368C24.2413 129.571 24.344 129.833 24.344 130.154V133.952C24.344 134.243 24.2413 134.491 24.036 134.694C23.8307 134.898 23.5667 135 23.244 135H18.976Z" fill="#313A5A"/>
<path d="M132.764 269.203C132.487 269.203 132.244 269.099 132.036 268.89C131.828 268.682 131.724 268.438 131.724 268.161V266.493C131.897 264.86 132.4 263.436 133.232 262.22C134.099 260.969 135.312 259.545 136.872 257.946C138.016 256.835 138.883 255.879 139.472 255.08C140.061 254.281 140.408 253.465 140.512 252.631C140.651 251.207 140.183 250.077 139.108 249.244C138.033 248.375 136.733 247.941 135.208 247.941C131.811 247.941 129.765 249.626 129.072 252.996C128.829 253.795 128.327 254.194 127.564 254.194H123.144C122.797 254.194 122.52 254.09 122.312 253.882C122.104 253.638 122 253.326 122 252.944C122.069 251.033 122.641 249.244 123.716 247.576C124.791 245.908 126.351 244.571 128.396 243.563C130.441 242.521 132.833 242 135.572 242C138.449 242 140.807 242.469 142.644 243.407C144.516 244.31 145.868 245.474 146.7 246.899C147.567 248.323 148 249.8 148 251.328C148 253.1 147.601 254.629 146.804 255.914C146.041 257.165 144.88 258.624 143.32 260.292C142.211 261.508 141.344 262.55 140.72 263.418C140.131 264.252 139.732 265.155 139.524 266.128C139.385 266.997 139.299 267.587 139.264 267.9C138.987 268.769 138.519 269.203 137.86 269.203H132.764ZM132.608 279C132.261 279 131.967 278.878 131.724 278.635C131.481 278.392 131.36 278.097 131.36 277.749V273.215C131.36 272.868 131.481 272.573 131.724 272.33C131.967 272.052 132.261 271.913 132.608 271.913H137.652C138.033 271.913 138.345 272.034 138.588 272.277C138.831 272.521 138.952 272.833 138.952 273.215V277.749C138.952 278.097 138.831 278.392 138.588 278.635C138.345 278.878 138.033 279 137.652 279H132.608Z" fill="#313A5A"/>
<path d="M165.452 191.38C165.26 191.38 165.092 191.31 164.948 191.169C164.804 191.028 164.732 190.864 164.732 190.676V189.549C164.852 188.446 165.2 187.484 165.776 186.662C166.376 185.817 167.216 184.854 168.296 183.775C169.088 183.023 169.688 182.378 170.096 181.838C170.504 181.298 170.744 180.746 170.816 180.183C170.912 179.221 170.588 178.458 169.844 177.894C169.1 177.308 168.2 177.014 167.144 177.014C164.792 177.014 163.376 178.153 162.896 180.43C162.728 180.969 162.38 181.239 161.852 181.239H158.792C158.552 181.239 158.36 181.169 158.216 181.028C158.072 180.864 158 180.653 158 180.394C158.048 179.103 158.444 177.894 159.188 176.768C159.932 175.641 161.012 174.737 162.428 174.056C163.844 173.352 165.5 173 167.396 173C169.388 173 171.02 173.317 172.292 173.951C173.588 174.561 174.524 175.347 175.1 176.31C175.7 177.272 176 178.27 176 179.303C176 180.5 175.724 181.533 175.172 182.401C174.644 183.246 173.84 184.232 172.76 185.359C171.992 186.181 171.392 186.885 170.96 187.472C170.552 188.035 170.276 188.646 170.132 189.303C170.036 189.89 169.976 190.289 169.952 190.5C169.76 191.087 169.436 191.38 168.98 191.38H165.452ZM165.344 198C165.104 198 164.9 197.918 164.732 197.754C164.564 197.589 164.48 197.39 164.48 197.155V194.092C164.48 193.857 164.564 193.657 164.732 193.493C164.9 193.305 165.104 193.211 165.344 193.211H168.836C169.1 193.211 169.316 193.293 169.484 193.458C169.652 193.622 169.736 193.833 169.736 194.092V197.155C169.736 197.39 169.652 197.589 169.484 197.754C169.316 197.918 169.1 198 168.836 198H165.344Z" fill="#313A5A"/>
<path d="M13.248 217.085C12.9067 217.085 12.608 216.958 12.352 216.704C12.096 216.451 11.968 216.155 11.968 215.817V213.789C12.1813 211.803 12.8 210.07 13.824 208.592C14.8907 207.07 16.384 205.338 18.304 203.394C19.712 202.042 20.7787 200.88 21.504 199.908C22.2293 198.937 22.656 197.944 22.784 196.93C22.9547 195.197 22.3787 193.824 21.056 192.81C19.7333 191.754 18.1333 191.225 16.256 191.225C12.0747 191.225 9.55733 193.275 8.704 197.373C8.40534 198.345 7.78667 198.831 6.848 198.831H1.408C0.981333 198.831 0.639999 198.704 0.383999 198.451C0.127999 198.155 0 197.775 0 197.31C0.0853333 194.986 0.789333 192.81 2.112 190.782C3.43467 188.754 5.35466 187.127 7.872 185.901C10.3893 184.634 13.3333 184 16.704 184C20.2453 184 23.1467 184.57 25.408 185.711C27.712 186.81 29.376 188.225 30.4 189.958C31.4667 191.69 32 193.486 32 195.345C32 197.5 31.5093 199.359 30.528 200.923C29.5893 202.444 28.16 204.218 26.24 206.246C24.8747 207.725 23.808 208.993 23.04 210.049C22.3147 211.063 21.824 212.162 21.568 213.345C21.3973 214.401 21.2907 215.12 21.248 215.5C20.9067 216.556 20.3307 217.085 19.52 217.085H13.248ZM13.056 229C12.6293 229 12.2667 228.852 11.968 228.556C11.6693 228.261 11.52 227.901 11.52 227.479V221.965C11.52 221.542 11.6693 221.183 11.968 220.887C12.2667 220.549 12.6293 220.38 13.056 220.38H19.264C19.7333 220.38 20.1173 220.528 20.416 220.824C20.7147 221.12 20.864 221.5 20.864 221.965V227.479C20.864 227.901 20.7147 228.261 20.416 228.556C20.1173 228.852 19.7333 229 19.264 229H13.056Z" fill="#42E8E0"/>
<defs>
<linearGradient id="paint0_linear" x1="86.4136" y1="481.433" x2="86.106" y2="1455" gradientUnits="userSpaceOnUse">
<stop stop-color="#313A5A"/>
<stop offset="0.489583" stop-color="#313A5A" stop-opacity="0.447917"/>
<stop offset="0.916667" stop-color="#313A5A" stop-opacity="0"/>
</linearGradient>
</defs>
</svg>
