<svg width="56" height="56" viewBox="0 0 56 56" fill="none" xmlns="http://www.w3.org/2000/svg">
<path d="M55.6596 10.6327L45.3511 0.324168C45.1566 0.129667 44.8324 0 44.5083 0C44.1841 0 43.9247 0.129667 43.6654 0.324168L33.9404 10.0492L30.2449 6.35369C29.791 5.89986 29.0779 5.89986 28.624 6.35369L4.18177 30.8608C-1.39392 36.4365 -1.39392 45.5132 4.18177 51.0888C6.83994 53.747 10.4706 55.2382 14.2958 55.2382C18.121 55.2382 21.6868 53.747 24.4098 51.024L46.0643 29.3696L48.8521 26.5818C49.3059 26.1279 49.3059 25.4148 48.8521 24.9609L45.9346 21.9786L55.6596 12.2535C56.1135 11.7997 56.1135 11.0865 55.6596 10.6327ZM22.789 49.4032C20.5198 51.6724 17.5375 52.9042 14.2958 52.9042C11.0541 52.9042 8.07178 51.6724 5.80261 49.4032C1.06975 44.7352 1.06975 37.1496 5.80261 32.4816L26.679 11.6052L43.6654 28.5916L22.789 49.4032ZM46.4533 25.8038L45.2214 26.9708L28.235 9.98437L29.4669 8.81737L46.4533 25.8038ZM44.2489 20.3577L35.5612 11.67L44.5083 2.78784L53.1959 11.4755L44.2489 20.3577Z" fill="#42E8E0"/>
<path d="M14.231 33.908C12.3508 33.908 10.6003 34.6211 9.23878 35.9826C7.87728 37.3441 7.16411 39.0946 7.16411 40.9748C7.16411 42.855 7.87728 44.6055 9.23878 45.967C10.6003 47.3285 12.3508 48.0417 14.231 48.0417C16.1111 48.0417 17.8616 47.3285 19.2232 45.967C20.5847 44.6055 21.2978 42.855 21.2978 40.9748C21.2978 39.0946 20.5847 37.3441 19.2232 35.9826C17.8616 34.6211 16.1111 33.908 14.231 33.908ZM17.6023 44.411C16.6946 45.3187 15.5276 45.8373 14.231 45.8373C12.9343 45.8373 11.7673 45.3187 10.8596 44.411C9.95195 43.5033 9.43328 42.3363 9.43328 41.0397C9.49812 39.743 9.95195 38.5111 10.8596 37.6035C11.7673 36.6958 12.9343 36.242 14.231 36.242C15.5276 36.242 16.6946 36.7606 17.6023 37.6683C18.51 38.576 19.0287 39.743 19.0287 41.0397C19.0287 42.3363 18.51 43.5033 17.6023 44.411Z" fill="#42E8E0"/>
<path d="M47.4906 14.8469C47.6851 15.0414 48.0093 15.1711 48.3334 15.1711C48.6576 15.1711 48.9169 15.0414 49.1763 14.8469C49.6301 14.3931 49.6301 13.6799 49.1763 13.2261L48.0093 12.0591C47.5554 11.6052 46.8423 11.6052 46.3884 12.0591C45.9346 12.5129 45.9346 13.2261 46.3884 13.6799L47.4906 14.8469Z" fill="#42E8E0"/>
<path d="M42.7577 6.87236C42.3039 6.41852 41.5907 6.41852 41.1369 6.87236C40.6831 7.32619 40.6831 8.03936 41.1369 8.4932L42.3687 9.72504C42.5632 9.91954 42.8874 10.0492 43.2116 10.0492C43.5357 10.0492 43.7951 9.91954 44.0544 9.72504C44.4434 9.2712 44.4434 8.55803 43.9896 8.1042L42.7577 6.87236Z" fill="#42E8E0"/>
</svg>
