<svg width="20" height="20" viewBox="0 0 20 20" fill="none" xmlns="http://www.w3.org/2000/svg">
<path d="M0.5 10.2856C0.5 11.1141 1.17157 11.7856 2 11.7856L18 11.7856C18.8284 11.7856 19.5 11.1141 19.5 10.2856L19.5 9.71422C19.5 8.88579 18.8284 8.21422 18 8.21422L2 8.21422C1.17157 8.21422 0.5 8.88579 0.5 9.71422L0.5 10.2856Z" fill="#0F054C" stroke="black"/>
<path d="M9.71436 0.5C8.88593 0.5 8.21436 1.17157 8.21436 2L8.21436 18C8.21436 18.8284 8.88593 19.5 9.71436 19.5H10.2858C11.1142 19.5 11.7858 18.8284 11.7858 18L11.7858 2C11.7858 1.17157 11.1142 0.5 10.2858 0.5H9.71436Z" fill="#0F054C" stroke="black"/>
</svg>
