<svg width="548" height="408" viewBox="0 0 548 408" fill="none" xmlns="http://www.w3.org/2000/svg">
<rect width="548" height="408" rx="10" fill="#E9E9FE"/>
<path d="M94.6146 210.151L93.4986 208.968C91.9727 205.942 92.5193 202.552 92.3144 199.389C91.8361 192.177 91.4489 184.918 91.1528 177.683C92.1094 176.272 93.4303 176.978 94.5463 177.228C107.414 180.095 120.259 183.166 133.127 186.102C135.177 186.557 136.885 187.376 137.021 189.81C137.021 191.517 138.411 192.085 139.732 192.336C143.52 193.097 147.179 194.4 150.595 196.204C157.439 199.136 164.623 201.2 171.981 202.347C173.734 202.665 175.443 202.483 175.716 199.912C176.058 196.636 176.672 196.249 179.952 197.023L207.396 203.371C218.783 206.033 230.171 208.513 241.558 211.289C245.293 212.199 245.589 212.677 245.658 216.613C245.817 225.077 245.361 233.563 245.908 242.027C246.067 244.303 244.633 244.621 242.856 244.303C237.595 243.301 232.334 242.232 227.164 240.844C220.992 239.206 214.684 238.159 208.466 236.749C190.702 232.653 173.006 228.399 155.219 224.508C137.431 220.617 120.282 216.749 102.836 212.745C100.012 211.994 96.9376 212.199 94.6146 210.151Z" fill="#989FC9"/>
<path d="M94.6146 210.152L122.149 216.409L190.269 231.926C200.427 234.201 210.584 236.636 220.81 238.752C228.258 240.23 235.591 242.187 242.993 243.78C244.109 244.007 245.27 244.303 245.065 242.324C244.337 233.359 244.792 224.349 244.747 215.385C244.747 213.246 243.813 212.654 241.991 212.222C224.431 208.24 206.895 204.168 189.335 200.118C185.782 199.299 182.184 198.662 178.699 197.638C176.695 197.046 176.422 197.638 176.422 199.412C176.422 200.414 177.47 201.688 176.422 202.37C175.266 203.233 173.825 203.624 172.391 203.462C164.701 202.213 157.182 200.083 149.98 197.114C146.48 195.379 142.799 194.036 139.003 193.11C138.591 193.097 138.188 192.995 137.819 192.812C137.45 192.63 137.125 192.37 136.866 192.05C136.607 191.731 136.419 191.359 136.317 190.961C136.214 190.563 136.198 190.147 136.27 189.743C136.27 188.173 135.746 187.74 134.22 187.467C119.963 184.009 105.797 180.664 91.6083 177.32C90.8568 177.729 90.6062 176.865 90.0596 176.728C88.2604 176.432 86.4384 176.182 84.6392 175.818C84.2856 175.784 83.9423 175.68 83.629 175.513C83.3158 175.345 83.039 175.117 82.8145 174.842C82.59 174.567 82.4223 174.25 82.3211 173.91C82.2199 173.57 82.1873 173.213 82.2251 172.86C82.3208 172.145 82.2743 171.418 82.0884 170.721C81.6102 169.766 80.3803 169.083 81.3824 167.809C81.8292 167.312 82.3724 166.91 82.9792 166.628C83.586 166.347 84.2437 166.191 84.9125 166.171C98.5774 164.305 112.425 162.576 126.135 160.528C141.759 158.253 157.337 155.614 172.937 153.202C185.441 151.268 197.99 149.493 210.425 147.537C222.86 145.58 235.227 143.418 247.753 141.462C257.614 139.914 267.521 138.527 277.36 136.911C285.81 135.614 294.236 134.158 302.686 132.816C303.799 132.713 304.916 132.667 306.034 132.679C306.034 133.817 305.168 134.09 304.394 134.477C295.284 136.433 285.855 137.548 276.586 139.027C223.065 147.537 169.521 155.97 115.955 164.328C109.646 165.329 103.315 166.376 96.9832 167.24C94.6924 167.68 92.3432 167.727 90.0369 167.377C96.2316 167.968 103.178 170.221 110.284 171.7C123.812 174.521 137.317 177.57 150.777 180.801C181.227 188.013 211.791 194.725 242.264 201.847C243.285 201.985 244.264 202.342 245.134 202.894C245.412 203.099 245.632 203.373 245.771 203.69C246.092 204.619 246.155 205.618 245.954 206.579C245.78 207.328 245.78 208.106 245.954 208.855C246.074 209.25 246.085 209.67 245.985 210.071C245.885 210.472 245.677 210.838 245.384 211.13C245.227 211.177 245.061 211.187 244.899 211.159C244.737 211.132 244.583 211.067 244.45 210.971C242.942 209.406 240.97 208.369 238.825 208.013C219.466 203.462 200.146 198.919 180.863 194.384C179.998 194.179 179.087 193.724 178.039 194.384C178.768 195.635 180.089 195.613 181.205 195.886C200.905 200.436 220.582 205.192 240.419 209.537C241.943 209.821 243.416 210.327 244.792 211.039C245.148 211.067 245.489 211.199 245.772 211.417C246.055 211.635 246.268 211.931 246.386 212.268C246.804 214.61 246.994 216.987 246.956 219.366C246.956 225.874 246.956 232.381 246.956 238.888C246.956 242.551 247.297 242.824 250.919 242.278C283.487 237.364 316.055 232.495 348.623 227.671C378.746 223.121 408.87 218.623 438.993 214.179L441.134 213.86C447.557 212.836 447.716 212.632 447.967 205.988C448.217 199.344 447.466 192.154 448.468 185.26C448.52 184.335 448.736 183.426 449.105 182.576C449.14 182.491 449.191 182.414 449.257 182.35C449.322 182.287 449.4 182.237 449.486 182.205C449.572 182.173 449.663 182.159 449.754 182.164C449.846 182.169 449.935 182.193 450.016 182.234C450.29 189.811 450.244 197.387 450.016 204.987C450.016 207.558 449.652 210.152 449.652 212.723C449.652 214.224 449.242 214.998 447.648 215.157C432.571 217.432 417.471 219.708 402.394 221.983C389.185 223.917 375.998 225.737 362.789 227.648C361.758 227.868 360.746 228.164 359.76 228.536L402.144 238.752C403.886 238.986 405.654 238.567 407.105 237.576C408.557 236.584 409.588 235.09 410.001 233.382C410.479 231.835 410.912 231.311 412.575 231.38C415.353 231.38 416.082 230.06 414.852 227.557C414.607 227.083 414.494 226.552 414.527 226.019C414.559 225.486 414.735 224.972 415.037 224.531C415.338 224.091 415.753 223.739 416.237 223.515C416.722 223.291 417.259 223.202 417.79 223.257C420.502 223.62 423.182 224.19 425.807 224.963C428.358 225.737 429.519 229.286 428.631 232.517C427.577 235.724 425.663 238.581 423.097 240.777C422.391 241.459 421.639 242.119 420.819 243.052C425.215 243.484 428.312 241.664 429.382 237.659C429.815 236.044 430.362 235.862 431.66 235.862C434.53 235.862 435.327 234.542 434.165 232.108C433.829 231.637 433.636 231.08 433.609 230.503C433.582 229.925 433.722 229.352 434.013 228.853C434.304 228.353 434.733 227.948 435.249 227.686C435.765 227.424 436.345 227.316 436.921 227.375C439.718 227.759 442.476 228.383 445.165 229.241C447.648 230.037 448.764 233.45 447.898 236.545L446.873 240.003C445.737 242.42 444.025 244.522 441.886 246.123C443.089 245.487 444.147 244.608 444.994 243.543C445.84 242.478 446.457 241.25 446.805 239.935C447.716 239.935 448.65 239.935 449.584 239.935C451.747 239.775 452.84 238.205 451.679 236.476C451.266 235.941 451.057 235.275 451.09 234.6C451.124 233.924 451.397 233.283 451.861 232.79C452.795 231.402 454.139 231.584 455.414 231.835C457.692 232.267 459.787 232.654 461.95 233.2C464.661 233.905 466.187 237.477 465.298 240.822C464.091 245.373 460.743 248.239 457.441 251.379C458.762 251.743 459.514 251.948 459.582 253.654C459.878 261.277 460.538 268.876 460.516 276.407C460.421 279.502 460.588 282.6 461.017 285.667C461.183 286.729 461.108 287.814 460.796 288.842C460.485 289.87 459.945 290.815 459.217 291.606C457.585 293.565 455.565 295.166 453.284 296.309C451.003 297.453 448.511 298.113 445.962 298.249C439.586 298.682 433.254 299.91 426.9 300.843C419.248 301.958 411.618 303.118 403.988 304.302C396.359 305.485 388.501 306.713 380.758 307.874C373.015 309.034 365.636 310.013 357.983 311.15C350.331 312.288 342.701 313.425 335.072 314.654C327.442 315.883 319.972 316.929 312.297 317.976C304.622 319.023 296.833 320.41 289.089 321.594C281.938 322.686 274.787 323.71 267.635 324.779C260.484 325.848 253.515 326.713 246.5 327.942C242.833 328.579 239.668 327.168 236.229 326.463C215.048 321.912 193.913 317.111 172.778 312.333C154.945 308.443 136.885 304.279 118.824 300.183C118.417 300.114 118.007 300.069 117.594 300.047C117.481 299.182 117.936 298.75 118.733 298.591C126.798 299.851 134.794 301.514 142.692 303.574C174.987 310.718 207.259 317.93 239.508 325.211L241.649 325.644C243.038 325.962 243.38 325.416 243.38 324.028C243.38 311.719 242.355 299.455 242.606 287.169C242.606 284.348 241.216 283.46 238.779 282.937C221.106 279.069 203.342 275.156 185.76 271.356C153.533 264.394 121.352 257.249 89.1259 250.355C87.7366 250.06 86.3246 249.377 85.0036 250.537C84.8009 250.692 84.5528 250.776 84.2976 250.776C84.0424 250.776 83.7942 250.692 83.5916 250.537C82.9539 247.921 83.8876 246.988 86.6434 246.715C93.1342 246.078 99.5795 245.008 106.048 244.076L125.383 241.232L149.889 237.682L173.233 234.406L187.946 232.313L99.5568 212.677C97.8714 212.29 96.1861 211.904 94.5691 211.38C93.5442 211.039 94.0225 210.516 94.6146 210.152Z" fill="#030303"/>
<path d="M304.849 133.816L306.079 132.77C307.172 133.065 308.357 134.135 309.268 132.565C311.978 128.128 316.1 127.809 320.541 128.993C322.591 129.516 324.641 130.153 326.69 130.699C328.74 131.245 329.924 132.11 327.966 134.203C327.075 135.243 326.238 136.329 325.461 137.457C325.95 137.67 326.503 137.693 327.008 137.52C327.514 137.347 327.937 136.992 328.194 136.524C329.117 134.973 330.55 133.79 332.248 133.176C333.947 132.562 335.806 132.555 337.508 133.156C339.991 133.884 343.043 133.748 345.093 135.136C347.332 136.445 349.951 136.95 352.517 136.569C355.854 136.841 359.144 137.529 362.31 138.617C365.362 139.436 365.522 140.164 363.654 142.712C362.994 143.623 362.219 144.464 361.377 145.374C362.811 146.649 365.021 145.921 366.524 147.354L363.813 149.197C372.923 151.472 382.033 153.429 390.847 155.841C392.378 156.203 393.987 156.026 395.402 155.34C396.336 154.849 397.364 154.565 398.417 154.506C399.47 154.447 400.523 154.615 401.506 154.999C402.012 155.271 402.567 155.441 403.139 155.496C403.711 155.552 404.288 155.494 404.837 155.324C405.386 155.155 405.896 154.878 406.337 154.51C406.778 154.141 407.141 153.689 407.405 153.179C409.864 149.766 413.508 150.517 416.947 151.313C419.225 151.813 421.252 152.564 423.415 153.11C425.579 153.656 426.239 154.521 424.622 156.432C423.757 157.411 423.074 158.548 422.345 159.64C423.165 160.05 423.916 160.232 424.372 159.481C427.355 154.339 431.888 154.43 436.67 156C439.358 156.91 442.979 156 444.436 159.686C444.559 159.738 444.691 159.766 444.824 159.766C444.957 159.766 445.089 159.738 445.211 159.686C450.107 157.297 454.503 160.209 459.081 160.983C461.745 161.461 462.315 162.78 460.356 164.896C459.536 165.783 458.83 166.785 458.079 167.854C460.584 168.377 462.93 168.81 465.253 169.378C467.576 169.947 468.578 172.291 467.348 174.885C466.892 174.609 466.528 174.205 466.3 173.724C465.002 172.359 463.431 172.837 461.928 173.064C440.451 176.113 418.997 179.412 397.543 182.552C365.248 187.262 332.954 192.108 300.659 196.841C283.411 199.389 266.155 201.983 248.891 204.622C248.299 204.812 247.67 204.863 247.054 204.772C246.438 204.682 245.852 204.451 245.339 204.099V203.439C245.954 201.459 247.776 201.755 249.165 201.55C263.581 199.503 277.975 197.273 292.437 195.157C325.256 190.356 358.074 185.442 390.87 180.618C412.848 177.365 434.825 174.02 456.917 170.926C457.936 170.806 458.947 170.631 459.946 170.402C457.218 169.696 454.406 169.367 451.588 169.424C447.24 169.674 442.927 168.517 439.289 166.125C438.216 165.503 436.944 165.315 435.736 165.601C430.612 165.829 425.693 165.328 421.479 161.916C420.232 161.154 418.737 160.909 417.312 161.233C412.274 161.875 407.177 160.627 403.009 157.729C402.142 157.139 401.139 156.781 400.094 156.689C399.049 156.598 397.998 156.775 397.042 157.206C393.99 158.229 390.688 158.229 387.636 157.206C379.369 154.931 370.988 153.133 362.584 151.131C361.217 150.812 359.372 150.994 360.306 148.287C360.693 147.104 358.598 147.172 357.687 147.24C353.757 147.428 349.825 146.919 346.072 145.739C345.041 145.605 344.066 145.196 343.248 144.555C342.634 144.015 341.903 143.627 341.111 143.421C340.32 143.216 339.492 143.199 338.693 143.372C333.869 143.863 329.027 142.63 325.028 139.891C324.326 139.443 323.54 139.141 322.718 139.004C321.896 138.867 321.055 138.898 320.245 139.095C316.191 139.686 312.479 138.185 308.698 137.184C306.854 136.615 306.056 134.908 304.849 133.816Z" fill="#030303"/>
<path d="M467.325 173.588V174.907C465.697 175.833 463.799 176.171 461.95 175.863C458.671 175.863 458.329 177.365 458.511 179.822C458.407 179.912 458.286 179.98 458.155 180.023C458.023 180.066 457.885 180.083 457.748 180.072C457.61 180.062 457.476 180.024 457.353 179.962C457.23 179.899 457.121 179.813 457.031 179.708C456.097 177.82 454.503 177.933 452.772 178.206L412.005 184.304L302.549 200.618C285.263 203.189 268 205.805 250.736 208.354C248.974 208.967 247.056 208.967 245.293 208.354C244.633 207.921 244.678 207.489 245.293 207.102C246.382 206.137 247.778 205.589 249.233 205.555L405.423 182.256L464.205 173.497C465.236 173.264 466.309 173.296 467.325 173.588Z" fill="#040404"/>
<path d="M457.373 179.799H458.557C456.826 182.074 454.002 180.686 451.975 181.642C451.315 181.938 450.312 181.232 449.857 182.302H449.401C447.803 183.275 445.967 183.787 444.095 183.781C404.148 189.636 364.193 195.551 324.231 201.528C300.226 205.077 276.221 208.536 252.194 212.176C250.973 212.381 249.726 212.381 248.504 212.176C247.798 211.903 246.978 211.789 247.161 210.72C248.566 209.656 250.295 209.109 252.057 209.173C273.739 206.033 295.329 202.779 317.079 199.571L416.423 184.873C428.79 183.03 441.134 181.073 453.546 179.389C454.173 179.162 454.844 179.08 455.507 179.151C456.17 179.222 456.808 179.444 457.373 179.799Z" fill="#040404"/>
<path d="M90.0597 176.796L91.6084 177.387L93.4987 208.968C93.4987 209.536 93.4987 210.538 93.2026 210.583C92.155 210.788 92.1094 209.9 92.1778 209.218C92.2581 204.504 92.0069 199.79 91.4262 195.111C91.0162 189.014 91.4945 182.825 90.0597 176.796Z" fill="#090909"/>
<path d="M83.5915 250.537H84.5708C85.0589 251.002 85.4104 251.591 85.5871 252.241C85.7637 252.89 85.7588 253.576 85.5729 254.223C85.034 261.384 84.8591 268.568 85.0491 275.747C85.2 277.181 85.0128 278.63 84.5025 279.979C84.435 280.116 84.3372 280.235 84.2165 280.328C84.0958 280.421 83.9554 280.486 83.8061 280.516C83.6567 280.547 83.5023 280.543 83.3546 280.506C83.2069 280.468 83.0699 280.397 82.9538 280.298C82.6536 270.373 82.8664 260.44 83.5915 250.537Z" fill="#060606"/>
<path d="M82.9539 280.297H83.9787C85.2861 282.495 86.1092 284.946 86.3929 287.487C86.2562 287.964 86.0513 288.397 85.4363 288.351C83.7663 286.002 82.8961 283.178 82.9539 280.297Z" fill="#121212"/>
<path d="M112.015 298.795L103.383 296.861C103.679 295.451 104.886 295.815 105.797 295.633C108.111 295.63 110.393 296.184 112.447 297.248C113.062 297.908 112.721 298.431 112.015 298.795Z" fill="#444444"/>
<path d="M100.126 295.859C97.7895 295.761 95.4833 295.292 93.2937 294.471C93.2499 294.315 93.2399 294.152 93.2644 293.992C93.2889 293.832 93.3473 293.679 93.4357 293.543C93.524 293.407 93.6404 293.292 93.777 293.205C93.9135 293.118 94.0671 293.061 94.2275 293.038C96.505 293.47 99.0785 293.038 100.878 295.154C100.855 295.632 100.855 296.109 100.126 295.859Z" fill="#484848"/>
<path d="M100.126 295.86L100.809 295.291C101.201 294.997 101.652 294.791 102.13 294.688C102.609 294.584 103.105 294.586 103.583 294.692C104.061 294.798 104.511 295.006 104.901 295.302C105.291 295.598 105.612 295.974 105.843 296.406C105.023 296.565 104.089 296.133 103.383 296.861C102.426 296.156 100.969 296.952 100.126 295.86Z" fill="#606060"/>
<path d="M94.0226 293.47L93.4076 294.472C92.2234 294.218 91.139 293.625 90.2875 292.765C90.2288 292.712 90.1819 292.647 90.1498 292.574C90.1177 292.502 90.1011 292.423 90.1011 292.344C90.1011 292.265 90.1177 292.187 90.1498 292.114C90.1819 292.042 90.2288 291.977 90.2875 291.923C90.9921 291.686 91.7587 291.713 92.4454 291.997C93.1321 292.282 93.6924 292.805 94.0226 293.47Z" fill="#3E3E3E"/>
<path d="M90.3557 291.901V292.766C89.1031 292.766 88.4654 291.856 87.8733 290.923C87.8116 290.874 87.7618 290.811 87.7276 290.741C87.6933 290.67 87.6755 290.592 87.6755 290.513C87.6755 290.434 87.6933 290.357 87.7276 290.286C87.7618 290.215 87.8116 290.153 87.8733 290.104C89.4675 289.603 90.1508 290.354 90.3557 291.901Z" fill="#303030"/>
<path d="M112.015 298.794L112.63 297.77C113.255 297.44 113.975 297.332 114.67 297.465C115.366 297.597 115.995 297.962 116.456 298.498C116.456 299.522 115.499 299.022 115.112 299.409L112.015 298.794Z" fill="#313131"/>
<path d="M87.8733 290.081V290.923C86.8623 290.326 86.0653 289.427 85.5958 288.352L86.1424 287.624C87.3723 287.851 87.8278 288.807 87.8733 290.081Z" fill="#161616"/>
<path d="M115.112 299.409L116.41 298.863C116.53 298.739 116.677 298.643 116.839 298.582C117.002 298.522 117.175 298.499 117.348 298.514C117.52 298.529 117.687 298.583 117.836 298.671C117.985 298.759 118.113 298.879 118.209 299.022L117.594 300.024L115.112 299.409Z" fill="#171717"/>
<path d="M304.849 133.816C306.034 133.976 307.696 133.475 307.377 135.659C307.377 136.16 307.628 136.387 308.106 136.387C312.433 136.387 316.351 139.277 321.02 137.912C322.158 137.593 325.575 136.82 326.03 140.187C326.087 140.31 326.172 140.418 326.279 140.501C326.386 140.584 326.512 140.64 326.645 140.665C330.972 140.665 334.912 143.691 339.536 142.121C340.697 141.734 343.088 141.416 343.453 144.055C343.453 144.646 344.341 144.26 344.774 144.419C350.468 146.558 356.594 145.488 362.356 146.945C362.633 147.067 362.899 147.212 363.153 147.377C362.698 148.765 360.602 147.809 360.466 149.425C371.01 152.087 381.555 154.84 392.146 157.297C393.626 157.638 395.425 156.501 397.088 156.205C399.821 155.727 402.872 154.316 404.262 158.48C404.262 158.708 405.196 158.617 405.651 158.776C410.684 160.596 415.968 160.277 421.161 160.619C422.231 160.619 423.256 160.619 422.755 162.28C422.55 163.008 423.119 163.076 423.689 163.099C428.244 163.395 432.411 166.057 437.194 164.487C438.105 164.168 440.383 163.827 440.155 166.375C440.155 166.512 440.565 166.785 440.793 166.807C444.095 166.807 447.147 169.083 450.313 168.559C454.868 167.831 458.853 169.561 463.613 170.198C461.6 171.231 459.363 171.754 457.099 171.722C447.557 173.337 437.991 174.725 428.403 176.091C417.904 177.615 407.382 178.957 396.905 180.505C386.429 182.052 375.975 183.804 365.499 185.351C356.389 186.693 347.279 187.854 338.169 189.196C329.059 190.538 319.949 192.063 310.976 193.405C302.003 194.748 292.756 195.908 283.646 197.25C274.536 198.593 265.699 200.072 256.635 201.391C252.781 201.66 248.966 202.323 245.248 203.371L88.0327 167.513C94.8652 166.671 101.515 165.738 108.143 164.669C115.363 163.486 122.605 162.393 129.847 161.21L151.871 157.752L173.279 154.385L199.538 150.221C207.965 148.901 216.437 147.65 224.887 146.33L250.827 142.212L272.259 138.89L297.926 134.931L304.849 133.816Z" fill="#CAD0F1"/>
<path d="M244.337 295.837C244.337 292.219 244.337 288.602 244.337 285.007C244.337 283.96 244.496 283.528 245.566 283.391C254.995 282.185 264.401 280.98 273.807 279.66C283.213 278.34 292.938 276.793 302.504 275.451C310.611 274.313 318.719 273.357 326.804 272.22C334.889 271.082 343.157 269.808 351.333 268.648C357.778 267.738 364.269 266.941 370.714 266.031C379.095 264.848 387.454 263.619 395.767 262.459C402.349 261.549 408.931 260.73 415.512 259.82C423.689 258.682 431.865 257.544 440.018 256.339C445.575 255.542 451.178 255.087 456.667 253.745C458.511 253.312 458.58 254.928 458.557 256.02C458.557 261.822 459.582 267.556 459.195 273.357C459.145 277.485 459.358 281.612 459.832 285.712C459.87 287.243 459.52 288.759 458.816 290.119C458.111 291.48 457.074 292.64 455.801 293.493C451.656 296.884 446.691 296.884 441.704 297.566C434.028 298.658 426.399 299.841 418.746 301.047C411.094 302.253 403.647 303.323 395.972 304.392L373.06 307.85L350.285 311.195L327.351 314.699C319.79 315.814 312.228 316.974 304.576 318.021C296.924 319.067 289.089 320.433 281.346 321.57C273.602 322.708 266.223 323.845 258.571 324.846C255.155 325.347 251.738 325.779 248.322 326.485C246.045 326.985 244.633 326.871 244.769 323.891C245.749 314.608 244.746 305.234 244.337 295.837Z" fill="#737AA5"/>
<path d="M118.209 299.022L116.41 298.863C115.408 297.612 113.7 298.863 112.63 297.771C110.407 297.076 108.117 296.618 105.797 296.406C104.24 295.71 102.56 295.331 100.855 295.291L94.0225 293.471L90.3785 291.901C89.7697 291.042 88.8987 290.403 87.8961 290.081L86.0058 287.623C84.9631 285.299 84.287 282.828 84.0016 280.297C84.2977 270.377 83.7966 260.434 84.5937 250.537L84.8215 248.443L131.191 258.591L175.397 268.329L224.932 279.159C230.376 280.342 235.773 281.685 241.239 282.709C243.016 283.027 243.517 283.846 243.517 285.348C243.517 286.076 243.517 286.804 243.517 287.623C243.714 299.091 243.934 310.543 244.177 321.98C244.177 323.732 244.451 325.461 244.633 327.508C231.332 324.46 218.191 321.434 205.027 318.407C187.149 314.403 169.271 310.467 151.392 306.485C141.508 304.21 131.647 301.935 121.785 299.796C120.578 299.386 119.303 299.705 118.209 299.022Z" fill="#989FC9"/>
<path d="M248.527 211.448C255.36 210.538 262.192 209.696 269.161 208.718C276.905 207.603 284.648 206.442 292.414 205.214L315.69 201.71L338.465 198.388C346.322 197.205 354.157 195.954 362.014 194.793C369.872 193.633 377.365 192.677 385.04 191.54C392.715 190.402 400.344 189.264 407.997 188.058C415.649 186.853 423.529 185.783 431.318 184.737C437.376 183.849 443.366 182.461 449.538 182.234C448.172 192.086 449.538 202.051 448.331 211.812C448.172 213.063 448.126 213.632 446.532 213.86C435.44 215.361 424.372 217.045 413.303 218.752C401.551 220.549 389.822 222.506 378.048 224.28C366.273 226.055 354.43 227.489 342.656 229.332C328.786 231.607 314.893 233.609 300.978 235.543C288.588 237.249 276.221 239.183 263.855 241.095C259.026 241.823 254.221 242.665 249.415 243.506C247.138 243.939 246.045 243.506 246.022 240.617C246.022 231.652 246.5 222.665 245.68 213.678C245.73 213.074 245.876 212.483 246.113 211.926C246.614 211.175 247.776 212.153 248.527 211.448Z" fill="#737AA5"/>
<path d="M457.373 179.799L437.399 182.643L414.624 186.033C406.767 187.194 398.91 188.422 391.052 189.56C383.195 190.698 375.725 191.721 368.05 192.859C360.375 193.997 352.768 195.134 345.115 196.363L326.645 199.048C318.97 200.14 311.295 201.323 303.642 202.37C295.99 203.416 288.338 204.645 280.663 205.851C272.987 207.057 265.289 207.967 257.637 209.104C254.107 209.605 250.622 210.31 247.115 210.925C246.868 211.165 246.537 211.3 246.193 211.3C245.848 211.3 245.517 211.165 245.27 210.925V208.354L265.494 205.259C273.124 204.076 280.754 202.87 288.406 201.733C296.058 200.595 303.506 199.457 311.181 198.433L333.956 195.089L356.867 191.608L379.642 188.309L402.895 184.782L430.088 180.664C438.538 179.39 446.987 178.024 455.46 176.819C457.487 176.477 457.692 178.047 457.373 179.799Z" fill="#FEFEFE"/>
<path d="M467.325 173.588C462.711 174.767 458.013 175.596 453.273 176.068C445.462 177.388 437.604 178.525 429.747 179.686C421.89 180.846 414.602 181.802 406.972 182.939C399.342 184.077 391.667 185.214 384.015 186.466C376.363 187.717 369.097 188.627 361.627 189.742L338.42 193.246L316.055 196.545C308.22 197.728 300.363 199.003 292.528 200.186C285.354 201.278 278.203 202.302 271.029 203.348L245.362 207.102V204.031L264.994 201.21L283.714 198.434C291.549 197.251 299.384 196.022 307.241 194.862C315.098 193.701 322.363 192.586 330.016 191.608C337.668 190.63 345.525 189.333 353.292 188.127C361.058 186.921 368.619 185.852 376.271 184.782L399.525 181.278L421.981 177.956L445.826 174.362C451.77 173.474 457.714 172.587 463.681 171.768C465.253 171.563 466.938 171.449 467.325 173.588Z" fill="#FEFEFE"/>
<path d="M454.936 252.88C449.994 253.699 445.165 254.45 440.36 255.315C437.9 255.747 435.805 255.77 434.507 253.04C433.209 250.309 430.476 250.218 427.97 249.786C422.869 248.876 417.995 246.783 412.757 246.874C409.955 246.874 407.655 247.465 405.378 244.462C403.1 241.459 398.91 242.187 395.493 241.254C390.255 239.957 384.994 238.546 379.551 239.934C378.936 240.093 377.957 240.366 377.547 239.638C374.905 234.906 369.849 235.657 365.727 234.451C360.4 232.581 354.677 232.134 349.124 233.154C348.087 233.324 347.024 233.201 346.054 232.799C345.084 232.397 344.246 231.732 343.635 230.879C351.606 227.989 359.441 229.513 367.435 231.447C389.959 236.931 412.552 242.096 435.144 247.374C440.861 248.717 446.532 249.922 452.294 251.31C453.137 251.583 454.389 251.538 454.936 252.88Z" fill="#FEFEFE"/>
<path d="M355.683 248.739C357.96 245.44 361.491 244.621 364.793 243.802C369.097 242.733 373.356 240.753 378.002 241.845C386.065 238.341 393.512 242.755 401.21 243.711C402.266 243.857 403.274 244.248 404.151 244.852C405.029 245.457 405.754 246.258 406.266 247.192C399.902 248.069 393.644 249.594 387.591 251.743C386.362 252.214 385.211 252.866 384.174 253.677C383.4 254.268 382.603 255.042 383.446 256.202L383.058 256.475C380.781 256.794 378.503 255.565 376.226 255.246C374.861 254.879 373.435 254.794 372.035 254.996C370.582 255.156 369.116 255.156 367.663 254.996C367.35 254.93 367.05 254.815 366.774 254.655C364.825 252.575 362.236 251.206 359.418 250.764C358.074 250.377 356.548 250.423 355.524 249.24L355.683 248.739Z" fill="#FEFEFE"/>
<path d="M325.916 241.913C327.099 240.181 328.858 238.924 330.881 238.364C338.522 235.507 346.593 233.968 354.749 233.813C361.195 233.677 367.275 236.089 373.493 237.454C374.837 237.75 375.338 238.933 376.795 240.07C372.21 240.716 367.681 241.704 363.244 243.028C360.872 243.591 358.63 244.602 356.64 246.009C355.797 246.714 354.658 247.328 355.751 248.694C354.613 249.786 353.474 248.967 352.267 248.694C349.736 247.851 347.075 247.465 344.409 247.556C342.132 247.374 339.854 248.261 337.577 247.897C335.307 245.721 332.434 244.279 329.332 243.756C328.101 243.704 326.929 243.211 326.03 242.368L325.916 241.913Z" fill="#FEFEFE"/>
<path d="M383.536 256.179C387.089 251.628 392.51 251.287 397.406 250.013C401.582 249.14 405.801 248.494 410.046 248.079C415.08 247.374 419.726 249.308 424.531 250.127C426.125 250.4 427.697 250.832 429.268 251.151C430.562 251.396 431.77 251.975 432.773 252.828C433.775 253.682 434.537 254.782 434.985 256.02L401.711 260.57C399.433 260.889 397.156 261.367 394.878 261.776C392.496 259.875 389.679 258.593 386.679 258.045C385.609 257.703 383.878 258.045 383.741 256.156L383.536 256.179Z" fill="#FEFEFE"/>
<path d="M293.69 265.462H288.861C288.727 265.573 288.558 265.634 288.383 265.634C288.209 265.634 288.04 265.573 287.905 265.462C285.74 263.538 283.069 262.275 280.207 261.822C278.954 261.435 277.383 261.298 277.201 259.547C277.019 257.795 278.522 257.067 279.843 256.543C283.953 255.217 288.201 254.362 292.505 253.995C297.06 253.267 301.502 252.971 305.943 252.22C312.393 253.386 318.738 255.076 324.914 257.271C326.03 257.613 326.987 258.227 327.009 259.547C326.981 259.886 326.855 260.21 326.645 260.479C322.409 262.254 317.763 261.867 313.39 262.982C310.247 263.801 306.785 263.824 304.667 266.918C304.391 267.235 304.021 267.454 303.611 267.544C303.201 267.634 302.773 267.59 302.39 267.419C299.52 266.736 296.537 266.418 293.69 265.462Z" fill="#FEFEFE"/>
<path d="M197.557 270.377C196.897 271.037 196.555 271.788 195.143 271.469C186.944 269.543 178.737 267.738 170.523 266.054C168.701 265.69 168.883 264.712 168.929 263.506C169.202 261.094 171.206 260.798 172.96 260.32C178.144 259.044 183.422 258.184 188.743 257.749C191.626 257.003 194.625 256.81 197.58 257.181C203.296 258.705 208.967 260.161 214.752 261.731C216.041 261.97 217.24 262.56 218.214 263.437C217.872 265.349 216.278 265.303 214.889 265.508C211.336 266.031 207.76 266.486 204.253 267.283C201.814 267.792 199.524 268.85 197.557 270.377Z" fill="#FEFEFE"/>
<path d="M287.996 265.372H288.861C284.99 265.986 281.095 266.532 277.223 267.192C274.149 267.738 271.074 268.398 268.114 269.103C267.339 269.285 266.314 269.649 266.018 270.241C264.583 273.039 262.397 272.243 260.37 271.492C256.179 269.922 252.034 271.06 247.867 271.492C247.661 271.24 247.541 270.929 247.525 270.605C247.388 269.308 246.318 269.058 245.248 268.694C244.177 268.33 242.72 267.829 241.421 267.442C240.123 267.055 237.504 266.919 237.618 264.621C237.732 262.323 239.895 262.073 241.512 261.64C248.349 260.145 255.27 259.066 262.238 258.409C263.559 258.25 264.879 258 266.2 257.841C273.033 258.705 279.182 261.413 285.627 263.324C286.634 263.705 287.474 264.431 287.996 265.372Z" fill="#FEFEFE"/>
<path d="M137.431 256.748C136.748 257.863 136.452 258.636 134.471 258.136C126.591 256.156 118.528 254.7 110.625 252.971C109.692 252.766 108.234 252.971 108.348 251.242C108.689 248.557 110.808 247.875 112.903 247.306C118.008 246.138 123.18 245.287 128.39 244.757C131.328 244.325 134.311 244.098 137.226 243.597C143.706 244.766 150.081 246.455 156.289 248.648C156.758 248.715 157.194 248.927 157.537 249.253C157.88 249.579 158.112 250.004 158.202 250.468C157.86 252.152 156.494 252.357 155.173 252.539C149.065 252.94 143.068 254.362 137.431 256.748Z" fill="#FEFEFE"/>
<path d="M247.889 270.787V271.515C241.743 272.102 235.651 273.167 229.67 274.7C229.1 274.882 228.303 274.905 227.984 275.292C225.479 278.409 222.495 277.362 219.375 276.611C212.702 275.041 205.984 273.654 199.265 272.266C198.422 272.084 198.286 271.72 198.354 271.06C198.627 268.967 200.199 268.307 201.93 267.761C205.863 266.684 209.877 265.923 213.932 265.485C218.487 264.78 222.792 263.984 227.255 263.46C234.088 264.211 240.192 267.01 246.637 268.898C247.275 269.103 248.368 269.467 247.889 270.787Z" fill="#FEFEFE"/>
<path d="M257.797 257.203C255.519 254.769 252.262 255.087 249.598 253.813C248.983 253.517 247.776 254.2 247.73 252.903C247.685 251.606 248.482 251.31 249.347 250.878C252.069 249.783 254.926 249.063 257.842 248.739C263.855 247.715 269.89 246.873 276.062 246.305C278.085 246.304 280.089 246.699 281.961 247.465C287.017 249.058 292.392 249.74 297.061 252.379C296.582 254.222 294.92 254.04 293.576 254.2C289.692 254.617 285.837 255.263 282.029 256.134C280.992 256.224 279.989 256.549 279.097 257.085C278.205 257.622 277.447 258.355 276.882 259.228C276.222 260.525 275.174 259.956 274.172 259.751C271.558 258.843 268.828 258.314 266.064 258.181C264.083 258.727 262.01 258.295 260.006 258.909C258.548 259.433 258.002 258.454 257.797 257.203Z" fill="#FEFEFE"/>
<path d="M107.687 250.536C107.414 251.788 106.64 252.038 105.41 251.788C99.6251 250.491 93.8175 249.262 88.0782 247.647C102.244 245.713 116.41 243.802 130.576 241.822C144.742 239.843 159.432 237.704 173.848 235.611C178.882 234.883 183.869 233.927 188.903 233.199C191.627 232.975 194.362 233.477 196.828 234.655C194.232 235.247 191.909 235.77 189.609 236.339C189.297 236.38 189.009 236.525 188.789 236.748C185.35 241.731 181.227 238.205 177.401 237.681C176.969 237.681 176.627 237.499 176.331 237.909C174.053 239.774 171.275 239.092 168.747 239.501C163.395 240.366 157.974 240.821 152.691 242.118C151.62 242.391 150.163 242.323 149.525 243.165C146.837 246.759 143.649 245.121 140.415 244.393C139.367 244.143 138.297 243.529 137.135 243.984C129.104 244.736 121.115 245.89 113.199 247.442C111.063 247.816 109.118 248.908 107.687 250.536Z" fill="#FEFEFE"/>
<path d="M218.715 262.8C216.437 260.252 212.976 260.525 210.197 259.319C209.446 258.955 208.125 259.319 208.147 258.045C208.17 256.771 209.263 256.543 210.083 256.27C214.35 254.96 218.737 254.075 223.179 253.631C227.324 253.062 231.446 252.471 235.591 251.97C238.531 251.913 241.449 252.479 244.154 253.631C248.573 254.973 253.264 255.428 257.296 257.954C256.794 259.82 255.155 259.638 253.811 259.797C249.84 260.205 245.9 260.866 242.014 261.776C240.807 262.072 239.281 262.209 238.666 263.21C236.798 266.372 234.27 265.121 231.833 264.598C230.307 263.934 228.642 263.653 226.982 263.779C225.001 264.302 222.928 263.779 220.924 264.507C219.466 265.007 218.943 264.029 218.715 262.8Z" fill="#FEFEFE"/>
<path d="M297.47 251.629C295.193 249.058 291.572 249.354 288.679 248.126C287.973 247.807 286.903 248.126 286.903 246.897C286.903 245.668 287.791 245.532 288.52 245.259C292.859 243.891 297.321 242.946 301.843 242.437C306.194 242.097 310.516 241.458 314.779 240.526C317.057 239.184 319.22 240.526 321.27 241.14C325.506 242.301 329.651 243.712 333.842 245.031C334.912 245.372 336.415 245.577 336.119 247.306C334.047 249.582 331.131 248.831 328.581 249.331C325.666 249.9 322.728 250.378 319.858 251.174C319.357 251.311 318.674 251.174 318.423 251.652C315.645 255.657 312.114 253.563 308.767 252.904C307.818 252.5 306.769 252.397 305.76 252.608C303.779 253.154 301.706 252.608 299.725 253.336C298.222 253.859 297.698 252.881 297.47 251.629Z" fill="#FEFEFE"/>
<path d="M176.49 238.614C182.23 240.139 187.878 241.595 193.663 243.165C194.949 243.412 196.145 244.002 197.124 244.871C196.783 246.805 195.188 246.737 193.799 246.942C189.806 247.392 185.843 248.083 181.934 249.012C180.148 249.243 178.519 250.146 177.379 251.538C176.513 252.789 175.329 252.584 174.053 252.357C171.701 251.586 169.241 251.195 166.765 251.196C164.078 250.764 161.322 252.675 158.658 250.946C157.291 248.261 154.376 248.443 152.098 247.465C150.481 246.782 147.771 247.237 147.726 244.962C147.68 242.687 150.299 242.323 152.144 241.913C160.16 240.173 168.3 239.07 176.49 238.614Z" fill="#FEFEFE"/>
<path d="M167.95 262.96C167.95 264.757 167.722 265.463 165.399 264.894C156.562 262.778 147.635 261.049 138.752 259.183C138.069 259.024 138.069 258.523 138.069 258.022C138.297 256.088 139.732 255.338 141.349 254.814C147.086 253.344 152.925 252.302 158.817 251.697C161.527 251.265 164.283 251.015 167.016 250.833C173.418 251.743 179.718 253.267 185.828 255.383C186.693 255.679 187.787 256.043 187.627 257.181C187.468 258.318 186.329 258.432 185.35 258.5C182.48 258.773 179.656 259.274 176.809 259.729C173.654 260.141 170.629 261.244 167.95 262.96Z" fill="#FEFEFE"/>
<path d="M206.257 245.44C213.224 246.961 220.034 249.132 226.595 251.925C224.317 252.289 222.04 252.584 219.762 253.017C216.688 253.586 213.613 254.245 210.653 254.882C210.246 254.935 209.865 255.109 209.559 255.383C206.303 259.797 202.454 256.93 198.787 256.293C198.354 256.293 198.012 256.111 197.716 256.521C194.186 257.271 190.77 259.114 187.172 256.202C185.012 255.013 182.648 254.241 180.203 253.927C179.155 253.608 177.788 253.449 177.72 252.016C177.652 250.582 178.973 249.922 180.111 249.536C183.739 248.379 187.48 247.616 191.271 247.26C195.826 246.737 200.153 245.463 204.686 245.304C205.212 245.202 205.756 245.249 206.257 245.44Z" fill="#FEFEFE"/>
<path d="M393.557 261.685L356.935 266.782C352.995 265.781 349.306 264.052 345.548 262.732C343.658 262.072 343.885 260.206 345.89 259.001C348.742 257.613 351.835 256.786 355 256.566C360.784 255.61 366.592 254.996 372.422 254.587C374.364 254.412 376.319 254.717 378.116 255.474C382.671 256.566 387.226 257.749 391.644 259.342C392.555 259.66 394.309 259.774 393.557 261.685Z" fill="#FEFEFE"/>
<path d="M354.476 267.283C347.803 268.125 341.13 268.921 334.457 269.808C328.512 270.628 322.568 271.538 316.624 272.425C313.542 271.005 310.351 269.834 307.081 268.921C306.102 268.694 305.054 268.216 305.077 266.919C305.1 265.622 306.011 265.076 306.945 264.644C309.789 263.416 312.81 262.648 315.895 262.368C321.908 261.618 327.852 260.457 333.865 259.684C340.697 260.525 346.915 263.256 353.383 265.258C354.203 265.531 355.25 266.054 354.476 267.283Z" fill="#FEFEFE"/>
<path d="M314.779 272.88C309.245 273.608 303.688 274.313 298.154 275.155C291.686 276.065 285.24 277.021 278.772 277.908C278.271 277.908 277.52 278.068 277.269 277.908C274.65 274.905 270.733 274.996 267.362 273.745C266.702 273.494 265.859 273.585 265.813 272.653C265.768 271.72 266.451 271.401 267.111 271.105C270.11 269.865 273.283 269.097 276.517 268.83C281.756 268.102 287.039 267.556 292.3 266.873C292.793 266.732 293.261 266.517 293.69 266.236C295.717 265.349 297.493 266.555 299.338 266.942C303.911 267.97 308.42 269.261 312.843 270.81C313.777 270.832 315.554 270.923 314.779 272.88Z" fill="#FEFEFE"/>
<path d="M226.436 278.135C228.166 275.428 230.831 275.269 233.063 274.882C240.344 273.376 247.716 272.35 255.132 271.81C259.687 271.605 264.356 273.812 268.911 275.2C271.484 275.582 273.928 276.573 276.039 278.09L260.279 280.365C257.364 280.775 254.403 280.979 251.533 281.639C243.676 283.459 236.57 279.91 229.123 278.795C228.394 278.613 227.574 278.386 226.436 278.135Z" fill="#FEFEFE"/>
<path d="M266.018 246.578C260.886 246.989 255.801 247.865 250.827 249.195C249.005 249.695 247.229 250.219 246.591 252.266C246.295 253.199 245.976 252.881 245.293 252.653C240.356 250.767 234.958 250.442 229.829 251.72C229.538 251.816 229.23 251.845 228.926 251.805C228.623 251.766 228.332 251.659 228.075 251.493C225.798 248.74 222.222 248.945 219.33 247.67C218.669 247.375 217.485 248.012 217.348 246.806C217.212 245.6 218.191 244.986 219.148 244.531C222.027 243.574 224.984 242.866 227.984 242.415C232.79 241.345 237.208 243.279 241.649 244.44C246.09 245.6 249.78 244.44 253.788 243.962C256.066 243.734 258.343 243.211 260.461 243.074C261.633 243.033 262.79 243.345 263.781 243.97C264.772 244.595 265.552 245.504 266.018 246.578Z" fill="#FEFEFE"/>
<path d="M244.473 211.448C236.297 209.628 228.121 207.876 219.968 205.964C206.098 202.734 192.273 199.366 178.403 196.158C177.082 195.862 176.331 195.726 176.581 194.156C176.832 192.586 178.198 192.904 179.178 193.132C200.131 198.024 221.084 202.961 242.059 207.807C242.797 207.938 243.463 208.33 243.935 208.91C244.408 209.491 244.655 210.222 244.633 210.97L245.02 211.357L244.473 211.448Z" fill="#FDFDFD"/>
<path d="M197.625 244.189C195.485 241.914 192.296 242.073 189.7 240.89C188.994 240.594 187.604 241.299 187.582 239.843C187.559 238.387 188.584 238.046 189.518 237.568C192.386 236.564 195.357 235.885 198.377 235.543C204.185 234.792 209.423 237.545 215.003 238.273C215.895 238.432 216.778 238.645 217.644 238.91C215.149 239.562 212.605 240.011 210.038 240.253C212.819 241.131 215.798 241.171 218.601 240.367C221.302 239.717 224.146 240.056 226.618 241.322C224.139 241.85 221.691 242.511 219.284 243.302C219.075 243.336 218.887 243.45 218.76 243.62C215.321 248.603 211.199 245.076 207.373 244.53C206.94 244.53 206.599 244.371 206.303 244.781C204.207 246.305 201.748 245.304 199.47 246.032C198.126 246.328 197.853 245.076 197.625 244.189Z" fill="#FEFEFE"/>
<path d="M307.263 240.366C301.797 241.321 296.741 242.141 291.708 243.119C289.431 243.574 286.766 243.961 285.65 246.6C285.126 247.851 284.284 246.828 283.965 246.737C279.369 245.081 274.371 244.89 269.662 246.19C266.519 247.078 266.451 243.21 264.151 242.505C270.983 241.458 277.816 240.389 284.648 239.365C289.406 238.924 294.135 238.218 298.814 237.249C302.617 236.293 304.622 238.091 307.263 240.366Z" fill="#FEFEFE"/>
<path d="M85.5047 171.13C90.0597 172.131 94.9791 173.201 99.8984 174.361C111.901 177.182 123.88 180.072 135.883 182.893C136.72 183.009 137.509 183.356 138.16 183.894C136.634 183.894 137.5 186.784 134.881 186.17C120.874 182.734 106.754 179.594 92.6788 176.5L84.9126 174.793C83.455 174.498 83.2956 173.519 83.3183 172.268C83.3411 171.016 84.2293 171.062 85.5047 171.13Z" fill="#FDFDFD"/>
<path d="M314.779 240.048C314.779 240.048 314.574 240.048 314.483 240.048C310.543 240.708 306.968 240.389 304.781 236.521C315.599 234.838 326.645 233.063 337.736 231.448C338.97 231.065 340.293 231.078 341.519 231.486C342.745 231.895 343.812 232.677 344.569 233.723C339.512 234.545 334.557 235.903 329.788 237.773C328.08 238.524 325.233 238.797 326.007 242.073C323.73 243.12 321.794 241.299 319.63 241.163C318.037 240.697 316.417 240.324 314.779 240.048Z" fill="#FEFEFE"/>
<path d="M139.754 188.24C145.431 189.407 151.201 190.07 156.995 190.22C161.825 190.247 166.653 190.011 171.457 189.514C171.958 189.425 172.452 189.304 172.937 189.15C175.443 188.536 176.467 189.4 175.83 192.017C175.311 194.545 175.142 197.133 175.329 199.707C175.329 201.505 174.509 201.983 173.051 202.142C171.594 202.301 170.478 201.573 170.5 199.867C170.523 199.556 170.523 199.244 170.5 198.934C170.25 192.995 170.25 193.2 164.055 193.428C156.157 193.964 148.223 193.574 140.415 192.267C140.21 192.267 140.005 192.267 139.8 192.267C139.091 192.134 138.459 191.734 138.036 191.15C137.612 190.566 137.428 189.842 137.522 189.127C137.636 186.42 139.572 190.174 139.754 188.24Z" fill="#FDFDFD"/>
<path d="M243.972 207.17C222.23 201.983 200.563 196.84 178.973 191.744C177.743 191.471 176.695 191.425 177.151 189.833C177.606 188.24 178.585 189.491 179.428 189.673C200.335 194.451 221.243 199.298 242.196 203.871C244.655 204.417 244.132 205.464 243.972 207.17Z" fill="#FDFDFD"/>
<path d="M144.606 182.074C139.094 183.894 134.266 181.232 129.346 180.163C114.907 177.023 100.582 173.337 86.2335 169.993H85.6186C84.4343 169.742 82.2024 170.63 82.4529 168.764C82.7034 166.898 84.9126 167.899 86.1652 168.218C104.917 172.48 123.66 176.765 142.396 181.073C143.185 181.277 143.932 181.616 144.606 182.074Z" fill="#FDFDFD"/>
<path d="M170.523 187.581C159.54 189.508 148.259 188.862 137.568 185.693C142.544 182.989 148.349 182.234 153.852 183.577C159.386 185.01 164.966 186.261 170.523 187.581Z" fill="#FDFDFD"/>
<path d="M197.625 244.189C198.217 244.894 198.582 246.055 199.903 245.509C201.953 244.621 204.162 245.167 206.234 244.735V245.44C201.717 246.34 197.156 247.001 192.569 247.42C188.256 247.959 183.997 248.865 179.838 250.127C178.904 250.446 177.697 250.855 177.766 252.107C177.834 253.358 179.2 252.926 180.043 253.29C183.027 254.632 186.739 254.314 189.153 257.203C189.41 257.371 189.702 257.476 190.006 257.512C190.31 257.547 190.619 257.512 190.907 257.408C193.159 256.964 195.444 256.705 197.739 256.635V257.34C193.264 258.26 188.74 258.921 184.188 259.319C180.189 259.825 176.225 260.585 172.322 261.595C171.663 261.686 171.032 261.921 170.473 262.283C169.914 262.644 169.442 263.124 169.088 263.688L168.109 263.096C170.159 260.002 173.643 260.07 176.672 259.41C179.702 258.751 183.3 258.478 186.602 258C187.122 257.795 187.618 257.536 188.083 257.226C181.304 254.765 174.374 252.743 167.335 251.174C167.016 250.969 166.993 250.719 167.335 250.446C169.777 250.512 172.192 250.973 174.486 251.811C175.465 252.084 176.468 252.494 177.265 250.855C178.062 249.217 180.544 248.58 182.503 248.216C186.535 247.275 190.63 246.629 194.756 246.282C195.258 246.319 195.761 246.225 196.216 246.01C196.671 245.794 197.062 245.465 197.352 245.054L197.625 244.189Z" fill="#060606"/>
<path d="M148.887 194.702C154.535 194.702 160.161 194.702 165.809 194.702C166.545 194.693 167.272 194.877 167.916 195.234C168.559 195.592 169.099 196.111 169.481 196.741C169.862 197.37 170.073 198.088 170.092 198.824C170.111 199.56 169.938 200.288 169.589 200.936C169.564 201.031 169.519 201.12 169.457 201.197C169.395 201.274 169.317 201.337 169.229 201.382C169.141 201.427 169.044 201.454 168.946 201.459C168.847 201.464 168.748 201.449 168.656 201.414C162.051 199.366 155.173 198.16 148.887 194.702Z" fill="#FDFDFD"/>
<path d="M433.96 245.895C435.098 245.289 436.104 244.461 436.917 243.461C437.731 242.461 438.336 241.308 438.697 240.071C439.039 238.979 439.882 238.979 440.588 238.842C441.119 238.795 441.633 238.627 442.091 238.352C442.549 238.077 442.938 237.702 443.229 237.256C443.521 236.809 443.707 236.302 443.774 235.773C443.841 235.243 443.788 234.706 443.617 234.201C443.321 233.131 443.822 232.722 444.209 232.085C445.302 230.219 446.054 231.084 446.486 232.449C447.02 233.919 447.02 235.529 446.486 236.999C445.07 240.985 442.329 244.366 438.72 246.578C437.08 247.579 435.645 245.759 433.96 245.895Z" fill="#FDFDFD"/>
<path d="M414.579 241.367C415.692 240.884 416.687 240.166 417.497 239.263C418.307 238.36 418.912 237.293 419.27 236.134C419.635 234.928 420.5 234.655 421.548 234.428C423.643 233.973 424.964 232.585 424.508 230.537C424.331 229.769 424.394 228.965 424.687 228.233C424.98 227.501 425.49 226.876 426.148 226.442C428.312 229.058 428.289 231.811 426.148 235.361C422.686 241.026 419.953 242.528 414.579 241.367Z" fill="#FDFDFD"/>
<path d="M451.952 249.855C452.909 248.967 454.23 248.308 454.617 247.307C455.687 245.031 456.667 243.143 459.422 242.551C459.751 242.451 460.055 242.285 460.318 242.065C460.581 241.844 460.796 241.572 460.952 241.267C461.107 240.961 461.199 240.627 461.222 240.284C461.245 239.942 461.198 239.599 461.085 239.275C460.47 237.364 461.472 236.294 462.611 235.134C464.888 237.728 464.888 240.936 462.383 244.531C459.081 249.263 456.143 252.403 451.952 249.855Z" fill="#FDFDFD"/>
<path d="M227.255 263.324C228.576 262.664 229.806 263.506 230.991 263.756C233.632 264.302 235.751 265.599 238.483 262.8C241.216 260.002 245.544 260.753 249.142 259.774C251.852 259.046 254.927 260.093 257.296 257.954L257.797 257.203C258.366 257.908 258.753 259.069 260.074 258.523C262.124 257.635 264.333 258.204 266.428 257.749C266.499 257.8 266.556 257.87 266.592 257.949C266.628 258.029 266.642 258.117 266.633 258.204C266.633 258.386 266.588 258.477 266.497 258.477C261.98 259.379 257.419 260.04 252.832 260.457C248.5 260.949 244.218 261.809 240.032 263.028C239.121 263.346 237.914 263.756 237.96 264.984C238.005 266.213 239.326 265.895 240.237 266.168C242.72 266.987 245.225 267.76 247.639 268.716C247.798 268.716 250.873 269.603 248.026 270.786C247.366 268.943 245.521 268.966 244.086 268.511C238.575 266.918 233.018 265.508 227.483 263.961C227.005 263.779 226.982 263.597 227.255 263.324Z" fill="#070707"/>
<path d="M266.406 258.477V257.749C269.366 257.453 271.985 258.955 274.832 259.296C275.333 259.296 275.948 260.32 276.335 259.296C278.043 255.155 282.075 255.633 285.445 254.746C288.515 253.953 291.661 253.488 294.829 253.358C295.277 253.387 295.726 253.294 296.127 253.09C296.527 252.886 296.866 252.577 297.106 252.198L297.607 251.447C298.199 252.152 298.586 253.312 299.885 252.766C301.934 251.879 304.143 252.448 306.216 251.97C306.295 252.019 306.357 252.091 306.393 252.177C306.43 252.262 306.44 252.357 306.421 252.448C306.421 252.63 306.421 252.698 306.421 252.698C301.906 253.608 297.344 254.269 292.756 254.678C288.729 255.151 284.741 255.911 280.822 256.953C279.478 257.385 277.702 257.704 277.838 259.456C277.975 261.208 279.752 260.343 280.754 260.775C282.485 261.526 284.443 261.685 286.174 262.596C287.29 263.164 288.452 263.528 288.247 265.144C282.644 261.549 276.017 261.048 270.027 259.001C268.615 258.887 267.499 258.728 266.406 258.477Z" fill="#070707"/>
<path d="M314.779 272.879C315.053 271.332 313.595 271.309 312.866 271.082C306.581 269.021 300.177 267.342 293.69 266.054V265.576C296.354 264.552 298.677 266.145 301.137 266.6C302.663 266.895 304.007 267.737 305.009 265.394C305.669 263.847 307.856 263.46 309.564 263.118C315.235 262.095 320.951 261.298 326.645 260.411C327.662 259.684 328.843 259.221 330.083 259.062C331.323 258.903 332.583 259.054 333.751 259.501C333.834 259.537 333.908 259.59 333.969 259.657C334.031 259.723 334.078 259.801 334.108 259.887C334.138 259.972 334.15 260.063 334.143 260.153C334.137 260.243 334.112 260.331 334.07 260.411C329.554 261.316 324.992 261.969 320.405 262.368C316.082 262.869 311.808 263.729 307.628 264.939C306.58 265.303 305.35 265.803 305.35 267.214C305.35 268.625 307.013 268.192 307.628 268.42C310.794 269.375 314.164 269.762 316.465 272.538C316.123 272.993 315.44 272.879 314.779 272.879Z" fill="#070707"/>
<path d="M334.001 260.343V259.592C335.436 257.908 337.053 259.16 338.556 259.592C340.834 260.07 343.111 260.752 344.91 258.318C345.503 257.521 346.71 257.362 347.712 257.066C353.125 255.793 358.608 254.836 364.132 254.2C365.385 253.995 366.41 254.791 367.731 254.404H372.582C372.779 254.526 372.848 254.639 372.787 254.746C372.787 254.746 372.65 254.905 372.582 254.905C368.312 255.845 363.982 256.491 359.623 256.839C355.369 257.309 351.159 258.108 347.028 259.228C345.981 259.569 344.751 259.91 344.614 261.23C344.478 262.55 346.163 262.322 346.892 262.527C350.452 263.304 353.831 264.756 356.844 266.804C356.161 267.555 355.227 267.237 354.385 267.305C354.111 265.03 352.107 265.303 350.741 264.893C345.275 263.21 339.627 261.822 334.001 260.343Z" fill="#070707"/>
<path d="M176.49 238.614C171.976 239.527 167.414 240.188 162.825 240.594C158.703 241.063 154.627 241.877 150.641 243.028C149.479 243.415 147.999 243.688 147.953 245.099C147.908 246.509 149.684 246.123 150.595 246.509C152.235 247.26 154.103 247.465 155.788 248.079C157.041 248.512 158.567 248.807 158.84 250.537C158.792 250.607 158.727 250.665 158.652 250.704C158.576 250.744 158.492 250.765 158.407 250.765C158.322 250.765 158.238 250.744 158.162 250.704C158.087 250.665 158.022 250.607 157.974 250.537C152.554 247.51 146.359 246.873 140.574 244.962C139.527 244.621 138.411 244.462 137.318 244.211C136.999 244.007 136.976 243.756 137.318 243.483C138.667 243.305 140.04 243.478 141.303 243.984C143.831 244.575 145.858 245.759 148.477 242.983C151.096 240.207 155.036 240.707 158.498 240.07C164.42 239.092 170.409 238.614 176.376 237.795L176.49 238.614Z" fill="#070707"/>
<path d="M425.192 244.007C427.624 242.613 429.475 240.393 430.407 237.75C430.612 237.182 431.045 236.681 431.842 237.136C432.184 237.318 432.639 237.295 432.958 237.5C434.438 238.41 437.285 237.068 437.513 239.935C437.65 241.778 434.188 244.69 431.979 244.94C429.683 244.956 427.398 244.642 425.192 244.007Z" fill="#FDFDFD"/>
<path d="M406.038 239.548C407.725 238.495 409.156 237.08 410.229 235.407C410.889 234.519 410.684 232.631 411.891 232.699C413.894 232.957 415.855 233.477 417.722 234.246C418.564 234.542 418.337 235.429 418.086 236.135C417.588 237.431 416.721 238.553 415.592 239.361C414.462 240.17 413.12 240.63 411.732 240.685C410.138 240.458 408.475 239.98 406.038 239.548Z" fill="#FDFDFD"/>
<path d="M443.23 247.852C444.154 247.433 444.982 246.829 445.664 246.078C446.346 245.326 446.866 244.443 447.192 243.483C447.853 241.208 449.174 241.208 450.677 241.936C452.18 242.664 454.526 241.799 454.799 243.733C455.118 246.009 453.091 247.51 451.292 248.648C449.493 249.786 447.443 249.513 443.23 247.852Z" fill="#FDFDFD"/>
<path d="M227.255 263.323V264.052C222.7 265.28 218.145 265.257 213.591 266.054C209.719 266.736 205.824 267.351 201.975 268.17C201.134 268.306 200.337 268.639 199.648 269.141C198.959 269.643 198.399 270.3 198.013 271.059L197.352 270.377C198.172 267.419 200.882 267.237 203.114 266.714C207.141 265.701 211.248 265.038 215.39 264.734C215.893 264.773 216.398 264.682 216.856 264.471C217.315 264.26 217.711 263.936 218.009 263.528L218.51 262.8C219.102 263.483 219.466 264.643 220.787 264.12C222.974 263.21 225.16 263.779 227.255 263.323Z" fill="#090909"/>
<path d="M158.065 250.537H158.931C161.687 251.72 164.374 249.968 167.107 250.309V251.037C162.689 252.243 157.997 252.22 153.579 253.017C149.707 253.699 145.813 254.336 141.964 255.133C141.125 255.278 140.331 255.614 139.644 256.115C138.957 256.616 138.394 257.269 138.001 258.022L137.363 256.748C139.504 253.79 142.943 253.722 146.017 253.062C149.092 252.402 152.44 252.175 155.651 251.697C156.117 251.711 156.58 251.612 157 251.41C157.42 251.208 157.785 250.909 158.065 250.537Z" fill="#090909"/>
<path d="M451.588 241.299C452.271 239.706 453.865 238.842 453.296 237.181C453.258 236.899 453.331 236.613 453.501 236.384C455.511 236.375 457.492 236.868 459.263 237.818C460.538 238.364 460.288 239.866 459.764 240.798C458.944 242.3 457.487 242.368 455.87 241.959C454.253 241.549 453.159 240.776 451.588 241.299Z" fill="#FBFBFB"/>
<path d="M414.966 232.266C415.425 231.512 415.934 230.789 416.492 230.105C417.175 229.376 415.49 227.306 417.585 227.67C419.613 227.644 421.578 228.374 423.097 229.718C423.383 230.152 423.512 230.671 423.463 231.188C423.413 231.705 423.187 232.19 422.823 232.562C422.458 232.974 421.987 233.277 421.46 233.437C420.934 233.598 420.373 233.61 419.84 233.472C418.291 233.04 416.72 232.698 414.966 232.266Z" fill="#FBFBFB"/>
<path d="M434.142 236.475L435.577 234.746C436.283 233.904 435.099 232.016 436.397 231.97C438.202 232.051 439.974 232.483 441.612 233.245C442.979 233.768 442.728 235.179 442.41 236.202C442.169 236.822 441.699 237.326 441.097 237.61C440.495 237.893 439.807 237.935 439.176 237.727C437.581 237.568 436.055 237.067 434.142 236.475Z" fill="#FBFBFB"/>
<path d="M137.295 243.484V244.212C132.818 245.115 128.294 245.768 123.744 246.169C119.74 246.698 115.771 247.458 111.855 248.444C111.072 248.603 110.335 248.937 109.7 249.422C109.065 249.907 108.548 250.529 108.188 251.242L107.687 250.537C108.371 247.443 111.172 247.352 113.381 246.874C121.269 245.222 129.258 244.089 137.295 243.484Z" fill="#080808"/>
<path d="M314.779 240.048C317.33 238.933 319.539 240.617 321.931 240.912C323.288 241.14 324.634 241.436 325.962 241.8C328.568 242.799 331.23 243.65 333.933 244.348C335.368 244.94 337.099 245.304 337.121 247.42C336.955 247.585 336.73 247.678 336.495 247.678C336.26 247.678 336.035 247.585 335.869 247.42C336.142 245.872 334.685 245.85 333.933 245.622C327.657 243.538 321.261 241.836 314.779 240.526V240.048Z" fill="#0A0A0A"/>
<path d="M372.468 254.792C372.445 254.626 372.445 254.457 372.468 254.291C374.996 253.199 377.228 254.883 379.596 255.179C380.963 255.338 382.307 255.77 383.65 256.066C386.251 257.062 388.904 257.913 391.599 258.614C393.034 259.206 394.787 259.57 394.787 261.686H393.557C393.808 260.139 392.35 260.116 391.622 259.888C385.346 257.805 378.95 256.103 372.468 254.792Z" fill="#0A0A0A"/>
<path d="M424.896 225.782C424.167 228.057 422.618 228.057 421.047 227.465C419.885 227.101 418.769 226.692 417.585 226.351C416.947 226.191 415.877 226.351 416.105 225.418C416.332 224.485 416.925 224.007 418.177 224.371C420.364 225.099 422.641 225.327 424.896 225.782Z" fill="#F9F9F9"/>
<path d="M444.14 230.196C444.048 230.583 443.869 230.943 443.615 231.25C443.361 231.556 443.04 231.8 442.677 231.963C442.314 232.125 441.918 232.203 441.52 232.188C441.122 232.174 440.733 232.068 440.383 231.879C439.503 231.679 438.653 231.366 437.855 230.946C437.058 230.332 435.053 231.402 435.395 229.581C435.737 227.761 437.399 228.694 438.47 228.876C440.36 229.172 442.205 229.65 444.14 230.196Z" fill="#F9F9F9"/>
<path d="M454.526 232.994C456.299 233.277 458.055 233.657 459.787 234.132C460.288 234.291 461.609 233.95 461.267 234.951C460.925 235.952 460.516 236.862 459.126 236.43C457.737 235.998 455.847 235.475 454.184 235.042C453.546 234.883 452.453 235.042 452.681 234.087C452.909 233.131 453.592 232.426 454.526 232.994Z" fill="#F9F9F9"/>
<path d="M446.805 240.002C446.824 241.922 446.083 243.771 444.743 245.147C443.404 246.523 441.575 247.316 439.654 247.352C442.246 245.116 444.66 242.682 446.874 240.071L446.805 240.002Z" fill="#F1F1F1"/>
<path d="M244.473 211.448C244.443 211.362 244.442 211.268 244.471 211.182C244.5 211.095 244.557 211.021 244.633 210.97H245.362H247.206L248.527 211.539C247.844 212.517 246.842 211.971 245.977 212.13L244.473 211.448Z" fill="#1E1E1E"/>
<path d="M321.635 130.608C319.752 132.016 318.282 133.902 317.376 136.069C316.943 137.116 316.396 137.161 315.485 136.774C315.03 136.57 314.415 136.661 314.051 136.365C312.684 135.318 310.088 136.729 309.496 134.34C309.245 133.271 313.686 129.789 315.144 129.585C317.353 129.266 319.334 130.404 321.635 130.608Z" fill="#FDFDFD"/>
<path d="M436.989 157.274C435.097 158.651 433.636 160.537 432.776 162.712C432.366 163.781 431.842 163.827 430.954 163.508C430.361 163.414 429.78 163.254 429.223 163.03C427.879 162.12 425.556 163.212 424.918 161.278C424.509 160.095 428.859 156.478 430.544 156.25C432.707 155.954 434.689 157.069 436.989 157.274Z" fill="#FDFDFD"/>
<path d="M419.248 152.792C416.908 153.975 415.085 155.975 414.123 158.412C413.691 159.549 413.167 159.436 412.301 159.14C411.436 158.844 410.206 158.434 409.136 158.161C405.514 157.297 405.56 157.251 407.906 154.521C408.735 153.34 409.947 152.48 411.336 152.087C412.726 151.693 414.209 151.789 415.535 152.36C416.757 152.618 418 152.763 419.248 152.792Z" fill="#FDFDFD"/>
<path d="M340.242 134.931C338.355 136.323 336.895 138.214 336.028 140.392C335.618 141.438 335.049 141.597 334.229 141.142C333.409 140.687 332.931 140.96 332.498 140.687C331.109 139.823 328.809 140.892 328.171 138.958C327.761 137.752 332.02 134.157 333.774 133.93C335.96 133.611 337.941 134.772 340.242 134.931Z" fill="#FDFDFD"/>
<path d="M455.232 160.778C452.866 162.073 451.023 164.148 450.017 166.648C449.987 166.794 449.923 166.932 449.832 167.05C449.741 167.168 449.623 167.264 449.489 167.33C449.355 167.396 449.208 167.43 449.058 167.43C448.909 167.43 448.762 167.396 448.627 167.331C447.956 167.163 447.294 166.958 446.646 166.716C445.211 165.966 442.979 166.899 442.227 165.033C441.795 163.918 446.122 160.187 447.853 159.982C450.085 159.686 452.112 160.755 455.232 160.778Z" fill="#FDFDFD"/>
<path d="M358.416 138.639C356.355 139.689 354.687 141.372 353.656 143.44C353.178 144.578 352.198 145.443 350.741 144.51C350.49 144.35 350.126 144.51 349.853 144.259C348.418 143.554 346.186 144.487 345.434 142.712C344.91 141.415 349.556 137.616 351.515 137.684C353.474 137.752 355.546 138.162 358.416 138.639Z" fill="#FCFCFC"/>
<path d="M354.749 144.464C355.038 143.354 355.61 142.337 356.408 141.512C357.206 140.687 358.203 140.081 359.304 139.754C360.875 139.208 362.857 139.436 363.085 140.937C363.111 141.747 362.848 142.539 362.343 143.172C361.838 143.806 361.124 144.24 360.329 144.396C358.473 144.547 356.608 144.57 354.749 144.464Z" fill="#FCFCFC"/>
<path d="M341.107 140.71C339.968 140.505 338.283 141.415 337.805 139.527C337.554 138.48 341.449 135.659 343.02 135.841C344.091 135.955 346.14 135.978 345.73 137.365C345.184 139.254 344.205 141.734 341.107 140.71Z" fill="#FCFCFC"/>
<path d="M454.663 166.807C453.774 166.489 451.565 167.376 452.021 165.579C452.377 164.512 453.058 163.583 453.969 162.922C454.879 162.261 455.974 161.901 457.099 161.893C458.17 161.893 459.764 161.893 459.946 163.417C460.128 164.942 457.509 166.83 454.663 166.807Z" fill="#FCFCFC"/>
<path d="M438.606 163.076C436.966 163.076 435.349 163.258 434.598 161.893C434.074 160.915 438.265 157.911 439.973 158.162C440.975 158.298 442.888 158.526 442.501 159.595C441.909 161.392 441.43 163.964 438.606 163.076Z" fill="#FCFCFC"/>
<path d="M321.931 136.364C321.02 136.137 319.653 137.024 319.198 135.363C318.924 134.157 322.682 131.29 324.459 131.495C325.506 131.609 327.533 131.495 327.123 133.065C326.508 135.34 324.982 137.274 321.931 136.364Z" fill="#FCFCFC"/>
<path d="M419.703 158.73C418.154 158.73 416.332 159.003 415.991 157.638C415.649 156.273 417.312 155.363 418.268 154.726C418.998 154.166 419.881 153.841 420.8 153.792C421.718 153.743 422.63 153.973 423.415 154.453C423.531 154.512 423.631 154.595 423.71 154.698C423.788 154.801 423.842 154.92 423.868 155.047C423.895 155.174 423.892 155.304 423.861 155.43C423.83 155.556 423.771 155.672 423.689 155.772C422.687 157.137 422.254 159.617 419.703 158.73Z" fill="#FCFCFC"/>
<path d="M367.617 254.291C363.745 254.905 359.851 255.451 356.002 256.134C352.927 256.657 349.875 257.362 346.892 257.999C346.505 257.999 345.981 258.204 345.799 258.5C342.701 263.051 338.966 259.956 335.345 259.501C334.867 259.501 334.411 259.046 334.001 259.501L326.645 260.252V259.547C327.146 257.817 325.643 257.749 324.732 257.271C322.659 256.407 320.427 255.974 318.287 255.315C317.353 255.019 316.465 254.632 316.374 253.563C316.282 252.493 317.171 251.902 317.991 251.515C321.021 250.274 324.224 249.506 327.488 249.24C333.159 248.421 338.875 247.624 344.501 246.964C346.437 246.806 348.382 247.118 350.171 247.875C354.726 248.967 359.281 250.286 363.654 251.674C364.932 252.025 366.035 252.835 366.752 253.949L367.617 254.291Z" fill="#FEFEFE"/>
<path d="M366.751 254.2C361.035 250.628 354.362 249.968 348.122 248.079C346.945 247.769 345.751 247.526 344.546 247.351C344.349 247.245 344.28 247.131 344.341 247.01C344.341 247.01 344.478 246.851 344.546 246.851C347.097 245.759 349.306 247.442 351.697 247.738C353.055 247.966 354.4 248.262 355.728 248.625C358.211 249.968 361.103 250.082 363.654 251.174C365.043 251.743 366.934 251.947 366.751 254.2Z" fill="#0A0A0A"/>
<path d="M382.717 247.579C387.499 247.056 392.1 245.122 397.133 246.35L382.808 248.626L382.717 247.579Z" fill="#0A0A0A"/>
<path d="M378.503 248.671C374.677 247.329 370.578 246.919 366.888 245.304C371.023 245.135 375.101 246.317 378.503 248.671Z" fill="#0F0F0F"/>
<path d="M344.546 246.851V247.351C340.277 248.295 335.947 248.933 331.587 249.262C327.26 249.793 322.98 250.66 318.788 251.856C317.854 252.175 316.647 252.584 316.692 253.813C316.738 255.041 318.059 254.723 318.97 254.996C321.452 255.815 323.958 256.589 326.372 257.544C326.531 257.544 329.606 258.432 326.759 259.637C326.099 257.772 324.254 257.817 322.819 257.362C317.307 255.77 311.75 254.336 306.216 252.812V252.084C307.575 251.912 308.955 252.092 310.224 252.607C312.752 253.199 314.779 254.268 317.376 251.629C319.972 248.989 324.527 249.353 328.285 248.603C330.858 248.125 333.478 247.761 336.074 247.351H337.327C339.604 247.419 342.018 246.327 344.546 246.851Z" fill="#070707"/>
<path d="M352.904 240.799C357.71 240.184 362.31 238.296 367.366 239.479L353.064 241.754L352.904 240.799Z" fill="#0A0A0A"/>
<path d="M348.714 241.845C344.865 240.48 340.765 240.094 337.076 238.455C341.221 238.289 345.308 239.479 348.714 241.845Z" fill="#0F0F0F"/>
<path d="M424.987 253.791L410.707 256.066L410.593 255.156C415.33 254.428 419.908 252.608 424.987 253.791Z" fill="#0A0A0A"/>
<path d="M406.721 256.748C402.738 255.19 398.632 253.965 394.446 253.085C397.566 251.993 404.899 254.109 406.721 256.748Z" fill="#0F0F0F"/>
<path d="M300.363 260.093C306.499 259.161 312.679 258.546 318.879 258.25V259.137L300.363 261.139V260.093Z" fill="#0C0C0C"/>
<path d="M297.47 260.433C293.394 260.638 290.205 258.158 286.493 257.931C288.907 257.112 294.988 258.568 297.47 260.433Z" fill="#090909"/>
<path d="M210.448 263.483L191.954 265.463V264.462C198.091 263.472 204.282 262.856 210.493 262.619L210.448 263.483Z" fill="#0C0C0C"/>
<path d="M178.016 261.89C181.743 261.929 185.411 262.816 188.743 264.484C184.826 264.78 181.501 262.823 178.016 261.89Z" fill="#090909"/>
<path d="M279.228 264.734L260.734 266.691V265.69C266.87 264.705 273.062 264.104 279.273 263.892L279.228 264.734Z" fill="#0C0C0C"/>
<path d="M246.796 263.278C250.645 262.709 253.993 264.439 257.455 265.553C253.629 266.19 250.44 263.779 246.796 263.278Z" fill="#090909"/>
<path d="M150.276 250.468L131.76 252.402V251.424C137.895 250.42 144.087 249.812 150.299 249.604L150.276 250.468Z" fill="#0C0C0C"/>
<path d="M117.822 248.944C121.694 248.398 124.974 250.332 128.504 251.219C124.655 251.811 121.352 249.717 117.822 248.944Z" fill="#090909"/>
<path d="M221.562 271.265C227.711 270.468 233.837 269.581 240.055 269.376V270.286L221.539 272.311L221.562 271.265Z" fill="#0C0C0C"/>
<path d="M218.533 271.242C214.57 271.742 211.336 269.399 207.646 268.807C211.632 268.329 214.98 270.127 218.533 271.242Z" fill="#090909"/>
<path d="M270.619 253.244C276.747 252.323 282.92 251.731 289.112 251.47V252.311L270.596 254.291L270.619 253.244Z" fill="#0C0C0C"/>
<path d="M256.658 250.718C260.428 250.723 264.143 251.62 267.499 253.335C263.581 253.608 260.279 251.651 256.658 250.718Z" fill="#090909"/>
<path d="M230.899 258.864C237.049 258.045 243.198 257.203 249.393 256.953V257.885L230.899 259.865V258.864Z" fill="#0C0C0C"/>
<path d="M217.007 256.338C220.924 255.906 224.318 257.612 227.825 258.887C223.839 259.228 220.582 257.226 217.007 256.338Z" fill="#090909"/>
<path d="M309.678 247.692C315.827 246.941 321.953 245.963 328.171 245.826V246.714L309.632 248.739L309.678 247.692Z" fill="#0C0C0C"/>
<path d="M306.489 247.692C302.663 247.92 299.361 246.1 295.808 245.19C299.679 244.666 303.005 246.532 306.489 247.692Z" fill="#090909"/>
<path d="M189.358 244.894L170.819 246.828V245.826C176.969 245.007 183.141 244.188 189.335 243.892L189.358 244.894Z" fill="#0C0C0C"/>
<path d="M167.585 245.781C163.691 246.122 160.434 244.075 156.836 243.506C160.776 242.755 164.078 244.78 167.585 245.781Z" fill="#090909"/>
<path d="M180.066 257.294L161.527 259.228V258.25C167.676 257.431 173.848 256.566 180.043 256.339L180.066 257.294Z" fill="#0C0C0C"/>
<path d="M158.27 258.204C154.444 258.591 151.187 256.452 147.566 255.929C151.461 255.201 154.786 257.089 158.27 258.204Z" fill="#090909"/>
<path d="M200.563 252.584C206.691 251.67 212.865 251.108 219.057 250.9V251.697L200.518 253.653L200.563 252.584Z" fill="#0C0C0C"/>
<path d="M197.352 252.629C193.48 252.88 190.178 251.06 186.625 250.172C190.542 249.581 193.845 251.606 197.352 252.629Z" fill="#090909"/>
<path d="M367.321 261.958C373.47 261.139 379.642 260.32 385.837 260.047V261.025L367.298 262.959L367.321 261.958Z" fill="#0C0C0C"/>
<path d="M353.064 259.229C357.277 258.91 360.557 260.867 364.451 261.504C362.356 262.437 357.004 261.253 353.064 259.229Z" fill="#090909"/>
<path d="M328.307 267.464C334.444 266.562 340.625 266 346.823 265.781V266.6L328.307 268.534V267.464Z" fill="#0C0C0C"/>
<path d="M325.392 267.874C321.316 268.033 318.082 265.803 313.663 265.348C317.747 264.824 321.887 265.716 325.392 267.874Z" fill="#090909"/>
<path d="M307.172 272.174L288.634 274.131V273.152C294.77 272.164 300.961 271.548 307.172 271.309V272.174Z" fill="#0C0C0C"/>
<path d="M285.696 273.471C281.619 273.608 278.385 271.378 273.967 270.923C278.053 270.402 282.195 271.302 285.696 273.471Z" fill="#090909"/>
<path d="M268.341 277.726L249.005 279.705C251.442 277.84 266.36 276.406 268.341 277.726Z" fill="#0C0C0C"/>
<path d="M246.386 278.727C242.56 279.046 239.258 277.066 235.682 276.224C239.577 275.724 242.902 277.43 246.386 278.727Z" fill="#090909"/>
<path d="M237.322 247.419C233.245 247.556 230.034 245.144 226.344 244.871C230.188 244.435 234.065 245.335 237.322 247.419Z" fill="#090909"/>
<path d="M207.282 240.184C203.433 240.639 200.199 238.455 196.578 237.909C200.472 237.136 203.729 239.229 207.282 240.184Z" fill="#090909"/>
<path d="M339.422 254.518C345.594 253.768 351.72 252.789 357.938 252.653V253.54L339.399 255.565L339.422 254.518Z" fill="#0C0C0C"/>
<path d="M325.62 251.879C329.354 251.977 333.024 252.861 336.393 254.473C332.643 254.502 328.944 253.611 325.62 251.879Z" fill="#090909"/>
<path fill-rule="evenodd" clip-rule="evenodd" d="M260.743 176.385L245.619 191.313C244.691 192.229 243.186 192.229 242.258 191.313L227.135 176.385C226.207 175.469 226.207 173.984 227.135 173.068C228.063 172.152 229.567 172.152 230.495 173.068L241.562 183.991L241.562 118.346C241.562 117.05 242.626 116 243.939 116C245.251 116 246.315 117.05 246.315 118.346L246.315 183.991L257.382 173.068C258.31 172.152 259.815 172.152 260.743 173.068C261.671 173.984 261.671 175.469 260.743 176.385Z" fill="url(#paint0_linear)"/>
<path fill-rule="evenodd" clip-rule="evenodd" d="M153.62 145.305L168.744 130.204C169.672 129.277 169.672 127.775 168.744 126.848C167.816 125.922 166.311 125.922 165.383 126.848L154.316 137.898L154.316 92.3729C154.316 91.0624 153.252 90 151.939 90C150.627 90 149.563 91.0624 149.563 92.3729L149.563 137.898L138.496 126.848C137.567 125.922 136.063 125.922 135.135 126.848C134.207 127.775 134.207 129.277 135.135 130.204L150.259 145.305C151.187 146.232 152.692 146.232 153.62 145.305ZM384.618 145.305L399.743 130.204C400.671 129.277 400.671 127.775 399.743 126.848C398.814 125.922 397.31 125.922 396.382 126.848L385.314 137.898V92.3729C385.314 91.0624 384.25 90 382.938 90C381.625 90 380.561 91.0624 380.561 92.3729V137.898L369.494 126.848C368.566 125.922 367.061 125.922 366.133 126.848C365.205 127.775 365.205 129.277 366.133 130.204L381.257 145.305C382.186 146.232 383.69 146.232 384.618 145.305Z" fill="url(#paint1_linear)"/>
<defs>
<linearGradient id="paint0_linear" x1="243.939" y1="192.295" x2="243.939" y2="113.724" gradientUnits="userSpaceOnUse">
<stop stop-color="#E05C5C"/>
<stop offset="1" stop-color="#FFDDDD" stop-opacity="0"/>
</linearGradient>
<linearGradient id="paint1_linear" x1="267.439" y1="90" x2="267.439" y2="146" gradientUnits="userSpaceOnUse">
<stop offset="0.078125" stop-color="#E05B5B" stop-opacity="0"/>
<stop offset="0.505208" stop-color="#E05B5B" stop-opacity="0.279762"/>
<stop offset="0.953125" stop-color="#E05B5B"/>
</linearGradient>
</defs>
</svg>
